<svg width="20" height="18" viewBox="0 -2 20 18" fill="none" xmlns="http://www.w3.org/2000/svg">
    <path
        d="M18.3437 0.225617L13.4894 0.225617C12.6779 0.225067 11.8905 0.500911 11.2568 1.00771C10.6231 1.51451 10.1809 2.22204 10.0031 3.01374C9.82487 2.22225 9.38257 1.51498 8.74897 1.00826C8.11536 0.501533 7.32817 0.225521 6.51686 0.225617L1.66623 0.225617C1.2242 0.225783 0.800322 0.401453 0.487758 0.714017C0.175195 1.02658 -0.000475221 1.45046 -0.000640869 1.89249L-0.000640869 10.4275C-0.000475221 10.8695 0.175195 11.2934 0.487758 11.606C0.800322 11.9185 1.2242 12.0942 1.66623 12.0944H4.78061C8.32936 12.0944 9.38811 12.9412 9.89498 14.6987C9.91936 14.7962 10.0756 14.7962 10.1031 14.6987C10.6137 12.9419 11.6725 12.0944 15.2175 12.0944L18.3319 12.0944C18.7739 12.0942 19.1978 11.9185 19.5103 11.606C19.8229 11.2934 19.9986 10.8695 19.9987 10.4275V1.89624C19.9987 1.4557 19.8247 1.033 19.5145 0.720209C19.2043 0.407415 18.783 0.229869 18.3425 0.226242L18.3437 0.225617ZM8.40248 9.44062C8.40265 9.45659 8.39963 9.47243 8.3936 9.48721C8.38756 9.502 8.37864 9.51543 8.36734 9.52673C8.35605 9.53802 8.34262 9.54694 8.32783 9.55298C8.31305 9.55901 8.2972 9.56203 8.28123 9.56187H2.71498C2.69904 9.56195 2.68323 9.55887 2.66849 9.55281C2.65374 9.54674 2.64034 9.53781 2.62906 9.52654C2.61779 9.51526 2.60886 9.50186 2.60279 9.48712C2.59673 9.47237 2.59365 9.45656 2.59373 9.44062V8.64562C2.59373 8.57999 2.64561 8.52437 2.71498 8.52437H8.28436C8.34998 8.52437 8.40561 8.57624 8.40561 8.64562V9.44062H8.40248ZM8.40248 7.32624C8.40257 7.34219 8.39949 7.35799 8.39342 7.37274C8.38736 7.38749 8.37843 7.40089 8.36716 7.41216C8.35588 7.42344 8.34248 7.43237 8.32773 7.43843C8.31298 7.4445 8.29718 7.44758 8.28123 7.44749L2.71498 7.44749C2.69904 7.44758 2.68323 7.4445 2.66849 7.43843C2.65374 7.43237 2.64034 7.42344 2.62906 7.41216C2.61779 7.40089 2.60886 7.38749 2.60279 7.37274C2.59673 7.35799 2.59365 7.34219 2.59373 7.32624V6.53124C2.59373 6.46499 2.64561 6.40999 2.71498 6.40999L8.28436 6.40999C8.34998 6.40999 8.40561 6.46187 8.40561 6.53124V7.32624H8.40248ZM8.40248 5.21187C8.40257 5.22781 8.39949 5.24362 8.39342 5.25837C8.38736 5.27311 8.37843 5.28651 8.36716 5.29779C8.35588 5.30906 8.34248 5.31799 8.32773 5.32406C8.31298 5.33012 8.29718 5.3332 8.28123 5.33312L2.71498 5.33312C2.69904 5.3332 2.68323 5.33012 2.66849 5.32406C2.65374 5.31799 2.64034 5.30906 2.62906 5.29779C2.61779 5.28651 2.60886 5.27311 2.60279 5.25837C2.59673 5.24362 2.59365 5.22781 2.59373 5.21187V4.41687C2.59373 4.35124 2.64561 4.29562 2.71498 4.29562L8.28436 4.29562C8.34998 4.29562 8.40561 4.34749 8.40561 4.41687V5.21187H8.40248ZM17.4062 9.43749C17.4063 9.45344 17.4032 9.46924 17.3972 9.48399C17.3911 9.49874 17.3822 9.51214 17.3709 9.52341C17.3596 9.53469 17.3462 9.54362 17.3315 9.54968C17.3167 9.55575 17.3009 9.55883 17.285 9.55874L11.7187 9.55874C11.7028 9.55883 11.687 9.55575 11.6722 9.54968C11.6575 9.54362 11.6441 9.53469 11.6328 9.52341C11.6215 9.51214 11.6126 9.49874 11.6065 9.48399C11.6005 9.46924 11.5974 9.45344 11.5975 9.43749V8.64249C11.5975 8.57687 11.6494 8.52124 11.7187 8.52124L17.2881 8.52124C17.3544 8.52124 17.4094 8.57312 17.4094 8.64249V9.43749H17.4062ZM17.4062 7.32312C17.4064 7.33909 17.4034 7.35493 17.3973 7.36971C17.3913 7.3845 17.3824 7.39793 17.3711 7.40923C17.3598 7.42052 17.3464 7.42944 17.3316 7.43548C17.3168 7.44151 17.301 7.44453 17.285 7.44437H11.7187C11.7028 7.44445 11.687 7.44137 11.6722 7.43531C11.6575 7.42924 11.6441 7.42031 11.6328 7.40904C11.6215 7.39776 11.6126 7.38436 11.6065 7.36962C11.6005 7.35487 11.5974 7.33906 11.5975 7.32312V6.52812C11.5975 6.46249 11.6494 6.40687 11.7187 6.40687H17.2881C17.3544 6.40687 17.4094 6.45874 17.4094 6.52812V7.32312H17.4062ZM17.4062 5.20812C17.4063 5.22406 17.4032 5.23987 17.3972 5.25462C17.3911 5.26936 17.3822 5.28276 17.3709 5.29404C17.3596 5.30531 17.3462 5.31424 17.3315 5.32031C17.3167 5.32637 17.3009 5.32945 17.285 5.32937H11.7187C11.7028 5.32945 11.687 5.32637 11.6722 5.32031C11.6575 5.31424 11.6441 5.30531 11.6328 5.29404C11.6215 5.28276 11.6126 5.26936 11.6065 5.25462C11.6005 5.23987 11.5974 5.22406 11.5975 5.20812V4.41624C11.5975 4.35062 11.6494 4.29499 11.7187 4.29499H17.2881C17.3544 4.29499 17.4094 4.34687 17.4094 4.41624V5.20812H17.4062Z"
        fill="white" />

</svg>
