<svg xmlns="http://www.w3.org/2000/svg" version="1.1" x="0px" y="0px" viewBox="6 6 88 88"
    style="enable-background:new 6 6 88 88;" xml:space="preserve"><path d="M81,37.2V20.1c0-0.6-0.5-1.1-1.1-1.1H62.8L50.8,6.9c-0.4-0.4-1.1-0.4-1.5,0L37.2,19H20.1c-0.6,0-1.1,0.5-1.1,1.1v17.1  L6.9,49.2c-0.2,0.2-0.3,0.5-0.3,0.8c0,0.3,0.1,0.6,0.3,0.8L19,62.8v17.1c0,0.6,0.5,1.1,1.1,1.1h17.1l12.1,12.1  c0.2,0.2,0.5,0.3,0.8,0.3c0.3,0,0.6-0.1,0.8-0.3L62.8,81h17.1c0.6,0,1.1-0.5,1.1-1.1V62.8l12.1-12.1c0.2-0.2,0.3-0.5,0.3-0.8  c0-0.3-0.1-0.6-0.3-0.8L81,37.2z M74.5,59.7c-0.2,0.2-0.3,0.5-0.3,0.8v13.7H60.5c-0.3,0-0.6,0.1-0.8,0.3L50,84.2l-9.7-9.7  c-0.2-0.2-0.5-0.3-0.8-0.3H25.8V60.5c0-0.3-0.1-0.6-0.3-0.8L15.8,50l9.7-9.7c0.2-0.2,0.3-0.5,0.3-0.8V25.8h13.7  c0.3,0,0.6-0.1,0.8-0.3l9.7-9.7l9.7,9.7c0.1,0.1,0.1,0.1,0.2,0.2c0.2,0.1,0.3,0.1,0.5,0.1h13.7v13.7c0,0.3,0.1,0.6,0.3,0.8l9.7,9.7  L74.5,59.7z"/>
</svg>