<svg xmlns="http://www.w3.org/2000/svg" xmlns:xlink="http://www.w3.org/1999/xlink" width="18" height="20" viewBox="0 0 18 20">
  <defs>
    <clipPath id="clip-path">
      <rect id="Rectangle_13828" data-name="Rectangle 13828" width="18" height="20" transform="translate(-1 0.001)" fill="#00263e"/>
    </clipPath>
  </defs>
  <g id="h-half" transform="translate(1 0)">
    <g id="Group_35802" data-name="Group 35802" clip-path="url(#clip-path)">
      <g id="Group_35811" data-name="Group 35811" transform="translate(0 0.001)">
        <path id="Path_135716" data-name="Path 135716" d="M10.993,0c-.164,0-.307.268-.241.443.006.075.243.219.4.219a.123.123,0,0,0,.109-.048c.05-.077.159-.248.108-.322S11.094,0,10.993,0" fill="#00263e"/>
        <path id="Path_135717" data-name="Path 135717" d="M6.153.424a.094.094,0,0,0-.075.031c-.066.077-.206.26-.155.4a.8.8,0,0,0,.445.253.115.115,0,0,0,.079-.027c.075-.07.2-.179.156-.307a.711.711,0,0,0-.45-.346" fill="#00263e"/>
        <path id="Path_135718" data-name="Path 135718" d="M8.452.194A.253.253,0,0,0,8.4.2c-.182.047-.556.343-.447.545h0A2.11,2.11,0,0,0,8.232.618a.519.519,0,0,1,.215-.05c.1,0,.189.04.178.155a1.818,1.818,0,0,1-.214.206s-.272.261-.117.273h.013a1.321,1.321,0,0,0,.78-.479C9.126.642,9.2.432,9.1.335A1.851,1.851,0,0,0,8.452.194" fill="#00263e"/>
        <path id="Path_135719" data-name="Path 135719" d="M8.243,3.124c-.016-.081-.145-.108-.223-.093a1.364,1.364,0,0,0-.3.243,1.16,1.16,0,0,1-.413.241.836.836,0,0,1-.545-.025A1.823,1.823,0,0,1,6.543,3.4a1.3,1.3,0,0,0-.224-.1c-.009,0-.3.085-.5.143-.038.012-.134.046-.194.068a2.083,2.083,0,0,1-.23.071,3.682,3.682,0,0,1-1.77.051c-.708-.211-.761-.883-.38-1.472.091-.141.074.135.07.146a.759.759,0,0,0-.054.383c.079.736,2.508.614,2.636.178l-.007-.09-.006-.09a.867.867,0,0,1,.02-.237,1.229,1.229,0,0,1,.168-.4c.139-.22.336-.533.646-.509a1.89,1.89,0,0,1,.292.287c.2.223.034.722-.047.89-.089.186-.138.287.149.325a.785.785,0,0,0,.56-.158,1.394,1.394,0,0,1,.477-.295l.148.053a.553.553,0,0,0,.112.046,1.547,1.547,0,0,0,.312.078,4.228,4.228,0,0,0,.613-.508,2.747,2.747,0,0,1,.656-.5,1.253,1.253,0,0,1,.669,0,.429.429,0,0,1,.284.306.738.738,0,0,1-.05.456c-.068.176-.1.249-.081.3l.441-.083a1.407,1.407,0,0,0,.368-.161c.165-.1,0-.365-.067-.448-.085-.109-.2-.263-.195-.33a.8.8,0,0,1,.1-.375c.1-.145.392.308.41.339a1.155,1.155,0,0,1,.115.879.708.708,0,0,1-.315.393,5,5,0,0,1-1.35.366A5.7,5.7,0,0,1,9.13,3.388c-.249-.018-.552-.04-.665.055a.725.725,0,0,0-.124.13c-.021.03-.107.155-.155.113s.013-.206.025-.243c.034-.11.081-.262.032-.319M10.6,2.353c-.051-.1-.4-.129-.525-.135-.268-.011-.937.5-.812.641S10.745,2.7,10.6,2.353M6.8,2.42c.057-.112-.126-.273-.192-.319-.141-.1-.564.3-.371.5.156.163.531,0,.563-.18" fill="#00263e" fill-rule="evenodd"/>
        <path id="Path_135720" data-name="Path 135720" d="M3.889,14.18c.062-.05.476.1.65.16a3.11,3.11,0,0,0,.824.132,2.188,2.188,0,0,0,.855-.2,2.041,2.041,0,0,0,.766-.512,3.981,3.981,0,0,0,.581-.8c.034-.064-.093-.242-.139-.306-.107-.149-.108-.189-.117-.508a.835.835,0,0,1,.224-.549c.059-.035.123.074.153.125a1.826,1.826,0,0,0,.122.19,1.887,1.887,0,0,0,.323.231,2.044,2.044,0,0,0,.863.166,5.223,5.223,0,0,0,1.924-.433c.1-.087-.357-.183-.357-.183l-.441-.1L9.9,11.549l-.129-.027-.11-.029a1.437,1.437,0,0,0-.22-.039,3.351,3.351,0,0,0-.614.025c-.079.006-.1.007-.142-.02-.268-.158.433-.751.519-.8a2.723,2.723,0,0,1,.572-.094,6.284,6.284,0,0,0,.72-.068c.065-.01.456-.073.484-.139a4.049,4.049,0,0,0-.055-.588l-.04-.3c-.023-.185-.023-.185-.069-.466-.043-.263-.12-.66-.173-.929A6.193,6.193,0,0,1,10.475,6.6c.057-.136.363-.72.51-.343a1.144,1.144,0,0,0,.2.38.649.649,0,0,0,.126.107.644.644,0,0,1,.2.182c.106.194-.24.7-.364.749l.052.358c.006.03.066.379.092.537A11.29,11.29,0,0,1,11.451,9.8a1.777,1.777,0,0,1-.056.746,1.175,1.175,0,0,0-.1.438,6.509,6.509,0,0,0,1.173.274,6.414,6.414,0,0,0,.8.106,4.421,4.421,0,0,1,1.055.139c.1.068-.11.747-.327.7a5.4,5.4,0,0,0-1.542-.055,8.751,8.751,0,0,0-1.893.6,4.414,4.414,0,0,1-.957.3,4.12,4.12,0,0,1-1.08.076,3.805,3.805,0,0,0-.582-.041c-.006,0-.133.267-.158.318l-.032.066-.065.113-.07.11a3.8,3.8,0,0,1-.351.548,1.754,1.754,0,0,1-1.215.778,2.683,2.683,0,0,1-1.3-.284,2.869,2.869,0,0,0-.284-.122c-.079-.03-.265-.1-.27-.107-.063-.036-.409-.234-.309-.328m6.495-.036c.026-.04,2.258-.832,2.292-.832l.046.057c.011.05.012.35-.1.39a.235.235,0,0,1-.107.077,3.415,3.415,0,0,1-.37.143l-.318.113c-.113.041-.228.08-.353.115-.268.073-.659.181-.816.238-.1.035-.337.122-.389.087-.1-.065.066-.355.11-.388M.713,12.671a2.9,2.9,0,0,1-.568-.5,1.316,1.316,0,0,1-.137-.66l.018-.128.019-.11L.1,11.1a.487.487,0,0,0,.036-.129.739.739,0,0,1,.053-.148,2.6,2.6,0,0,1,.259-.485c.207-.256.316-.127.145.143a1.384,1.384,0,0,0-.174.651c-.023.416.467.723.755.834a3.253,3.253,0,0,0,1.066.243,6.288,6.288,0,0,0,2.658-.558c.289-.131.6-.273.431-.554a3.03,3.03,0,0,0-.239-.309.75.75,0,0,1-.2-.348,2.137,2.137,0,0,1,.151-.622c.2-.2.7.589.763.756a2.205,2.205,0,0,1,.058.829l-.114.316a2.492,2.492,0,0,1-.216.318,7.636,7.636,0,0,1-1.739.695,4.545,4.545,0,0,1-3.081-.064m5.779-3.01c-.067-.174.175-.608.3-.672.167-.089.725.374.768.507.063.193-.183.517-.292.609-.161.133-.736-.356-.773-.444m.027-2.113c-.036-.081.173-.221.258-.277.116-.078.357-.238.371-.261.058-.094-.345-.166-.419-.179a.726.726,0,0,0-.344.006.945.945,0,0,0-.14.073c-.055.033-.069.041-.121.023-.115-.04.1-.352.118-.381a.721.721,0,0,1,.306-.224A2.307,2.307,0,0,1,7.807,6.6c.138.471-1.121,1.183-1.288.946" fill="#00263e" fill-rule="evenodd"/>
        <path id="Path_135721" data-name="Path 135721" d="M2.847,7.312c-.089,0-.185.2-.209.25s-.09.187-.094.2c-.023.063-.023.063-.062.152a1.754,1.754,0,0,0-.124.983.592.592,0,0,0,.26.413.526.526,0,0,0,.191.051.225.225,0,0,0,.117-.032.9.9,0,0,0,.295-.35,1.051,1.051,0,0,0,.1-.237c0-.023.09-.33.015-.334h0c-.109,0-.154.111-.2.221-.019.047-.066.16-.112.171a.441.441,0,0,1-.1.012.214.214,0,0,1-.18-.089A.88.88,0,0,1,2.7,7.936c.066-.21.187-.6.179-.615a.065.065,0,0,0-.032-.009" fill="#00263e"/>
        <path id="Path_135722" data-name="Path 135722" d="M14.986,7.027c-.109,0-.252.475-.249.574a3.817,3.817,0,0,0,.012.723c.015.2.019.238.069.72.032.283.07.564.113.859l.035.253.051.427a12.6,12.6,0,0,1,.128,1.82c0,.1-.008.5.055.509h.017c.5,0,.27-2.781.235-3.084-.1-.875-.21-1.886-.384-2.667-.022-.1-.051-.135-.082-.135" fill="#00263e"/>
        <path id="Path_135723" data-name="Path 135723" d="M2.65,13.463a.161.161,0,0,0-.114.04,1.113,1.113,0,0,0-.245.614,1.449,1.449,0,0,0,.525.4h.021c.252,0,.605-.452.5-.615a1.251,1.251,0,0,0-.69-.437" fill="#00263e"/>
      </g>
    </g>
  </g>
</svg>
