<svg xmlns="http://www.w3.org/2000/svg" xmlns:xlink="http://www.w3.org/1999/xlink" width="18" height="20" viewBox="0 0 18 20">
  <defs>
    <clipPath id="clip-path">
      <rect id="Rectangle_13831" data-name="Rectangle 13831" width="18" height="20" transform="translate(0 0)" fill="#00263e"/>
    </clipPath>
  </defs>
  <g id="h-juzehezb" transform="translate(0 0)">
    <g id="Group_35808" data-name="Group 35808" clip-path="url(#clip-path)">
      <path id="Path_135741" data-name="Path 135741" d="M7.112,15.919a.662.662,0,0,1,.179-.482c.147-.142.527.162.573.312a.74.74,0,0,1-.209.476c-.143.072-.425-.194-.543-.306m6.794-.435a9.874,9.874,0,0,1,1.646-.534c.126.007.034.315-.144.382l-.428.141a5.356,5.356,0,0,1-1.15.326c-.093-.007.029-.284.076-.315m-7.945-.717c-.381-.2-.758-.408-.852-.873a1.844,1.844,0,0,1,.356-1.084c.111-.1.09.13.081.165a1.618,1.618,0,0,0-.077.636c.008.073.145.211.2.267l.093.069c.041.03.14.106.14.106a2.091,2.091,0,0,0,.8.246,4.584,4.584,0,0,0,1.476-.142,10.359,10.359,0,0,0,1.152-.374c.3-.145.417-.2.207-.54a1.662,1.662,0,0,1-.283-.6c.008-.112.05-.4.126-.443.2-.119.541.656.593.834a1.136,1.136,0,0,1-.26,1.111,4.569,4.569,0,0,1-1.371.562,5.719,5.719,0,0,1-1.04.2,3.116,3.116,0,0,1-1.032-.046,2.508,2.508,0,0,0-.31-.1m11.746-1.638c.021.22.024,1.384-.158,1.423-.076.017-.095-.027-.1-.113l-.04-.631a2.4,2.4,0,0,0-.029-.306l-.11-.592a23.125,23.125,0,0,1-.4-2.587c0-.143.04-.676.15-.742.087-.053.253.877.275,1,.147.826.367,2.074.414,2.549m-7.028-1.091a.9.9,0,0,1,.157-.508c.11-.2.6.2.648.3.1.215-.143.562-.352.518a1.8,1.8,0,0,1-.453-.31m-3-.973c.1-.075-.032-.225-.082-.262a.847.847,0,0,1-.248-.238A.76.76,0,0,1,7.4,10a.39.39,0,0,1,.558-.224,1.073,1.073,0,0,1,.126.435,2.755,2.755,0,0,0,.088.527.409.409,0,0,1,.123.315c-.013.125-.049.161-.182.129-.028-.007-.231-.055-.219.029.015.107-.521.565-.628.636l-.186.115c-.078.049-.156.1-.229.153-.027.018-.5.361-.5.173Zm2.547-.661a2.884,2.884,0,0,0,.739-.393c.115-.093-.248-.165-.3-.167a.5.5,0,0,0-.323.074c-.057.032-.123.068-.168.031-.092-.077.135-.369.2-.417a.849.849,0,0,1,.714-.046c.644.138.484.385.125.727a1.425,1.425,0,0,1-.488.225c-.064.021-.612.186-.5-.034m-2.625-.2c-.044.15.148.275.263.228.06-.025,0-.183-.022-.212-.037-.064-.212-.1-.241-.016m-.416-3.39a1.383,1.383,0,0,1,.433.1,1.635,1.635,0,0,0,.709.12l.216-.025.089-.022L8.8,6.965a2.048,2.048,0,0,0,.338-.129,2.675,2.675,0,0,0,1.118-1.1c.055-.09-.072-.212-.142-.278a.585.585,0,0,1-.156-.235,1.394,1.394,0,0,1,.075-.708c.038-.088.12-.123.171-.024a1.741,1.741,0,0,0,.125.222,1.3,1.3,0,0,0,.955.454,4.884,4.884,0,0,0,2.1-.354c.076-.031-.249-.159-.258-.162-.115-.036-.223-.069-.347-.1a5.679,5.679,0,0,0-1.1-.1c-.084,0,.051-.319.056-.332a.9.9,0,0,1,.141-.245,2.226,2.226,0,0,1,.75-.129,3.274,3.274,0,0,0,.827-.11c.133-.045-.046-1.05-.091-1.3l-.023-.144L13.308,2l-.022-.126-.068-.395-.024-.162-.045-.269a5.332,5.332,0,0,1-.093-.575,1.066,1.066,0,0,1,.127-.257l.063-.1.075-.069c.017-.172.189.229.189.229a.783.783,0,0,0,.158.235.339.339,0,0,0,.087.063l.107.072c.1.1-.018.289-.073.378-.169.275-.173.282-.111.709.076.519.195,1.371.2,1.582,0,.039-.028.194-.06.364a.748.748,0,0,1-.039.163.428.428,0,0,0-.046.237c.012.042.3.113.4.139l.491.11c.158.039.34.066.508.09.128.019.362.026.58.034.153.006.344.012.415.089.151.164-.089.475-.194.545a4.451,4.451,0,0,1-.651-.014,3.1,3.1,0,0,0-.866.039c-.176.038-.735.2-1.127.31a14.49,14.49,0,0,1-1.558.362,2.782,2.782,0,0,1-.8-.009c-.1-.013-.258-.033-.288,0-.128.15-.561.841-.758,1.161a2,2,0,0,1-.665.505,1.768,1.768,0,0,1-.776.009c-.264-.077-1.354-.4-1.265-.63m6.041-.16c-.061-.142.21-.557.325-.544.149.016.4.319.484.435.122.177-.133.536-.3.552s-.437-.333-.513-.443M16.85.527c.037,0,.074.256.085.329.024.172.055.346.09.521.056.275.116.574.157.844.047.322.1.632.159.952a9.624,9.624,0,0,1,.146,1.078A2.825,2.825,0,0,1,17.3,5.618c-.09.115-.116-.653-.119-.743a5.129,5.129,0,0,0-.1-.736l-.113-.647-.021-.108-.025-.2L16.9,3.061l-.021-.09-.022-.125-.022-.126-.024-.2c0-.023-.034-.175-.046-.233-.038-.187-.1-.492-.111-.592-.019-.156-.085-1.217.193-1.17M6.415,4.493c-.142-.386.714-1.335,1.11-1.312a.713.713,0,0,1,.395.272c.124.146-.1.627-.238.589a.761.761,0,0,1-.191-.179.506.506,0,0,0-.2-.15.365.365,0,0,0-.439.367c.025.1.525.307.663.347a1.467,1.467,0,0,0,.649,0c.09-.017.571-.109.591-.044a.468.468,0,0,1-.154.477,3.909,3.909,0,0,1-.472.092c-.117.019-.117.019-.324.047a1.68,1.68,0,0,0-.188.034.414.414,0,0,1-.1.03L7.357,5.1,7.2,5.17l-.142.068a1.756,1.756,0,0,0-.284.145.425.425,0,0,1-.273.106c-.084-.015.064-.311.067-.315a1.8,1.8,0,0,1,.224-.228c.035-.108-.062-.173-.141-.226a.9.9,0,0,1-.233-.227m5.516-2.547c.029-.09-.043-.17-.09-.221a.576.576,0,0,1-.138-.2c-.105-.365.4-.963.673-.637.114.137.069.382.03.594a.339.339,0,0,0,.017.253.665.665,0,0,1,.092.285c-.007.064-.023.183-.093.193-.054.009-.1-.038-.185-.12-.082-.008-.128.043-.191.11a1.4,1.4,0,0,1-.17.165,2.969,2.969,0,0,1-1,.482c-.127-.015.443-.436.486-.464a3.164,3.164,0,0,0,.569-.442m-2.695.317c-.043-.109.182-.425.251-.484.153-.132.537.355.587.437.1.158-.158.53-.326.508-.119-.016-.506-.341-.512-.461m2.767-1c-.019.1.1.262.218.2.047-.024,0-.2,0-.2-.021-.061-.193-.06-.219,0m2.434,10.595c-.019-.1-.054-.274-.075-.377-.03-.147-.066-.324-.088-.448a6.825,6.825,0,0,1-.118-.791,1.979,1.979,0,0,0,.2-.531,1.236,1.236,0,0,0-.276-.237.4.4,0,0,1-.125-.128l-.039-.071-.039-.1c-.276-.141-.34.625-.279.8,0,0,.192.875.248,1.147.037.183.1.495.154.754l.109.535v.056l.021.09,0,.2a3.706,3.706,0,0,1-.634.116,5.516,5.516,0,0,0-.557.092c-.18.056-.249.306-.314.543-.017.058.26.037.281.035l.324-.011a4.249,4.249,0,0,1,.6.07c.1.021.624.133.528.24a3.974,3.974,0,0,1-1.59.393,1.923,1.923,0,0,1-.781-.127,1.666,1.666,0,0,1-.392-.271,1.1,1.1,0,0,1-.165-.188c-.034-.05-.115-.171-.174-.135-.092.057-.106.564-.07.659a.9.9,0,0,0,.195.324c.077.085.195.214.186.258a2.53,2.53,0,0,1-.951,1.189,1.427,1.427,0,0,1-.7.251,2.591,2.591,0,0,1-.8-.045c-.09-.022-.322-.077-.331.039s.429.2.557.224l.6.124a1.6,1.6,0,0,0,.829-.047,3.43,3.43,0,0,0,1.111-1.644c0-.007.5,0,.565,0a4.031,4.031,0,0,0,.9-.1,2.254,2.254,0,0,0,.439-.133c.01,0,.021-.015.078-.074l.074.033a4.023,4.023,0,0,0,.624-.229s.467-.18.677-.259a3.5,3.5,0,0,1,.864-.084c.11,0,.628-.01.65-.022a.589.589,0,0,0,.177-.518c-.006-.054-.217-.06-.234-.06l-.777-.026c-.2-.015-.382-.041-.581-.07a2.742,2.742,0,0,1-.8-.219,3.264,3.264,0,0,1-.038-.683Z" transform="translate(-0.101 2)" fill="#00263e" fill-rule="evenodd"/>
    </g>
  </g>
</svg>
