<svg xmlns="http://www.w3.org/2000/svg" xmlns:xlink="http://www.w3.org/1999/xlink" width="18" height="20" viewBox="0 0 18 20">
  <defs>
    <clipPath id="clip-path">
      <rect id="Rectangle_13830" data-name="Rectangle 13830" width="18" height="20" transform="translate(0 0)" fill="#00263e"/>
    </clipPath>
  </defs>
  <g id="h-party" transform="translate(0 0)">
    <g id="Group_35806" data-name="Group 35806" clip-path="url(#clip-path)">
      <path id="Path_135738" data-name="Path 135738" d="M5.072,9.914a.142.142,0,0,1,.094-.175,1.647,1.647,0,0,1,.417.057,2.945,2.945,0,0,0,.852.079,2.8,2.8,0,0,0,.95-.187,10.069,10.069,0,0,0,.886-.675c.158-.127.879-1.1.726-1.259a3.747,3.747,0,0,1-.488-.543A1.787,1.787,0,0,1,8.584,6.1c.076-.074.151.068.17.108a.845.845,0,0,0,.158.233c.094.105.258.286.291.317a1.977,1.977,0,0,0,1.019.383l.127.014a3.7,3.7,0,0,0,.551,0,3.716,3.716,0,0,0,.621-.057c.207-.045.41-.1.609-.148a3.132,3.132,0,0,0,.862-.322c.079-.085-.257-.169-.32-.185l-.4-.112a3.264,3.264,0,0,0-.545-.089,6.262,6.262,0,0,0-.921,0c-.053,0-.357.022-.332-.022l-.006-.1.015-.073.041-.127a1.6,1.6,0,0,1,.171-.364c.1-.144.392-.184.621-.215.162-.022.4-.044.531-.055a3.132,3.132,0,0,0,.742-.111,12.69,12.69,0,0,0-.221-1.523c-.011-.062-.036-.246-.048-.333l-.043-.206c-.014-.063-.043-.2-.043-.2l0-.072c-.036-.125-.036-.125-.04-.143l-.02-.071-.021-.09-.024-.144L12.1,2.245a8.036,8.036,0,0,0-.293-1.163A1.242,1.242,0,0,1,12.15.022c.1-.09.152.121.169.193A.527.527,0,0,0,12.5.494a1.963,1.963,0,0,0,.209.14.5.5,0,0,1,.234.227.556.556,0,0,1-.092.472,1.364,1.364,0,0,1-.108.173,1.1,1.1,0,0,0-.1.142A14.809,14.809,0,0,0,12.933,3.3c.043.214.105.561.156.844a5.34,5.34,0,0,1,.028.829c0,.043-.01.643.086.648l.073.024.165.048.091.024.127.041c.194.048.382.091.583.124.259.043.544.089.8.116s.556.036.85.043a2.055,2.055,0,0,1,.64.071c.111.178-.209.73-.357.786-.008,0-.373,0-.425,0L15.6,6.9l-.325-.006a3.571,3.571,0,0,0-1.01.071l-.107.022-.107.021c-.03.009-.1.037-.161.06l-.107.04c-.092.032-.182.064-.267.1-.181.076-.364.148-.552.219a11.981,11.981,0,0,1-1.465.466,5.082,5.082,0,0,1-1.188.132,3.791,3.791,0,0,1-.453-.038,1.126,1.126,0,0,0-.394-.01c-.008,0-.127.282-.154.345-.049.116-.111.24-.168.349,0,0-.1.236-.142.33a2.28,2.28,0,0,1-.2.347,3.034,3.034,0,0,1-.814.9,2.481,2.481,0,0,1-.789.162,6.991,6.991,0,0,1-2.122-.494m9.561-1.652a.409.409,0,0,1-.081.378,14.053,14.053,0,0,1-2.427.756c-.109-.048.015-.329.041-.38a3.835,3.835,0,0,1,1.14-.446c.2-.058.429-.124.59-.183.074-.028.729-.272.737-.125m1.811-6.313c-.015-.226.063-1.181.239-1.251.121-.048.141.128.161.3s.043.349.072.521c.015.09.044.231.067.341.03.156.075.375.088.467.039.274.088.553.137.825s.113.636.136.808.055.4.073.5l.022.125c.035.186.035.186.045.251a11.2,11.2,0,0,1,.13,1.152A5.477,5.477,0,0,1,17.427,7.6c-.181.293-.219-.132-.238-.352a8.656,8.656,0,0,0-.05-.9l-.046-.288-.022-.125-.027-.252c-.077-.568-.181-1.236-.3-1.814a13.868,13.868,0,0,1-.3-1.922m-14.9,6.02A3.5,3.5,0,0,1,.576,7.5,1.286,1.286,0,0,1,0,6.371c0-.328.415-1.383.589-1.328.088.028.03.294.009.368l-.057.164a.671.671,0,0,0-.04.146.736.736,0,0,0,.213.791A2.668,2.668,0,0,0,1.75,7.1a4.873,4.873,0,0,0,1.429.067,7.9,7.9,0,0,0,3.126-.9c.137-.092-.113-.5-.18-.6-.038-.062-.1-.148-.152-.22A.915.915,0,0,1,5.789,5.1a1.693,1.693,0,0,1,.127-.772c.031-.049.231-.106.24-.024,0,0,.152.223.187.267a2.121,2.121,0,0,1,.215.3,2.067,2.067,0,0,1,.215,1.509c-.034.161-.132.529-.3.608l-.062.037c-.064.04-.126.078-.194.115-.1.055-.282.151-.319.166a.833.833,0,0,0-.116.048c-.064.036-.151.083-.186.1-.058.025-.134.05-.2.07s-.125.041-.179.061a6.135,6.135,0,0,1-.715.205l-.18.043c-.077.022-.179.046-.268.063L3.8,7.944c-.13.018-.458.068-.467.071a4.5,4.5,0,0,1-1.789-.046M7.768,4.094c-.093-.224.216-.709.351-.807s.823.477.823.55c0,.217-.2.758-.435.728a2.961,2.961,0,0,1-.739-.471M3.648,2.478s-.174-.139-.257-.2A.974.974,0,0,1,3.134,2c-.287-.477.53-1.59.841-1.116a1.882,1.882,0,0,1,.159.269c.011.04.042.216.045.251l.013.379a3.4,3.4,0,0,0,0,.342l.117.156a.548.548,0,0,1,.09.1.485.485,0,0,1,0,.529c-.06.094-.208-.046-.238-.075a.133.133,0,0,0-.216.018c-.071.1-.212.283-.224.3a3.031,3.031,0,0,1-.529.528,1.988,1.988,0,0,1-.186.106l-.159.105-.062.038L2.672,4,2.6,4.04l-.124.077c-.106.07-.254.169-.32.224-.033.028-.446.25-.466.092-.017-.139.838-.779,1.01-.9.207-.149,1.042-.8.948-1.053m3.466-.564c-.011-.133.416-.293.53-.335a2.412,2.412,0,0,0,.62-.347c.057-.1-.289-.167-.386-.185a.68.68,0,0,0-.485.062.867.867,0,0,1-.291.125c-.1,0,.052-.4.064-.415A.881.881,0,0,1,7.623.46,2.621,2.621,0,0,1,8.987.747c.078.156-.046.36-.11.455a1.472,1.472,0,0,1-.525.487c-.162.084-1.1.436-1.238.225m-3.359-.5a.244.244,0,0,0-.268.09c-.076.139.111.254.229.326.175.109.238.007.183-.187a.342.342,0,0,0-.144-.229" transform="translate(0 5)" fill="#00263e" fill-rule="evenodd"/>
      <path id="Path_135739" data-name="Path 135739" d="M3.138,8.685a.062.062,0,0,0-.031.007.933.933,0,0,0-.361.8,1.488,1.488,0,0,0,.7.451A.1.1,0,0,0,3.5,9.921c.174-.148.474-.627.213-.867-.064-.061-.438-.369-.579-.369" transform="translate(0 5.315)" fill="#00263e"/>
    </g>
  </g>
</svg>
