<svg xmlns="http://www.w3.org/2000/svg" xmlns:xlink="http://www.w3.org/1999/xlink" width="18" height="20" viewBox="0 0 18 20">
  <defs>
    <clipPath id="clip-path">
      <rect id="Rectangle_13827" data-name="Rectangle 13827" width="18" height="20" transform="translate(-1 0)" fill="#00263e"/>
    </clipPath>
  </defs>
  <g id="h-quarter" transform="translate(1 0)">
    <g id="Group_35800" data-name="Group 35800" clip-path="url(#clip-path)">
      <g id="Group_35812" data-name="Group 35812">
        <path id="Path_135710" data-name="Path 135710" d="M5.233,5.715A1.235,1.235,0,0,1,4.595,4c.107-.276.282-.717.333-.816l.1-.166a.711.711,0,0,0,.093-.192.153.153,0,0,0-.086-.16,1.292,1.292,0,0,1-.212-.1c-.055-.694,1.15-.865,1.328-.227a.377.377,0,0,1-.037.2.5.5,0,0,0-.063.273c.012.081.57.185.748.218.278.051,1.718-.036,1.841-.289.039-.081-.15-.428-.208-.535-.081-.148-.094-.444.062-.544.188-.122.406.6.443.8a.777.777,0,0,1-.4.853,5.435,5.435,0,0,1-.536.146,2.631,2.631,0,0,1-.359.066c-.091.007-.156.012-.162.033-.026.105-1.158-.059-1.249-.074a1.291,1.291,0,0,1-.421-.175,1.288,1.288,0,0,0-.422-.193c-.282.032-.523.764-.586,1.059a.925.925,0,0,0,.505.994,1.367,1.367,0,0,0,.484.173,1.66,1.66,0,0,0,.236.028l.289.008.181.012c.217.015.217.015.47.019a2.6,2.6,0,0,1,.6.054c.167.516-2.258.267-2.345.251m2.9-1.354a1.27,1.27,0,0,1,.449.091,1.6,1.6,0,0,0,.6.068c.546-.035,1.43-.723,1.374-1.249a1.275,1.275,0,0,0-.221-.38c-.062-.08-.209-.27-.183-.346l.014-.109.015-.072.053-.118c.147-.225.532.627.545.692a1.362,1.362,0,0,1-.156.963c-.035.077-.112.212-.17.313a.62.62,0,0,1-.074.116l-.1.14c-.067.16-.372.292-.543.365a1.528,1.528,0,0,1-.814-.007c-.14-.028-.878-.308-.787-.467m-1.273.081a.482.482,0,0,1,.123-.374c.124-.187.495.134.539.266a.391.391,0,0,1-.133.33c-.146.127-.447-.143-.529-.222M7.7.951c.033-.092-.065-.2-.12-.264A.391.391,0,0,1,7.48.48C7.45.349,7.666.156,7.755.1c.321-.2.508-.106.5.344L8.231.535,8.173.664c-.008.1.026.151.117.267.016.14-.08.227-.275.162a.147.147,0,0,0-.126,0c-.028.008-.332.253-.436.344,0,0-.566.49-.5.267A.741.741,0,0,1,7.3,1.284,2.564,2.564,0,0,0,7.7.951M7.943.31c-.123-.038-.184.1-.107.2a.136.136,0,0,0,.149.04C8.022.537,8.029.3,7.943.31" fill="#00263e" fill-rule="evenodd"/>
        <path id="Path_135711" data-name="Path 135711" d="M5.992,14.529l.125-.04a2.46,2.46,0,0,0,.32-.147,2.125,2.125,0,0,0,.406-.285l.268-.256a1.608,1.608,0,0,1,.164-.2l.087-.112c.081-.094.214-.314.109-.484L7.4,12.927a.589.589,0,0,1-.111-.294c-.035-.245.086-.846.323-.767l.062.121a.886.886,0,0,0,.114.176,1.241,1.241,0,0,0,.125.128l.1.069a1.278,1.278,0,0,0,.67.215,4.754,4.754,0,0,0,2.233-.352c.229-.085-.824-.31-.83-.311-.054-.012-.317-.088-.456-.129a1.98,1.98,0,0,0-.444-.057c-.046,0-.555-.02-.527-.1l.083-.184.025-.074.033-.072a.816.816,0,0,1,.314-.319,2.822,2.822,0,0,1,.846-.111,4.828,4.828,0,0,0,1.021-.138A11.445,11.445,0,0,0,10.8,8.735c-.054-.3-.124-.692-.141-.934a2.566,2.566,0,0,0-.051-.432c-.032-.1-.091-.28-.022-.378l.033-.073a.859.859,0,0,1,.072-.126c.035-.051.09-.134.134-.2.1-.151.223-.214.3.017a1.115,1.115,0,0,0,.228.4.647.647,0,0,0,.118.116c.062.047.154.115.165.151a.548.548,0,0,1-.137.457,1,1,0,0,1-.118.152.653.653,0,0,0-.117.126,3.277,3.277,0,0,0,.053.486c.029.187.052.365.074.557a12.816,12.816,0,0,1,.108,1.551,2.173,2.173,0,0,1-.1.345,1.345,1.345,0,0,0-.1.38,7.388,7.388,0,0,0,1.254.33c.229.043.575.106.754.118a4.534,4.534,0,0,1,1.021.139c.149.111-.177.611-.249.68,0,0-1.592-.077-1.737-.087a11.573,11.573,0,0,0-1.853.576,5.1,5.1,0,0,1-.84.247,3.812,3.812,0,0,1-1.208.042c-.047-.009-.6-.113-.584,0A4.589,4.589,0,0,1,7.2,14.446s-.153.191-.214.271a.913.913,0,0,1-.26.211,3.87,3.87,0,0,1-.622.284,1.927,1.927,0,0,1-.889-.1C4.9,15,3.776,14.6,3.822,14.328c.018-.106.39.064.441.09a2.4,2.4,0,0,0,.358.141,2.545,2.545,0,0,0,1.371-.03m6.636-.837c.077.023.106.268.047.324a6.413,6.413,0,0,1-2.478.823c-.071-.007.044-.279.058-.3a.416.416,0,0,1,.283-.182l.357-.1.393-.113c.09-.03.09-.03.143-.05l.179-.06.143-.041.215-.062c.086-.028.23-.08.338-.12a2.965,2.965,0,0,1,.322-.111M.567,12.665a1.391,1.391,0,0,0-.19-.152.836.836,0,0,1-.207-.228,1.14,1.14,0,0,1-.147-.861c.041-.277.39-1.2.661-1.15.082.015-.062.268-.068.28a1.056,1.056,0,0,0-.093.184,1.658,1.658,0,0,0-.107.545.909.909,0,0,0,.311.5,3.559,3.559,0,0,0,.959.442,4.74,4.74,0,0,0,2.308-.1l.179-.052L4.423,12c.093-.029.194-.066.286-.1a3.626,3.626,0,0,0,.681-.316c.092-.1-.1-.364-.148-.434s-.1-.136-.157-.2a1.265,1.265,0,0,1-.146-.2c-.094-.162.1-.8.262-.777s.484.527.565.676a1.87,1.87,0,0,1,.128.827,1.589,1.589,0,0,1-.341.719,6.643,6.643,0,0,1-2.018.744,4.516,4.516,0,0,1-2.968-.27M6.544,9.9c-.1-.177.208-.592.316-.685.152-.13.685.441.735.522.093.153-.2.556-.3.607-.192.1-.678-.336-.747-.444m.735-2.65c.033-.117-.243-.169-.355-.189a1.148,1.148,0,0,0-.4-.023L6.383,7.1a.14.14,0,0,1-.15.018c-.1-.026.174-.4.2-.417a1.549,1.549,0,0,1,1.454.116c.213.158-.227.574-.344.658-.043.032-.274.15-.4.213-.036.018-.5.218-.5.09s.142-.215.278-.3.3-.184.359-.235" fill="#00263e" fill-rule="evenodd"/>
        <path id="Path_135712" data-name="Path 135712" d="M2.967,7.432c-.19,0-.471.781-.521.98a1.461,1.461,0,0,0,.016.743c.06.126.181.336.374.336a.313.313,0,0,0,.108-.021c.241-.09.381-.409.455-.657.029-.1.008-.286-.052-.286-.02,0-.044.022-.072.076A3.194,3.194,0,0,1,3.1,8.91a.235.235,0,0,1-.125.033.16.16,0,0,1-.127-.049A.616.616,0,0,1,2.7,8.459a1.7,1.7,0,0,1,.136-.548s.187-.475.14-.478H2.967" fill="#00263e"/>
        <path id="Path_135713" data-name="Path 135713" d="M15.075,7.493h-.009c-.1.023-.2.432-.225.56l-.027.28.008.171.019.07c0,.509.09,1.279.156,1.854.073.677.132,1.357.144,2.112l-.008.2-.011.233.011.308c0,.04.02.1.059.1H15.2c.285-.074.391-1.385.382-1.793a21.43,21.43,0,0,0-.241-2.737L15.315,8.7l-.008-.233-.031-.4-.042-.2c-.027-.112-.086-.382-.159-.382" fill="#00263e"/>
        <path id="Path_135714" data-name="Path 135714" d="M2.685,13.579a.62.62,0,0,0-.464.669c.1.1.418.395.634.395a.21.21,0,0,0,.051-.006c.143-.035.443-.517.357-.634a2.039,2.039,0,0,0-.572-.424Z" fill="#00263e"/>
      </g>
    </g>
  </g>
</svg>
