<svg xmlns="http://www.w3.org/2000/svg" xmlns:xlink="http://www.w3.org/1999/xlink" width="18" height="20" viewBox="0 0 18 20">
  <defs>
    <clipPath id="clip-path">
      <rect id="Rectangle_13829" data-name="Rectangle 13829" width="18" height="20" transform="translate(-1 0)" fill="#00263e"/>
    </clipPath>
  </defs>
  <g id="h-threequarter" transform="translate(1 0)">
    <g id="Group_35804" data-name="Group 35804" clip-path="url(#clip-path)">
      <g id="Group_35810" data-name="Group 35810">
        <path id="Path_135725" data-name="Path 135725" d="M3.881,14.044a1.8,1.8,0,0,1,.633.155,2.582,2.582,0,0,0,.8.143,2.151,2.151,0,0,0,.914-.2,5.064,5.064,0,0,0,.79-.537,2.455,2.455,0,0,0,.529-.737c.036-.088-.113-.3-.166-.356l-.029-.053L7.3,12.277c-.092.078.055-.489.055-.489.043-.125.112-.323.258-.277l.079.129a.9.9,0,0,0,.12.162.746.746,0,0,0,.236.2,2.371,2.371,0,0,0,.675.2,4.705,4.705,0,0,0,2.177-.422c.077-.082-.692-.246-.755-.259l-.073-.016-.347-.1a1.76,1.76,0,0,0-.236-.046l-.127-.014-.433.015s-.333.007-.271-.017l.012-.163.033-.073.034-.074.034-.073a1.815,1.815,0,0,1,.14-.237c.122-.185.507-.23.8-.257l.143-.005c.062-.005.54-.048.613-.058a1.49,1.49,0,0,0,.507-.128,15.465,15.465,0,0,0-.335-2.433c-.118-.623-.291-1.543.2-1.768.1-.049.174.124.2.2a.9.9,0,0,0,.157.261,1.074,1.074,0,0,0,.2.163.416.416,0,0,1,.145.172c.065.121-.1.366-.156.448a.876.876,0,0,1-.116.146l-.092.105c-.008.031.074.56.109.791l.047.306c.024.2.05.4.074.557a3.453,3.453,0,0,1,0,1.192,2.411,2.411,0,0,0-.124.47,6.122,6.122,0,0,0,1.2.3,7.294,7.294,0,0,0,.853.115,3.464,3.464,0,0,1,.994.14c.1.14-.134.593-.235.655a2.477,2.477,0,0,1-.6.012c-.368-.017-.9-.043-1.067-.035a8.287,8.287,0,0,0-1,.252,4.07,4.07,0,0,0-.428.159c-.115.048-.436.175-.445.179l-.072.029-.267.1a4.931,4.931,0,0,1-.5.134,3.412,3.412,0,0,1-1.153.1,2.024,2.024,0,0,0-.629-.038,1.1,1.1,0,0,0-.105.217,2.635,2.635,0,0,1-.135.258l-.17.3-.034.073-.069.111a2.22,2.22,0,0,1-.714.729,2.014,2.014,0,0,1-1.733.033l-.073-.024L4.82,14.64l-.056-.026-.073-.024L4.6,14.557l-.065-.034c-.05-.024-.1-.047-.155-.067-.116-.043-.6-.251-.5-.412m6.507-.015c.133-.075,2.257-.8,2.257-.8.256.054-.018.449-.109.509a9.788,9.788,0,0,1-2.232.719c-.19.032.028-.375.084-.428M6.521,9.586c-.145-.135.18-.669.283-.714.2-.089.687.36.767.524s-.261.637-.421.62a1.648,1.648,0,0,1-.629-.43M6.183,6.8c-.2-.137.284-.539.437-.573a2.333,2.333,0,0,1,1.18.243c.105.061-.068.364-.1.412a1.164,1.164,0,0,1-.426.343l-.134.068c-.124.058-.124.058-.142.068,0,0-.651.263-.437.057l0-.06.083-.079.163-.11L7,7.049a1.218,1.218,0,0,0,.163-.117c.185-.158-.245-.214-.347-.228a.757.757,0,0,0-.486.053.284.284,0,0,1-.149.039M4.724,12.3l-.076.039a4.7,4.7,0,0,0-.768.234,4.548,4.548,0,0,1-1,.216,4.029,4.029,0,0,1-2.25-.31A1.4,1.4,0,0,1,.14,12,1.048,1.048,0,0,1,0,11.376c0-.323.4-1.379.664-1.3.091.027-.043.245-.059.27a.813.813,0,0,0-.1.22,1.341,1.341,0,0,0-.081.526.86.86,0,0,0,.342.494,2.477,2.477,0,0,0,.89.394,2.389,2.389,0,0,0,.425.073c.071.008.4.006.5,0,.047,0,.414-.017.388-.023a2.923,2.923,0,0,1,.3-.037l.233-.045.089-.021.108-.022a4.235,4.235,0,0,0,.627-.175A4.569,4.569,0,0,0,5.4,11.242c.071-.136-.312-.577-.4-.679s-.105-.778.052-.859c.349-.179,1.083,1.067.825,1.521l-.039.146c-.018.056-.058.157-.091.238a1.328,1.328,0,0,1-.189.277,2.122,2.122,0,0,1-.443.251,1.473,1.473,0,0,1-.387.158" fill="#00263e" fill-rule="evenodd"/>
        <path id="Path_135726" data-name="Path 135726" d="M6.058,0a.3.3,0,0,0-.086.013c-.109.035-.28.152-.3.257a.351.351,0,0,0,0,.272.427.427,0,0,1,.043.179L5.626.8,5.568.837l-.031.214h.009a4.689,4.689,0,0,0,.69-.144c.09-.035.206-.082.268-.1A.614.614,0,0,0,6.656.748L6.7.612c.05-.023-.389-.051-.389-.051L6.209.519C6.2.5,6.275.429,6.322.387a.2.2,0,0,0,0-.257A.36.36,0,0,0,6.058,0" fill="#00263e"/>
        <path id="Path_135727" data-name="Path 135727" d="M10.272.746C9.919.746,9.123.964,9.1,1.1c-.016.074.056.1.15.1a1.552,1.552,0,0,0,.285-.038l.194-.043a1.167,1.167,0,0,1,.183-.043c.128-.023.688-.116.517-.291a.235.235,0,0,0-.155-.034" fill="#00263e"/>
        <path id="Path_135728" data-name="Path 135728" d="M1.084,5.7a1.155,1.155,0,0,1-.439-.454,1.315,1.315,0,0,1-.1-.611,3.05,3.05,0,0,1,.191-.8,3.351,3.351,0,0,1,.155-.4c.066-.12.152-.288.132-.346a.857.857,0,0,0-.2-.16C.77,2.887.637,2.755.637,2.685a1.141,1.141,0,0,1,.335-.918c.225-.183,1.08-.284.983.179C1.943,2,1.943,2,1.741,1.988a1.443,1.443,0,0,0-.435,0,.649.649,0,0,0-.288.218c-.194.265.335.432.545.416a1.935,1.935,0,0,0,.338-.2c.1-.07.311-.222.428-.194.089.019.046.217.008.268s-.382.292-.662.494c-.1.074-.194.151-.283.229-.047.039-.1.09-.14.132l-.082.1a.277.277,0,0,1-.07.078A1.509,1.509,0,0,0,.9,4.807a1.045,1.045,0,0,0,.688.545,2.83,2.83,0,0,0,.653.085c.136.008.327,0,.392,0,.082,0,.7,0,.638.008l-.05.121s-.109.042-.159.058c-.133.05-.269.1-.393.144A2.568,2.568,0,0,1,1.084,5.7m2.5-.816c-.114-.167.159-.125.244-.1a1.248,1.248,0,0,0,.615-.024A1.527,1.527,0,0,0,5.423,4c.074-.179-.147-.49-.225-.583a.536.536,0,0,1-.132-.626c.1-.207.416.369.447.446A1.294,1.294,0,0,1,5.56,4.3a1.423,1.423,0,0,1-.661.719,2.043,2.043,0,0,1-1.318-.132m.357-.513a.409.409,0,0,1,.1-.369c.09-.063.339.089.378.143a.259.259,0,0,1-.133.385.357.357,0,0,1-.346-.159M2.324,3.691c.082.008.024.23-.054.245l-.117.051-.069.031-.075.028L1.87,4.1a2.322,2.322,0,0,1-.587.186c-.082,0-.008-.194.027-.225a2.486,2.486,0,0,1,1.014-.366m.4-3.145c.159-.062.2.626.21.758l.05.9,0,.451L3,2.712l.024.124.05.412.07.121a.25.25,0,0,0,.163.081s.723-.042.692-.124a.39.39,0,0,0-.023-.179.7.7,0,0,0-.109-.194c-.081-.109-.152-.459.02-.533.023-.012.206.156.287.233.288.269.07,1.038-.116,1.2a2.218,2.218,0,0,1-.98.047.413.413,0,0,1-.221-.23,4.841,4.841,0,0,1-.075-.556c-.035-.311-.035-.311-.073-1.061C2.7,1.876,2.7,1.876,2.674,1.6,2.639,1.2,2.593.69,2.725.546m.529,1.023C3.184,1.3,4.463.7,4.693.8c.3.121-.471.451-.5.467s-.342.159-.49.233c-.047.023-.416.19-.447.074" fill="#00263e" fill-rule="evenodd"/>
        <path id="Path_135729" data-name="Path 135729" d="M13.091.87a3.229,3.229,0,0,0-.708.205,2,2,0,0,0-.213.089.944.944,0,0,1-.144.066.6.6,0,0,0-.171.109c-.008.011-.16.2-.028.2h.005c.189,0,1.383-.418,1.333-.63,0-.029-.027-.041-.074-.041" fill="#00263e"/>
        <path id="Path_135730" data-name="Path 135730" d="M8.216,1.383a.356.356,0,0,0-.195.1.179.179,0,0,1-.144.055H7.85l-.1-.039-.074-.028-.136.036c-.245.116-.1.412.09.481A.157.157,0,0,0,7.689,2a.429.429,0,0,0,.239-.116.128.128,0,0,1,.078-.036.25.25,0,0,1,.116.051.218.218,0,0,0,.119.045.224.224,0,0,0,.048-.006c.234-.058.113-.47-.031-.548a.154.154,0,0,0-.042-.007" fill="#00263e"/>
        <path id="Path_135731" data-name="Path 135731" d="M8.87,4.419a.664.664,0,0,1-.209-.263,1.594,1.594,0,0,0-.156-.346c-.04-.008-.089.025-.125.049l-.106.067a.492.492,0,0,1-.324.029c-.132-.051-.3-.116-.332-.2-.059-.147.079-.345.151-.435l.1-.079.2-.152.168-.114c.119-.086.216-.155.236-.226a2.019,2.019,0,0,1,.11-.324c.09-.141.18.571.191.657a4,4,0,0,0,.149.8c.116.195,1.065.192,1.277.046.125-.087-.067-.393-.122-.48-.071-.113-.072-.445.074-.481.34-.084.369.939.292,1.137-.152.391-1.168.543-1.578.307M8.488,3.313c-.032-.108-.234,0-.284.032a.086.086,0,0,0,.019.158c.147.045.332-.04.265-.19M10.365,2.6a1.075,1.075,0,0,1-.322-.014c-.132-.015-.14-.01-.216.045l-.1.066c-.285.068-.395-.283-.236-.456a.191.191,0,0,1,.2-.075l.073.034.074.033.207-.008.1-.082c.274-.061.469.375.214.457M9.58,1.749A.312.312,0,0,1,9.8,1.471c.2-.071.408.3.323.467-.133.268-.527.024-.539-.189" fill="#00263e" fill-rule="evenodd"/>
        <path id="Path_135732" data-name="Path 135732" d="M12.672,3.909c.049-.211-.478-.786-.616-.9-.063-.054-.178-.15-.186-.156-.077-.049-.082-.053-.247.013l-.153.005a1.037,1.037,0,0,1-.508-.326,2.046,2.046,0,0,1,.021-.713.213.213,0,0,1,.173.039l.174.1a.624.624,0,0,0,.12.068,1.086,1.086,0,0,1,.21.141c.172.148.564.477.632.519a3.435,3.435,0,0,1,.269.349,1.843,1.843,0,0,1,.144.284c.005.012.012.031.042.125l.048.125c.11.067.216-.33.229-.406l.016-.091-.019-1.028.012-.182c.014-.093.087-.231.167-.141a.971.971,0,0,1,.1.439c.03.348.068.783.089,1.008a2.784,2.784,0,0,0,.123.683.378.378,0,0,0,.225.218c.082.037.544,0,.563-.078a.46.46,0,0,0-.035-.311,1.062,1.062,0,0,1-.151-.446c.03-.407.3-.091.373.1a1.319,1.319,0,0,1-.038.958.976.976,0,0,1-.929.192.593.593,0,0,1-.211-.242c-.044-.1-.174-.377-.224-.35l-.108.154a1.261,1.261,0,0,1-.106.153,1.979,1.979,0,0,1-.311.322,2.856,2.856,0,0,1-1.225.284c-.181-.007.706-.391.734-.4a1.439,1.439,0,0,0,.606-.5m1.1-1.682c-.035-.135.09-.256.163-.327.045-.044.045-.044.009-.149-.017-.053-.085-.253.054-.369.045-.043.09-.041.167-.036.111.007.222.179.236.29a.316.316,0,0,1-.08.18c-.049.063-.08.106-.068.147.023.084.16-.048.163-.051a.186.186,0,0,1,.2-.076.67.67,0,0,1,.233.209c.036.076-.056.209-.12.3-.047.069-.233-.023-.287-.05-.123-.061-.191,0-.262.078-.118.127-.387-.019-.408-.145" fill="#00263e" fill-rule="evenodd"/>
        <path id="Path_135733" data-name="Path 135733" d="M6.222,1.36c-.072,0-.125.105-.161.177A8.941,8.941,0,0,0,6.3,3.972c.026,0,.055-.047.086-.153A10.941,10.941,0,0,0,6.24,1.362a.055.055,0,0,0-.018,0" fill="#00263e"/>
        <path id="Path_135734" data-name="Path 135734" d="M2.892,7.186c-.2,0-.444.721-.493.93a1.673,1.673,0,0,0,.015.774.485.485,0,0,0,.4.346.256.256,0,0,0,.162-.058c.035-.028.638-.789.354-.922l-.015,0c-.066,0-.138.187-.164.252s-.09.176-.171.176H2.967c-.366-.039-.362-.5-.265-.828.016-.043.093-.241.136-.35.008-.027.121-.307.066-.315H2.892" fill="#00263e"/>
        <path id="Path_135735" data-name="Path 135735" d="M14.974,6.984c-.09,0-.162.311-.223.572a12.977,12.977,0,0,0,.137,1.909s.026.16.046.288c.012.074.012.074.051.451l.054.466.027.2a10.831,10.831,0,0,1,.094,1.189c0,.045,0,.8.087.8a.024.024,0,0,0,.014-.006c.283-.214.342-1.746.283-2.213-.015-.109-.034-.334-.058-.559-.027-.312-.027-.312-.054-.537-.027-.265-.062-.521-.1-.774s-.078-.548-.1-.793a4.573,4.573,0,0,0-.074-.556c-.07-.316-.131-.432-.186-.432" fill="#00263e"/>
        <path id="Path_135736" data-name="Path 135736" d="M2.645,13.3a.106.106,0,0,0-.071.023c-.117.1-.354.471-.268.685a1.186,1.186,0,0,0,.664.366h.016c.089-.012.42-.529.346-.615-.055-.061-.479-.458-.687-.458" fill="#00263e"/>
      </g>
    </g>
  </g>
</svg>
