<svg id="vector" xmlns="http://www.w3.org/2000/svg" width="67.61099d" height="92.05298d"
    viewBox="0 0 67.611 92.053">
    <defs>
        <clipPath id="clip_path_0">
            <path d="M0,0h67.611v92.053h-67.611z" />
        </clipPath>
    </defs>
    <g id="g_0">
        <g clip-path="url(#clip_path_0)">
            <g>
                <path fill="#c5e0dd"
                    d="M33.795,90.295c-4.019,0 -6.532,-7 -7.136,-8.887 -0.4,0.024 -0.779,0.035 -1.142,0.035 -4.762,0 -6.98,-1.994 -6.98,-6.273 0,-3.537 2.619,-4.779 4.533,-5.684a8.07,8.07 0,0 0,1.806 -1.03,1.717 1.717,0 0,0 0.708,-1.811c-0.3,-0.771 -1.555,-1.6 -3.619,-1.6a4.8,4.8 0,0 0,-3.437 1.7,5.649 5.649,0 0,1 -3.091,1.78 9.4,9.4 0,0 1,-1.3 0.093,5.8 5.8,0 0,1 -4.5,-1.857c-2.012,-2.224 -2.119,-5.783 -2.073,-7.218a6.125,6.125 0,0 1,-4.383 -1.913,7.448 7.448,0 0,1 -1.564,-5.315l0,-12.7a7.394,7.394 0,0 1,1.567 -5.249,6.116 6.116,0 0,1 4.383,-1.914c-0.048,-1.435 0.061,-4.994 2.072,-7.216a5.8,5.8 0,0 1,4.505 -1.86,9.773 9.773,0 0,1 1.3,0.094 5.663,5.663 0,0 1,3.091 1.78,4.8 4.8,0 0,0 3.437,1.7c2.063,0 3.322,-0.83 3.619,-1.6a1.717,1.717 0,0 0,-0.71 -1.811,8.016 8.016,0 0,0 -1.806,-1.031c-1.913,-0.906 -4.531,-2.146 -4.531,-5.683 0,-4.279 2.219,-6.272 6.983,-6.272q0.543,0 1.14,0.033c0.6,-1.888 3.117,-8.887 7.136,-8.887a0.533,0.533 0,0 1,0.1 0.008c3.975,0.088 6.46,7.01 7.059,8.886 0.4,-0.022 0.779,-0.032 1.141,-0.032 4.763,0 6.98,1.992 6.98,6.271 0,3.539 -2.619,4.779 -4.53,5.683A8.01,8.01 0,0 0,42.735 23.546a1.715,1.715 0,0 0,-0.708 1.81c0.3,0.771 1.555,1.6 3.619,1.6a4.8,4.8 0,0 0,3.436 -1.7,5.662 5.662,0 0,1 3.092,-1.781 9.787,9.787 0,0 1,1.3 -0.093,5.8 5.8,0 0,1 4.5,1.859c2.011,2.222 2.119,5.782 2.072,7.216a6.129,6.129 0,0 1,4.384 1.914,7.448 7.448,0 0,1 1.564,5.315l0,12.687a7.4,7.4 0,0 1,-1.568 5.252,6.127 6.127,0 0,1 -4.384,1.911c0.048,1.435 -0.06,4.993 -2.07,7.217a5.806,5.806 0,0 1,-4.505 1.857,9.4 9.4,0 0,1 -1.3,-0.093 5.66,5.66 0,0 1,-3.092 -1.78,4.8 4.8,0 0,0 -3.436,-1.7c-2.063,0 -3.324,0.828 -3.619,1.6a1.716,1.716 0,0 0,0.708 1.811,8.054 8.054,0 0,0 1.808,1.031c1.911,0.907 4.53,2.146 4.53,5.684 0,4.277 -2.217,6.271 -6.98,6.271 -0.362,0 -0.743,-0.011 -1.141,-0.035 -0.6,1.877 -3.088,8.807 -7.066,8.887a0.61,0.61 0,0 1,-0.091 0.008" />
                <path fill="#4f6479ff"
                    d="M33.795,2.285l0.022,0.007c4.16,0 6.714,8.917 6.714,8.917 0.556,-0.043 1.074,-0.062 1.561,-0.062 4.761,0 6.4,2 6.4,5.688 0,4.437 -4.482,4.783 -6.148,6.283 -2.332,2.109 -0.208,4.425 3.3,4.425 3.3,0 4,-3.129 6.606,-3.488a8.988,8.988 0,0 1,1.226 -0.087c6.867,0 5.959,9.058 5.959,9.058 6.73,0 5.985,6.6 5.985,6.6v12.753s0.744,6.6 -5.985,6.6c0,0 0.909,9.056 -5.959,9.056a8.789,8.789 0,0 1,-1.226 -0.088c-2.607,-0.357 -3.309,-3.486 -6.606,-3.486 -3.509,0 -5.633,2.315 -3.3,4.425 1.665,1.5 6.148,1.845 6.148,6.283 0,3.684 -1.639,5.688 -6.4,5.688q-0.731,0 -1.561,-0.062s-2.554,8.916 -6.714,8.916l-0.022,0.007c-4.16,0 -6.714,-8.916 -6.714,-8.916q-0.831,0.065 -1.563,0.063c-4.761,0 -6.4,-2.006 -6.4,-5.69 0,-4.437 4.481,-4.783 6.147,-6.28 2.332,-2.11 0.207,-4.426 -3.3,-4.426 -3.3,0 -4,3.129 -6.607,3.487a8.987,8.987 0,0 1,-1.226 0.087c-6.868,0 -5.959,-9.056 -5.959,-9.056 -6.728,0 -5.985,-6.6 -5.985,-6.6L2.188,39.615s-0.743,-6.6 5.985,-6.6c0,0 -0.91,-9.058 5.959,-9.058a9.191,9.191 0,0 1,1.226 0.088c2.608,0.36 3.308,3.488 6.607,3.488 3.508,0 5.633,-2.316 3.3,-4.426 -1.665,-1.5 -6.147,-1.845 -6.147,-6.282 0,-3.684 1.638,-5.689 6.4,-5.689q0.731,0 1.563,0.063s2.554,-8.917 6.714,-8.917m0,-1.166c-4.175,0 -6.719,6.371 -7.555,8.867 -0.247,-0.008 -0.487,-0.013 -0.722,-0.013 -2.641,0 -4.535,0.584 -5.791,1.786a6.648,6.648 0,0 0,-1.774 5.069c0,3.907 2.928,5.292 4.866,6.21a7.8,7.8 0,0 1,1.667 0.938c0.338,0.306 0.712,0.76 0.554,1.168 -0.229,0.594 -1.385,1.226 -3.075,1.226a4.23,4.23 0,0 1,-3.043 -1.548,6.2 6.2,0 0,0 -3.4,-1.929 10.4,10.4 0,0 0,-1.385 -0.1,6.361 6.361,0 0,0 -4.938,2.051c-1.917,2.121 -2.22,5.335 -2.228,7.075a6.478,6.478 0,0 0,-4.229 2.057,8.024 8.024,0 0,0 -1.716,5.693v12.66a8.024,8.024 0,0 0,1.716 5.693,6.472 6.472,0 0,0 4.229,2.057c0.008,1.739 0.311,4.956 2.229,7.075a6.363,6.363 0,0 0,4.936 2.05,10.014 10.014,0 0,0 1.385,-0.1 6.187,6.187 0,0 0,3.4 -1.928,4.23 4.23,0 0,1 3.043,-1.548c1.69,0 2.846,0.632 3.075,1.228 0.158,0.406 -0.216,0.86 -0.557,1.168a7.719,7.719 0,0 1,-1.664 0.934c-1.938,0.918 -4.866,2.3 -4.866,6.211 0,4.613 2.474,6.855 7.565,6.855 0.234,0 0.474,0 0.722,-0.012 0.836,2.5 3.38,8.866 7.555,8.866a1.029,1.029 0,0 0,0.149 -0.011c4.1,-0.129 6.6,-6.393 7.427,-8.863 0.247,0.01 0.489,0.013 0.72,0.013 5.092,0 7.566,-2.241 7.566,-6.854 0,-3.908 -2.928,-5.294 -4.865,-6.212a7.816,7.816 0,0 1,-1.668 -0.937c-0.339,-0.307 -0.711,-0.76 -0.554,-1.167 0.229,-0.595 1.385,-1.226 3.075,-1.226a4.226,4.226 0,0 1,3.043 1.547,6.19 6.19,0 0,0 3.4,1.928 10.187,10.187 0,0 0,1.385 0.1,6.357 6.357,0 0,0 4.936,-2.049c1.919,-2.121 2.22,-5.335 2.229,-7.075a6.477,6.477 0,0 0,4.228 -2.056,8.025 8.025,0 0,0 1.717,-5.695L66.5819,39.677a8.019,8.019 0,0 0,-1.717 -5.693,6.474 6.474,0 0,0 -4.229,-2.058c-0.008,-1.738 -0.311,-4.954 -2.229,-7.075a6.357,6.357 0,0 0,-4.935 -2.05,10.194 10.194,0 0,0 -1.385,0.1 6.2,6.2 0,0 0,-3.4 1.928,4.228 4.228,0 0,1 -3.043,1.548c-1.69,0 -2.846,-0.632 -3.075,-1.227 -0.156,-0.406 0.215,-0.86 0.557,-1.167a7.779,7.779 0,0 1,1.665 -0.937c1.937,-0.919 4.865,-2.3 4.865,-6.211 0,-4.613 -2.474,-6.854 -7.566,-6.854 -0.232,0 -0.473,0 -0.72,0.013 -0.829,-2.474 -3.332,-8.75 -7.44,-8.866a1.073,1.073 0,0 0,-0.136 -0.01" />
                <path fill="#0d6a60ff"
                    d="M31.712,23.91c-7.948,-3.739 -4.653,-10.541 -4.653,-10.541 3.2,0.37 4.653,4.658 4.653,4.658a7.2,7.2 0,0 1,2.1 -8.334,7.207 7.207,0 0,1 2.093,8.334s1.45,-4.288 4.647,-4.658c0,0 3.3,6.8 -4.647,10.541Z" />
                <path fill="#4f6479ff"
                    d="M30.071,25.598h7.469a1.046,1.046 0,0 0,0 -2.092h-7.469a1.046,1.046 0,0 0,0 2.092" />
                <path fill="#0d6a60ff"
                    d="M31.712,68.384c-7.948,3.741 -4.653,10.539 -4.653,10.539 3.2,-0.367 4.653,-4.657 4.653,-4.657a7.205,7.205 0,0 0,2.1 8.335,7.209 7.209,0 0,0 2.093,-8.335s1.45,4.29 4.647,4.657c0,0 3.3,-6.8 -4.647,-10.539Z" />
                <path fill="#4f6479ff"
                    d="M30.071,67.037h7.469a1.047,1.047 0,0 1,0 2.093h-7.469a1.047,1.047 0,0 1,0 -2.093" />
            </g>
        </g>
    </g>
</svg>