<svg id="ic_page_left" xmlns="http://www.w3.org/2000/svg" width="18" height="15" viewBox="0 0 18 15">
  <g id="Group_35562" data-name="Group 35562">
    <g id="Group_35561" data-name="Group 35561">
      <path id="Path_71062" data-name="Path 71062" d="M9,37.66v.008a8.941,8.941,0,0,1,1.3-.953,9.086,9.086,0,0,1,4.691-1.319h.527V37.66H18V50.395H0V37.66Zm7.945,11.715V38.68H15.52v9.238h-.527a7.918,7.918,0,0,0-4.571,1.457Zm-7.418-.624a9.477,9.477,0,0,1,1.031-.676,8.926,8.926,0,0,1,3.907-1.162V36.432a7.893,7.893,0,0,0-3.572,1.127,7.647,7.647,0,0,0-1.366,1.032v10.16Zm-8.473.624H8.473V38.68H1.055Z" transform="translate(0 -35.395)" fill="#0d6a60"/>
    </g>
  </g>
  <g id="Group_35564" data-name="Group 35564" transform="translate(2.356 5.13)">
    <g id="Group_35563" data-name="Group 35563">
      <rect id="Rectangle_13483" data-name="Rectangle 13483" width="4.765" height="1.02" fill="#0d6a60"/>
    </g>
  </g>
  <g id="Group_35566" data-name="Group 35566" transform="translate(2.356 7.099)">
    <g id="Group_35565" data-name="Group 35565">
      <rect id="Rectangle_13484" data-name="Rectangle 13484" width="4.765" height="1.02" fill="#0d6a60"/>
    </g>
  </g>
  <g id="Group_35568" data-name="Group 35568" transform="translate(2.356 9.067)">
    <g id="Group_35567" data-name="Group 35567">
      <rect id="Rectangle_13485" data-name="Rectangle 13485" width="4.765" height="1.02" fill="#0d6a60"/>
    </g>
  </g>
  <g id="Group_35570" data-name="Group 35570" transform="translate(2.356 11.036)">
    <g id="Group_35569" data-name="Group 35569">
      <rect id="Rectangle_13486" data-name="Rectangle 13486" width="4.765" height="1.02" fill="#0d6a60"/>
    </g>
  </g>
</svg>
