<svg id="vector" xmlns="http://www.w3.org/2000/svg" width="1062.4766d" height="108.86899d"
    viewBox="0 0 1062.482 108.869">
    <path fill="#c2d2ff"
        d="M0.5,100.37L0.5,8.5a8,8 0,0 1,8 -8L1053.98,0.5a8,8 0,0 1,8 8v91.87a8,8 0,0 1,-8 8L8.5,108.37A8,8 0,0 1,0.5 100.37ZM289.48,99.67L773.36,99.67a7,7 0,0 0,5.11 -2.28l35.93,-37.35a8.68,8.68 0,0 0,-0.02 -11.64l-35.85,-36.95a6.99,6.99 0,0 0,-5.08 -2.26L289.51,9.19a6.99,6.99 0,0 0,-5.04 2.21l-36.32,36.86a8.67,8.67 0,0 0,-0.04 11.71L284.39,97.42A7,7 0,0 0,289.48 99.67Z"
        stroke-width="1.0" stroke="#485c6d" id="path_0" />
    <path fill="#3f4c6e"
        d="M200.79,97.76l35.6,-37.44a8,8 0,0 0,0.05 -10.97L200.79,11.18a8,8 0,0 0,-5.85 -2.54L115.27,8.64a8,8 0,0 0,-5.85 2.54L73.78,49.34a8,8 0,0 0,0.05 10.97l35.6,37.44a8,8 0,0 0,5.8 2.49L194.99,100.25A8,8 0,0 0,200.79 97.76Z"
        stroke-width="0.5" stroke="#485c6d" id="path_1" />
    <path fill="#3f4c6e"
        d="M28.32,12.21 L62.56,46.04a10.93,10.93 0,0 1,0 15.45l-34.24,35.2a10.93,10.93 0,0 1,-18.65 -7.73L9.66,19.93A10.93,10.93 0,0 1,28.32 12.21Z"
        stroke-width="0.5" stroke="#485c6d" id="path_2" />
    <path fill="#2e4154"
        d="M83.15,100.35c1.68,-0.13 8.65,-2.91 8.65,-8.36a7.88,7.88 0,0 0,-4.81 -7.27,6.66 6.66,0 0,1 2.64,5.19c0,1.69 -1.44,1.69 -1.44,3.12s1.44,1.55 2.16,0.78c0,0 -0.96,4.15 -7.21,6.1Z"
        id="path_3" />
    <path fill="#2e4154"
        d="M68.48,89.66c2.52,8.83 9.4,10.7 9.4,10.7l0.12,-0.77a16.48,16.48 0,0 1,-8.79 -10.06l-0.73,0.13"
        id="path_4" />
    <path fill="#2e4154"
        d="M72.25,95.15l-0.77,-0.99c4.68,-0.52 5.77,-7.23 5.77,-7.23S77.63,93.99 72.25,95.15Z"
        id="path_5" />
    <path fill="#2e4154"
        d="M91.56,100.35s-2.76,-5.41 -7.09,-5.11c0,0 0.24,-5.97 -2.76,-5.97s-3.18,6.16 -5.17,4.93c-1.68,-1.04 0.43,-2.89 0.61,-5.61 0.24,-3.51 -1.69,-6.07 -4.58,-5.81 0,0 -0.49,-3.67 -1.8,-4.41a4.96,4.96 0,0 1,-2.03 -2.21,4.94 4.94,0 0,1 -2.03,2.21c-1.32,0.74 -1.8,4.41 -1.8,4.41 -2.88,-0.26 -4.8,2.35 -4.56,5.86 0.19,2.72 2.28,4.53 0.59,5.56 -1.98,1.22 -2.16,-4.93 -5.17,-4.93s-2.76,5.97 -2.76,5.97c-4.32,-0.29 -7.09,5.11 -7.09,5.11l-0.48,-0.51s1.97,-5.07 6.37,-5.77c0,0 -0.48,-8.18 7.33,-6.62 0,0 -0.48,-5.58 4.93,-5.84 0,0 0.48,-3.37 2.52,-4.41a3.82,3.82 0,0 0,2.15 -2.98,3.82 3.82,0 0,0 2.15,2.98c2.04,1.04 2.52,4.41 2.52,4.41 5.41,0.26 4.93,5.84 4.93,5.84 7.81,-1.56 7.33,6.62 7.33,6.62 4.4,0.71 6.37,5.77 6.37,5.77Z"
        id="path_6" />
    <path fill="#2e4154"
        d="M54.34,100.35c-1.68,-0.13 -8.65,-2.91 -8.65,-8.36a7.88,7.88 0,0 1,4.81 -7.27,6.66 6.66,0 0,0 -2.64,5.19c0,1.69 1.44,1.69 1.44,3.12s-1.44,1.55 -2.16,0.78c0,0 0.96,4.15 7.21,6.1Z"
        id="path_7" />
    <path fill="#2e4154"
        d="M69.01,89.66c-2.52,8.83 -9.4,10.7 -9.4,10.7l-0.12,-0.77a16.48,16.48 0,0 0,8.79 -10.06l0.73,0.13"
        id="path_8" />
    <path fill="#2e4154"
        d="M65.25,95.16l0.77,-0.99c-4.68,-0.52 -5.79,-7.23 -5.79,-7.23S59.88,94 65.25,95.16Z"
        id="path_9" />
    <path fill="#2e4154"
        d="M68.51,99.3a7.3,7.3 0,0 1,-3.27 -2.7l0.62,-0.76a5.87,5.87 0,0 0,2.65 2.27,7.59 7.59,0 0,0 2.96,-2.5l0.75,0.81A10.66,10.66 0,0 1,68.51 99.3Z"
        id="path_10" />
    <path fill="#2e4154"
        d="M92.17,100.35a10.69,10.69 0,0 1,6.29 -4.8c0.2,2.1 -2,2.98 -2,2.98 2.46,-0.55 5.19,1.82 5.19,1.82h-9.48"
        id="path_11" />
    <path fill="#2e4154"
        d="M77.86,100.35c0.24,-3.51 4.57,-4.08 4.57,-4.08a2.89,2.89 0,0 1,-1.92 2.6,3.81 3.81,0 0,1 4.08,1.48Z"
        id="path_12" />
    <path fill="#0d6a60"
        d="M68.6,88.83c3.24,-0.26 3.67,-4.96 3.67,-4.96 -1.8,0 -2.4,2.08 -2.4,2.08a4.41,4.41 0,0 0,-1.38 -4.41,4.89 4.89,0 0,0 -0.81,4.41s-0.6,-2.08 -2.4,-2.08C65.27,83.87 65.36,88.57 68.6,88.83Z"
        stroke-width="0.5" stroke="#2e4154" id="path_13" />
    <path fill="#2e4154"
        d="M45.32,100.35a10.69,10.69 0,0 0,-6.29 -4.8c-0.2,2.1 2,2.98 2,2.98 -2.45,-0.55 -5.19,1.82 -5.19,1.82h9.48"
        id="path_14" />
    <path fill="#2e4154"
        d="M59.63,100.35c-0.24,-3.51 -4.56,-4.08 -4.56,-4.08a2.89,2.89 0,0 0,1.92 2.6,3.81 3.81,0 0,0 -4.08,1.48Z"
        id="path_15" />
    <path fill="#2e4154" d="M70.34,89.74c1.5,0 1.57,-1.75 0,-1.75h-3.14c-1.57,0 -1.5,1.75 0,1.75Z"
        id="path_16" />
    <path fill="#2e4154" d="M93.51,100.35v-2.33c0,-2 -1.91,-1.9 -1.91,0v2.33Z" id="path_17" />
    <path fill="#2e4154" d="M60.51,100.35v-1.99c0,-1.62 -1.63,-1.69 -1.63,0v1.99Z" id="path_18" />
    <path fill="#2e4154" d="M78.59,100.35v-1.99c0,-1.62 -1.63,-1.69 -1.63,0v1.99Z" id="path_19" />
    <path fill="#2e4154" d="M43.99,100.35v-2.33c0,-2 1.91,-1.9 1.91,0v2.33Z" id="path_20" />
    <path fill="#2e4154"
        d="M83.15,8.18c1.68,0.13 8.65,2.91 8.65,8.36a7.88,7.88 0,0 1,-4.81 7.27,6.66 6.66,0 0,0 2.64,-5.19c0,-1.69 -1.44,-1.69 -1.44,-3.12s1.44,-1.55 2.16,-0.78c0,0 -0.96,-4.15 -7.21,-6.1Z"
        id="path_21" />
    <path fill="#2e4154"
        d="M68.48,18.88c2.52,-8.82 9.4,-10.69 9.4,-10.69l0.12,0.77a16.48,16.48 0,0 0,-8.79 10.06l-0.73,-0.13"
        id="path_22" />
    <path fill="#2e4154"
        d="M72.25,13.39l-0.77,0.99c4.68,0.52 5.77,7.23 5.77,7.23S77.63,14.55 72.25,13.39Z"
        id="path_23" />
    <path fill="#2e4154"
        d="M91.56,8.18s-2.76,5.41 -7.09,5.11c0,0 0.24,5.97 -2.76,5.97s-3.18,-6.16 -5.17,-4.93c-1.68,1.04 0.43,2.89 0.61,5.61 0.24,3.51 -1.69,6.07 -4.58,5.81 0,0 -0.49,3.67 -1.8,4.41a4.96,4.96 0,0 0,-2.03 2.21,4.95 4.95,0 0,0 -2.03,-2.21c-1.32,-0.74 -1.8,-4.41 -1.8,-4.41 -2.88,0.26 -4.8,-2.35 -4.56,-5.86 0.19,-2.72 2.28,-4.53 0.59,-5.56 -1.98,-1.22 -2.16,4.93 -5.17,4.93s-2.76,-5.97 -2.76,-5.97c-4.32,0.29 -7.09,-5.11 -7.09,-5.11l-0.48,0.51s1.97,5.07 6.37,5.77c0,0 -0.48,8.18 7.33,6.62 0,0 -0.48,5.58 4.93,5.84 0,0 0.48,3.37 2.52,4.41a3.82,3.82 0,0 1,2.15 2.98,3.82 3.82,0 0,1 2.15,-2.98c2.04,-1.04 2.52,-4.41 2.52,-4.41 5.41,-0.26 4.93,-5.84 4.93,-5.84 7.81,1.56 7.33,-6.62 7.33,-6.62 4.4,-0.71 6.37,-5.77 6.37,-5.77Z"
        id="path_24" />
    <path fill="#2e4154"
        d="M54.34,8.18c-1.68,0.13 -8.65,2.91 -8.65,8.36a7.88,7.88 0,0 0,4.81 7.27,6.66 6.66,0 0,1 -2.64,-5.19c0,-1.69 1.44,-1.69 1.44,-3.12s-1.44,-1.55 -2.16,-0.78c0,0 0.96,-4.15 7.21,-6.1Z"
        id="path_25" />
    <path fill="#2e4154"
        d="M69.01,18.88c-2.52,-8.82 -9.4,-10.69 -9.4,-10.69l-0.12,0.77a16.48,16.48 0,0 1,8.79 10.06l0.73,-0.13"
        id="path_26" />
    <path fill="#2e4154"
        d="M65.25,13.38l0.77,0.99c-4.68,0.52 -5.79,7.23 -5.79,7.23S59.88,14.54 65.25,13.38Z"
        id="path_27" />
    <path fill="#2e4154"
        d="M68.51,9.23a7.3,7.3 0,0 0,-3.27 2.7l0.62,0.76a5.86,5.86 0,0 1,2.65 -2.27,7.58 7.58,0 0,1 2.96,2.5l0.75,-0.81A10.66,10.66 0,0 0,68.51 9.23Z"
        id="path_28" />
    <path fill="#2e4154"
        d="M92.17,8.18a10.69,10.69 0,0 0,6.29 4.8c0.2,-2.1 -2,-2.98 -2,-2.98 2.46,0.55 5.19,-1.82 5.19,-1.82h-9.48"
        id="path_29" />
    <path fill="#2e4154"
        d="M77.86,8.18c0.24,3.51 4.57,4.08 4.57,4.08a2.89,2.89 0,0 0,-1.92 -2.6,3.81 3.81,0 0,0 4.08,-1.48Z"
        id="path_30" />
    <path fill="#0d6a60"
        d="M68.6,19.71c3.24,0.26 3.67,4.96 3.67,4.96 -1.8,0 -2.4,-2.08 -2.4,-2.08a4.41,4.41 0,0 1,-1.38 4.41,4.89 4.89,0 0,1 -0.81,-4.41s-0.6,2.08 -2.4,2.08C65.27,24.67 65.36,19.97 68.6,19.71Z"
        stroke-width="0.5" stroke="#2e4154" id="path_31" />
    <path fill="#2e4154"
        d="M45.32,8.18a10.69,10.69 0,0 1,-6.29 4.8c-0.2,-2.1 2,-2.98 2,-2.98 -2.45,0.55 -5.19,-1.82 -5.19,-1.82h9.48"
        id="path_32" />
    <path fill="#2e4154"
        d="M59.63,8.18c-0.24,3.51 -4.56,4.08 -4.56,4.08a2.89,2.89 0,0 1,1.92 -2.6,3.81 3.81,0 0,1 -4.08,-1.48Z"
        id="path_33" />
    <path fill="#2e4154" d="M70.34,18.79c1.5,0 1.57,1.75 0,1.75h-3.14c-1.57,0 -1.5,-1.75 0,-1.75Z"
        id="path_34" />
    <path fill="#2e4154" d="M93.51,8.18v2.33c0,2 -1.91,1.9 -1.91,0L91.59,8.18Z" id="path_35" />
    <path fill="#2e4154" d="M60.51,8.18v1.99c0,1.62 -1.63,1.69 -1.63,0L58.88,8.18Z"
        id="path_36" />
    <path fill="#2e4154" d="M78.59,8.18v1.99c0,1.62 -1.63,1.69 -1.63,0L76.96,8.18Z"
        id="path_37" />
    <path fill="#2e4154" d="M43.99,8.18v2.33c0,2 1.91,1.9 1.91,0L45.9,8.18Z" id="path_38" />
    <path fill="#2e4154"
        d="M256.32,100.35c1.68,-0.13 8.65,-2.91 8.65,-8.36a7.88,7.88 0,0 0,-4.81 -7.27,6.66 6.66,0 0,1 2.64,5.19c0,1.69 -1.44,1.69 -1.44,3.12s1.44,1.55 2.16,0.78c0,0 -0.96,4.15 -7.21,6.1Z"
        id="path_39" />
    <path fill="#2e4154"
        d="M241.66,89.66c2.52,8.83 9.4,10.7 9.4,10.7l0.12,-0.77a16.48,16.48 0,0 1,-8.79 -10.06l-0.73,0.13"
        id="path_40" />
    <path fill="#2e4154"
        d="M245.43,95.15l-0.77,-0.99c4.68,-0.52 5.77,-7.23 5.77,-7.23S250.8,93.99 245.43,95.15Z"
        id="path_41" />
    <path fill="#2e4154"
        d="M264.73,100.35s-2.77,-5.41 -7.09,-5.11c0,0 0.24,-5.97 -2.76,-5.97s-3.18,6.16 -5.17,4.93c-1.68,-1.04 0.43,-2.89 0.61,-5.61 0.24,-3.51 -1.69,-6.07 -4.58,-5.81 0,0 -0.49,-3.67 -1.8,-4.41a4.97,4.97 0,0 1,-2.03 -2.21,4.93 4.93,0 0,1 -2.03,2.21c-1.32,0.74 -1.8,4.41 -1.8,4.41 -2.88,-0.26 -4.8,2.35 -4.56,5.86 0.19,2.72 2.28,4.53 0.59,5.56 -1.98,1.22 -2.16,-4.93 -5.17,-4.93s-2.76,5.97 -2.76,5.97c-4.32,-0.29 -7.09,5.11 -7.09,5.11l-0.48,-0.51s1.97,-5.07 6.37,-5.77c0,0 -0.48,-8.18 7.33,-6.62 0,0 -0.48,-5.58 4.93,-5.84 0,0 0.48,-3.37 2.52,-4.41a3.82,3.82 0,0 0,2.15 -2.98,3.82 3.82,0 0,0 2.15,2.98c2.04,1.04 2.52,4.41 2.52,4.41 5.41,0.26 4.93,5.84 4.93,5.84 7.81,-1.56 7.33,6.62 7.33,6.62 4.4,0.71 6.37,5.77 6.37,5.77Z"
        id="path_42" />
    <path fill="#2e4154"
        d="M227.52,100.35c-1.68,-0.13 -8.65,-2.91 -8.65,-8.36a7.88,7.88 0,0 1,4.81 -7.27,6.66 6.66,0 0,0 -2.64,5.19c0,1.69 1.44,1.69 1.44,3.12s-1.44,1.55 -2.16,0.78c0,0 0.96,4.15 7.21,6.1Z"
        id="path_43" />
    <path fill="#2e4154"
        d="M242.18,89.66c-2.52,8.83 -9.4,10.7 -9.4,10.7l-0.12,-0.77a16.48,16.48 0,0 0,8.79 -10.06l0.73,0.13"
        id="path_44" />
    <path fill="#2e4154"
        d="M238.43,95.16l0.77,-0.99c-4.68,-0.52 -5.79,-7.23 -5.79,-7.23S233.06,94 238.43,95.16Z"
        id="path_45" />
    <path fill="#2e4154"
        d="M241.69,99.3a7.29,7.29 0,0 1,-3.27 -2.7l0.62,-0.76A5.87,5.87 0,0 0,241.69 98.11a7.59,7.59 0,0 0,2.96 -2.5l0.75,0.81A10.66,10.66 0,0 1,241.69 99.3Z"
        id="path_46" />
    <path fill="#2e4154"
        d="M265.34,100.35a10.69,10.69 0,0 1,6.29 -4.8c0.2,2.1 -2,2.98 -2,2.98 2.46,-0.55 5.19,1.82 5.19,1.82h-9.48"
        id="path_47" />
    <path fill="#2e4154"
        d="M251.04,100.35c0.24,-3.51 4.57,-4.08 4.57,-4.08a2.89,2.89 0,0 1,-1.92 2.6,3.8 3.8,0 0,1 4.08,1.48Z"
        id="path_48" />
    <path fill="#0d6a60"
        d="M241.78,88.83c3.24,-0.26 3.67,-4.96 3.67,-4.96 -1.8,0 -2.4,2.08 -2.4,2.08a4.41,4.41 0,0 0,-1.38 -4.41,4.89 4.89,0 0,0 -0.81,4.41s-0.6,-2.08 -2.4,-2.08C238.45,83.87 238.53,88.57 241.78,88.83Z"
        stroke-width="0.5" stroke="#2e4154" id="path_49" />
    <path fill="#2e4154"
        d="M218.5,100.35a10.7,10.7 0,0 0,-6.29 -4.8c-0.2,2.1 2,2.98 2,2.98 -2.45,-0.55 -5.19,1.82 -5.19,1.82h9.48"
        id="path_50" />
    <path fill="#2e4154"
        d="M232.81,100.35c-0.24,-3.51 -4.56,-4.08 -4.56,-4.08a2.89,2.89 0,0 0,1.92 2.6,3.81 3.81,0 0,0 -4.09,1.48Z"
        id="path_51" />
    <path fill="#2e4154"
        d="M243.52,89.74c1.5,0 1.57,-1.75 0,-1.75h-3.14c-1.57,0 -1.5,1.75 0,1.75Z" id="path_52" />
    <path fill="#2e4154" d="M266.68,100.35v-2.33c0,-2 -1.91,-1.9 -1.91,0v2.33Z" id="path_53" />
    <path fill="#2e4154" d="M233.68,100.35v-1.99c0,-1.62 -1.63,-1.69 -1.63,0v1.99Z"
        id="path_54" />
    <path fill="#2e4154" d="M251.77,100.35v-1.99c0,-1.62 -1.63,-1.69 -1.63,0v1.99Z"
        id="path_55" />
    <path fill="#2e4154" d="M217.16,100.35v-2.33c0,-2 1.91,-1.9 1.91,0v2.33Z" id="path_56" />
    <path fill="#2e4154"
        d="M256.32,8.18c1.68,0.13 8.65,2.91 8.65,8.36a7.88,7.88 0,0 1,-4.81 7.27,6.66 6.66,0 0,0 2.64,-5.19c0,-1.69 -1.44,-1.69 -1.44,-3.12s1.44,-1.55 2.16,-0.78c0,0 -0.96,-4.15 -7.21,-6.1Z"
        id="path_57" />
    <path fill="#2e4154"
        d="M241.66,18.88c2.52,-8.82 9.4,-10.69 9.4,-10.69l0.12,0.77a16.48,16.48 0,0 0,-8.79 10.06l-0.73,-0.13"
        id="path_58" />
    <path fill="#2e4154"
        d="M245.43,13.39l-0.77,0.99c4.68,0.52 5.77,7.23 5.77,7.23S250.8,14.55 245.43,13.39Z"
        id="path_59" />
    <path fill="#2e4154"
        d="M264.73,8.18s-2.77,5.41 -7.09,5.11c0,0 0.24,5.97 -2.76,5.97s-3.18,-6.16 -5.17,-4.93c-1.68,1.04 0.43,2.89 0.61,5.61 0.24,3.51 -1.69,6.07 -4.58,5.81 0,0 -0.49,3.67 -1.8,4.41a4.97,4.97 0,0 0,-2.03 2.21,4.94 4.94,0 0,0 -2.03,-2.21c-1.32,-0.74 -1.8,-4.41 -1.8,-4.41 -2.88,0.26 -4.8,-2.35 -4.56,-5.86 0.19,-2.72 2.28,-4.53 0.59,-5.56 -1.98,-1.22 -2.16,4.93 -5.17,4.93s-2.76,-5.97 -2.76,-5.97c-4.32,0.29 -7.09,-5.11 -7.09,-5.11l-0.48,0.51s1.97,5.07 6.37,5.77c0,0 -0.48,8.18 7.33,6.62 0,0 -0.48,5.58 4.93,5.84 0,0 0.48,3.37 2.52,4.41a3.82,3.82 0,0 1,2.15 2.98,3.82 3.82,0 0,1 2.15,-2.98c2.04,-1.04 2.52,-4.41 2.52,-4.41 5.41,-0.26 4.93,-5.84 4.93,-5.84 7.81,1.56 7.33,-6.62 7.33,-6.62 4.4,-0.71 6.37,-5.77 6.37,-5.77Z"
        id="path_60" />
    <path fill="#2e4154"
        d="M227.52,8.18c-1.68,0.13 -8.65,2.91 -8.65,8.36a7.88,7.88 0,0 0,4.81 7.27,6.66 6.66,0 0,1 -2.64,-5.19c0,-1.69 1.44,-1.69 1.44,-3.12s-1.44,-1.55 -2.16,-0.78c0,0 0.96,-4.15 7.21,-6.1Z"
        id="path_61" />
    <path fill="#2e4154"
        d="M242.18,18.88c-2.52,-8.82 -9.4,-10.69 -9.4,-10.69l-0.12,0.77a16.48,16.48 0,0 1,8.79 10.06l0.73,-0.13"
        id="path_62" />
    <path fill="#2e4154"
        d="M238.43,13.38l0.77,0.99c-4.68,0.52 -5.79,7.23 -5.79,7.23S233.06,14.54 238.43,13.38Z"
        id="path_63" />
    <path fill="#2e4154"
        d="M241.69,9.23a7.29,7.29 0,0 0,-3.27 2.7l0.62,0.76A5.86,5.86 0,0 1,241.69 10.43a7.58,7.58 0,0 1,2.96 2.5l0.75,-0.81A10.66,10.66 0,0 0,241.69 9.23Z"
        id="path_64" />
    <path fill="#2e4154"
        d="M265.34,8.18a10.69,10.69 0,0 0,6.29 4.8c0.2,-2.1 -2,-2.98 -2,-2.98 2.46,0.55 5.19,-1.82 5.19,-1.82h-9.48"
        id="path_65" />
    <path fill="#2e4154"
        d="M251.04,8.18c0.24,3.51 4.57,4.08 4.57,4.08a2.89,2.89 0,0 0,-1.92 -2.6,3.8 3.8,0 0,0 4.08,-1.48Z"
        id="path_66" />
    <path fill="#0d6a60"
        d="M241.78,19.71c3.24,0.26 3.67,4.96 3.67,4.96 -1.8,0 -2.4,-2.08 -2.4,-2.08a4.41,4.41 0,0 1,-1.38 4.41,4.89 4.89,0 0,1 -0.81,-4.41s-0.6,2.08 -2.4,2.08C238.45,24.67 238.53,19.97 241.78,19.71Z"
        stroke-width="0.5" stroke="#2e4154" id="path_67" />
    <path fill="#2e4154"
        d="M218.5,8.18a10.7,10.7 0,0 1,-6.29 4.8c-0.2,-2.1 2,-2.98 2,-2.98 -2.45,0.55 -5.19,-1.82 -5.19,-1.82h9.48"
        id="path_68" />
    <path fill="#2e4154"
        d="M232.81,8.18c-0.24,3.51 -4.56,4.08 -4.56,4.08a2.89,2.89 0,0 1,1.92 -2.6,3.81 3.81,0 0,1 -4.09,-1.48Z"
        id="path_69" />
    <path fill="#2e4154"
        d="M243.52,18.79c1.5,0 1.57,1.75 0,1.75h-3.14c-1.57,0 -1.5,-1.75 0,-1.75Z" id="path_70" />
    <path fill="#2e4154" d="M266.68,8.18v2.33c0,2 -1.91,1.9 -1.91,0L264.77,8.18Z" id="path_71" />
    <path fill="#2e4154" d="M233.68,8.18v1.99c0,1.62 -1.63,1.69 -1.63,0L232.06,8.18Z"
        id="path_72" />
    <path fill="#2e4154" d="M251.77,8.18v1.99c0,1.62 -1.63,1.69 -1.63,0L250.14,8.18Z"
        id="path_73" />
    <path fill="#2e4154" d="M217.16,8.18v2.33c0,2 1.91,1.9 1.91,0L219.07,8.18Z" id="path_74" />
    <path fill="#c2d2ff"
        d="M8.91,22.99c2.08,-0.13 4.88,0.9 5.27,7.54 0,0 9.71,-1.08 9.71,8.63 0,2.16 -2.97,2.78 -4.1,4.74 -1.51,2.63 2.37,5.47 4.53,3.21 1.53,-1.61 2.27,-6.76 5.61,-6.76s7.05,2.73 6.58,8.52c0,0 5.71,0.64 8.04,5.61 -2.34,4.98 -8.04,6.79 -8.04,6.79 0.47,5.79 -3.24,8.52 -6.58,8.52s-4.08,-5.15 -5.61,-6.76c-2.16,-2.26 -6.04,0.58 -4.53,3.2 1.13,1.97 4.1,2.59 4.1,4.75 0,9.71 -9.71,8.63 -9.71,8.63 -1.03,6.56 -5.31,5.84 -5.31,5.84"
        stroke-width="0.5" stroke="#485c6d" id="path_75" />
    <path fill="#2e4154"
        d="M25.93,53.53C4.63,48.14 13.98,30.84 13.98,30.84l-0.22,-2.29s-12.53,20.59 12.18,26.52Z"
        id="path_76" />
    <path fill="#2e4154"
        d="M25.93,56.66c-21.31,5.39 -11.89,22.75 -11.89,22.75l-0.61,2.27s-12.21,-20.62 12.49,-26.56Z"
        id="path_77" />
    <path fill="#c2d2ff"
        d="M25.65,51.65c0,-1.01 0,-1.58 1.07,-1.58s0.89,0.57 0.89,1.58v6.76c0,1 0.18,1.58 -0.89,1.58s-1.07,-0.57 -1.07,-1.58Z"
        stroke-width="0.5" stroke="#2e4154" id="path_78" />
    <path fill="#0d6a60"
        d="M27.67,53.83c2.56,-5.16 7.23,-3.02 7.23,-3.02 -0.25,2.08 -3.19,3.02 -3.19,3.02a5.09,5.09 0,0 1,5.72 1.36,5.09 5.09,0 0,1 -5.72,1.36s2.94,0.94 3.19,3.02c0,0 -4.66,2.14 -7.23,-3.02Z"
        stroke-width="0.5" stroke="#2e4154" id="path_79" />
    <path fill="#2e4154"
        d="M9.58,41.83c5.17,-2.56 4.41,-7.23 4.41,-7.23 -2.08,0.26 -3.03,3.19 -3.03,3.19a5.08,5.08 0,0 0,-1.36 -5.71Z"
        stroke-width="0.5" stroke="#e7e2de" id="path_80" />
    <path fill="#2e4154"
        d="M9.57,69.15c5.17,2.56 4.49,7.2 4.49,7.2 -2.08,-0.25 -3.03,-3.19 -3.03,-3.19a5.18,5.18 0,0 1,-1.41 5.78Z"
        stroke-width="0.5" stroke="#e7e2de" id="path_81" />
    <path fill="#2e4154"
        d="M158.72,31.1c1.99,-1.71 5.22,-3.37 10.38,-3.7a5.26,5.26 0,0 1,2.49 0.35,2.47 2.47,0 0,1 1.32,1.7 1.65,1.65 0,0 1,-0.26 1.41,1.54 1.54,0 0,1 -1.06,0.65 1.05,1.05 0,0 1,-1.11 -1.07,0.68 0.68,0 0,1 0.52,-0.66 0.27,0.27 0,0 1,0.37 0.17,0.57 0.57,0 0,0 0.77,0.3 0.61,0.61 0,0 0,0.33 -0.78,1.41 1.41,0 0,0 -1.71,-0.85 1.91,1.91 0,0 0,-1.46 1.89,2.2 2.2,0 0,0 2.35,2.17 2.62,2.62 0,0 0,2.49 -2.56,4.16 4.16,0 0,0 -0.95,-2.63 24.69,24.69 0,0 1,9.42 3.51,18.79 18.79,0 0,1 7.11,9.79l1.32,-0.4a20.97,20.97 0,0 0,-2.27 -4.94c2.06,1.69 4.07,3.46 6.15,5.33 7.54,6.76 15.35,13.75 25.05,14.1l0.05,-1.38c-9.2,-0.33 -16.81,-7.16 -24.18,-13.75 -2.74,-2.45 -5.49,-4.84 -8.37,-7.01h0a19.79,19.79 0,0 0,9.42 0.1l-0.32,-1.34a18.12,18.12 0,0 1,-9.26 -0.16c1.51,-0.61 2.19,-1.46 2.34,-2.31a2.66,2.66 0,0 0,-0.54 -2.17,2.31 2.31,0 0,0 -3.26,-0.26 1.81,1.81 0,0 0,-0.37 2.31,1.49 1.49,0 0,0 1.84,0.67 0.57,0.57 0,0 0,0.34 -0.75,0.61 0.61,0 0,0 -0.77,-0.35h0a0.28,0.28 0,0 1,-0.38 -0.15,0.63 0.63,0 0,1 0.12,-0.81 1.1,1.1 0,0 1,1.57 0.09,1.85 1.85,0 0,1 0.27,1.19c0,0.53 -1.17,2.93 -5.38,0.91 -3.99,-1.92 -7.84,-3.73 -12.25,-3.73 -4.43,0 -9.3,0.87 -12.9,4.06Z"
        id="path_82" />
    <path fill="#2e4154"
        d="M158.72,77.78c1.99,1.72 5.22,3.37 10.38,3.7a5.22,5.22 0,0 0,2.49 -0.35,2.47 2.47,0 0,0 1.32,-1.7 1.65,1.65 0,0 0,-0.26 -1.41,1.53 1.53,0 0,0 -1.06,-0.65 1.05,1.05 0,0 0,-1.11 1.07,0.67 0.67,0 0,0 0.52,0.66 0.27,0.27 0,0 0,0.37 -0.17,0.57 0.57,0 0,1 0.77,-0.3 0.61,0.61 0,0 1,0.33 0.78,1.41 1.41,0 0,1 -1.71,0.85 1.91,1.91 0,0 1,-1.46 -1.89,2.2 2.2,0 0,1 2.35,-2.18 2.62,2.62 0,0 1,2.49 2.56,4.16 4.16,0 0,1 -0.95,2.63 24.69,24.69 0,0 0,9.42 -3.51,18.79 18.79,0 0,0 7.11,-9.79l1.32,0.4a20.98,20.98 0,0 1,-2.27 4.94c2.06,-1.69 4.07,-3.46 6.15,-5.33 7.54,-6.76 15.35,-13.75 25.05,-14.1l0.05,1.38c-9.2,0.33 -16.81,7.15 -24.18,13.75 -2.74,2.45 -5.49,4.84 -8.37,7.01h0a19.8,19.8 0,0 1,9.42 -0.1l-0.32,1.35a18.1,18.1 0,0 0,-9.26 0.16c1.51,0.6 2.19,1.46 2.34,2.3a2.67,2.67 0,0 1,-0.54 2.18,2.31 2.31,0 0,1 -3.26,0.26 1.81,1.81 0,0 1,-0.37 -2.31,1.49 1.49,0 0,1 1.84,-0.67 0.57,0.57 0,0 1,0.34 0.75,0.61 0.61,0 0,1 -0.77,0.35h0a0.28,0.28 0,0 0,-0.38 0.15,0.63 0.63,0 0,0 0.12,0.82 1.1,1.1 0,0 0,1.57 -0.09,1.85 1.85,0 0,0 0.27,-1.19c0,-0.53 -1.17,-2.93 -5.38,-0.91 -3.99,1.91 -7.84,3.73 -12.25,3.73 -4.43,0 -9.3,-0.87 -12.9,-4.06Z"
        id="path_83" />
    <path fill="#2e4154"
        d="M151.49,31.1c-1.99,-1.71 -5.22,-3.37 -10.38,-3.7a5.27,5.27 0,0 0,-2.5 0.35,2.48 2.48,0 0,0 -1.32,1.7 1.64,1.64 0,0 0,0.26 1.41,1.54 1.54,0 0,0 1.05,0.65 1.06,1.06 0,0 0,1.11 -1.07,0.68 0.68,0 0,0 -0.52,-0.66 0.27,0.27 0,0 0,-0.36 0.17,0.58 0.58,0 0,1 -0.77,0.3 0.61,0.61 0,0 1,-0.33 -0.78,1.41 1.41,0 0,1 1.71,-0.85 1.91,1.91 0,0 1,1.45 1.89,2.2 2.2,0 0,1 -2.35,2.17 2.62,2.62 0,0 1,-2.49 -2.56,4.17 4.17,0 0,1 0.95,-2.63 24.65,24.65 0,0 0,-9.42 3.51,18.77 18.77,0 0,0 -7.11,9.79l-1.32,-0.4a20.81,20.81 0,0 1,2.27 -4.94c-2.06,1.69 -4.07,3.46 -6.16,5.33 -7.54,6.76 -15.35,13.75 -25.05,14.1l-0.05,-1.38c9.2,-0.33 16.82,-7.16 24.18,-13.75 2.74,-2.45 5.49,-4.84 8.37,-7.01h0a19.79,19.79 0,0 1,-9.42 0.1l0.32,-1.34a18.13,18.13 0,0 0,9.26 -0.16c-1.51,-0.61 -2.19,-1.46 -2.35,-2.31a2.66,2.66 0,0 1,0.54 -2.17,2.31 2.31,0 0,1 3.26,-0.26 1.82,1.82 0,0 1,0.37 2.31,1.49 1.49,0 0,1 -1.84,0.67 0.57,0.57 0,0 1,-0.34 -0.75,0.6 0.6,0 0,1 0.77,-0.35h0a0.29,0.29 0,0 0,0.38 -0.15,0.64 0.64,0 0,0 -0.13,-0.81 1.1,1.1 0,0 0,-1.57 0.09,1.88 1.88,0 0,0 -0.27,1.19c0,0.53 1.17,2.93 5.38,0.91 3.99,-1.92 7.84,-3.73 12.25,-3.73 4.43,0 9.29,0.87 12.9,4.06Z"
        id="path_84" />
    <path fill="#2e4154"
        d="M151.49,77.78c-1.99,1.72 -5.22,3.37 -10.38,3.7a5.23,5.23 0,0 1,-2.5 -0.35,2.48 2.48,0 0,1 -1.32,-1.7 1.64,1.64 0,0 1,0.26 -1.41,1.53 1.53,0 0,1 1.05,-0.65 1.06,1.06 0,0 1,1.11 1.07,0.68 0.68,0 0,1 -0.52,0.66 0.26,0.26 0,0 1,-0.36 -0.17,0.58 0.58,0 0,0 -0.77,-0.3 0.61,0.61 0,0 0,-0.33 0.78,1.42 1.42,0 0,0 1.71,0.85 1.91,1.91 0,0 0,1.45 -1.89,2.2 2.2,0 0,0 -2.35,-2.18 2.62,2.62 0,0 0,-2.49 2.56,4.17 4.17,0 0,0 0.95,2.63 24.65,24.65 0,0 1,-9.42 -3.51,18.77 18.77,0 0,1 -7.11,-9.79l-1.32,0.4a20.82,20.82 0,0 0,2.27 4.94c-2.06,-1.69 -4.07,-3.46 -6.16,-5.33 -7.54,-6.76 -15.35,-13.75 -25.05,-14.1l-0.05,1.38c9.2,0.33 16.82,7.15 24.18,13.75 2.74,2.45 5.49,4.84 8.37,7.01h0a19.8,19.8 0,0 0,-9.42 -0.1l0.32,1.35a18.12,18.12 0,0 1,9.26 0.16c-1.51,0.6 -2.19,1.46 -2.35,2.3a2.67,2.67 0,0 0,0.54 2.18,2.31 2.31,0 0,0 3.26,0.26 1.82,1.82 0,0 0,0.37 -2.31,1.49 1.49,0 0,0 -1.84,-0.67 0.57,0.57 0,0 0,-0.34 0.75,0.6 0.6,0 0,0 0.77,0.35h0a0.28,0.28 0,0 1,0.38 0.15,0.64 0.64,0 0,1 -0.13,0.82 1.1,1.1 0,0 1,-1.57 -0.09,1.88 1.88,0 0,1 -0.27,-1.19c0,-0.53 1.17,-2.93 5.38,-0.91 3.99,1.91 7.84,3.73 12.25,3.73 4.43,0 9.29,-0.87 12.9,-4.06Z"
        id="path_85" />
    <path fill="#c2d2ff"
        d="M155.11,28.92s-3.59,0.81 -4.7,6.07c0,0 -10.05,-0.86 -10.05,6.91 0,1.73 3.07,2.22 4.24,3.8 1.56,2.1 -2.45,4.38 -4.69,2.57 -1.59,-1.29 -2.35,-5.41 -5.8,-5.41s-7.3,2.19 -6.82,6.82c0,0 -5.85,0.98 -8.26,4.96 2.42,3.98 8.26,4.97 8.26,4.97 -0.48,4.64 3.35,6.82 6.82,6.82s4.22,-4.12 5.8,-5.41c2.23,-1.81 6.25,0.46 4.69,2.56 -1.17,1.57 -4.24,2.07 -4.24,3.8 0,7.77 10.05,6.91 10.05,6.91 1.11,5.27 4.7,5.04 4.7,5.04s3.59,0.23 4.7,-5.04c0,0 10.05,0.86 10.05,-6.91 0,-1.73 -3.08,-2.23 -4.25,-3.8 -1.57,-2.1 2.46,-4.37 4.69,-2.56 1.59,1.29 2.35,5.41 5.81,5.41s7.29,-2.19 6.81,-6.82c0,0 5.84,-0.98 8.27,-4.97 -2.42,-3.98 -8.27,-4.96 -8.27,-4.96 0.48,-4.64 -3.35,-6.82 -6.81,-6.82s-4.22,4.12 -5.81,5.41c-2.23,1.81 -6.26,-0.46 -4.69,-2.57 1.17,-1.57 4.25,-2.07 4.25,-3.8 0,-7.77 -10.05,-6.91 -10.05,-6.91C158.69,29.73 155.11,28.92 155.11,28.92Z"
        stroke-width="0.75" stroke="#2e4155" id="path_86" />
    <path fill="#2e4154"
        d="M195.3,54.9s1.15,5.07 4.55,6.4c0,0 0.86,-3.07 -0.29,-5.14a4.64,4.64 0,0 0,5.82 -1.52,4.59 4.59,0 0,0 -6.16,-1.35c1.15,-2.07 0.64,-5.31 0.64,-5.31C195.19,50.75 195.3,54.9 195.3,54.9Z"
        id="path_87" />
    <path fill="#2e4154"
        d="M193.92,51.19c0,-1 0,-1.57 1,-1.57s0.83,0.56 0.83,1.57v6.73c0,1 0.17,1.56 -0.83,1.56s-1,-0.56 -1,-1.56Z"
        id="path_88" />
    <path fill="#2e4154"
        d="M114.91,54.9s-1.15,5.07 -4.55,6.4c0,0 -0.86,-3.07 0.29,-5.14a4.64,4.64 0,0 1,-5.82 -1.52,4.59 4.59,0 0,1 6.16,-1.35c-1.15,-2.07 -0.64,-5.31 -0.64,-5.31C115.03,50.75 114.91,54.9 114.91,54.9Z"
        id="path_89" />
    <path fill="#2e4154"
        d="M116.29,51.19c0,-1 0,-1.57 -1,-1.57s-0.84,0.56 -0.84,1.57v6.73c0,1 -0.17,1.56 0.84,1.56s1,-0.56 1,-1.56Z"
        id="path_90" />
    <path fill="#2e4154"
        d="M147.94,46.82c-6.84,-6.65 -4.02,-10.7 -4.02,-10.7s-4.13,1.73 -3.57,5.78c0.3,2.19 21.97,20.72 21.97,20.72 6.84,6.65 3.96,10.53 3.96,10.53a6.66,6.66 0,0 0,3.58 -5.78C169.86,66.6 147.94,46.82 147.94,46.82Z"
        id="path_91" />
    <path fill="#2e4154"
        d="M147.94,62.45c-6.84,6.65 -4.02,10.7 -4.02,10.7s-4.13,-1.73 -3.57,-5.78c0.3,-2.19 21.92,-20.55 21.92,-20.55 6.84,-6.65 4.02,-10.7 4.02,-10.7s4.13,1.73 3.58,5.78C169.56,44.09 147.94,62.45 147.94,62.45Z"
        id="path_92" />
    <path fill="#2e4154"
        d="M171.48,53.39c-23.82,-4.64 -11.67,-18.39 -11.67,-18.39l-0.67,-1.73s-13.23,16.6 12.34,21.35Z"
        id="path_93" />
    <path fill="#2e4154"
        d="M138.73,53.39c25.22,-4.64 9.94,-20.51 11.67,-18.39l0.67,-1.73s13.23,16.6 -12.34,21.35Z"
        id="path_94" />
    <path fill="#2e4154"
        d="M138.73,55.89c23.75,4.67 11.67,18.39 11.67,18.39l0.67,1.73s13.23,-16.6 -12.34,-21.35Z"
        id="path_95" />
    <path fill="#2e4154"
        d="M171.48,55.89c-23.75,4.67 -11.67,18.39 -11.67,18.39l-0.67,1.73s-13.23,-16.6 12.34,-21.35Z"
        id="path_96" />
    <path fill="#0d6a60"
        d="M196.98,31.72s2.57,5.37 5.23,3.42c0,0 3.23,0.09 2.66,-2.95 0,0 1.92,-0.52 1.17,-2.83 -0.39,-2.4 -3.03,-2.41 -3.03,-2.41 -0.88,-2.97 -3.53,-0.76 -3.53,-0.76 -3.25,-0.52 -2.51,5.53 -2.51,5.53"
        stroke-width="0.5" stroke="#2e4154" id="path_97" />
    <path fill="#0d6a60"
        d="M196.98,77.16s2.57,-5.37 5.23,-3.42c0,0 3.23,-0.09 2.66,2.95 0,0 1.92,0.52 1.17,2.83 -0.39,2.4 -3.03,2.41 -3.03,2.41 -0.88,2.97 -3.53,0.76 -3.53,0.76 -3.25,0.52 -2.51,-5.53 -2.51,-5.53"
        stroke-width="0.5" stroke="#2e4154" id="path_98" />
    <path fill="#0d6a60"
        d="M113.23,31.72s-2.57,5.37 -5.22,3.42c0,0 -3.24,0.09 -2.66,-2.95 0,0 -1.92,-0.52 -1.18,-2.83 0.39,-2.4 3.03,-2.41 3.03,-2.41 0.87,-2.97 3.53,-0.76 3.53,-0.76 3.26,-0.52 2.5,5.53 2.5,5.53"
        stroke-width="0.5" stroke="#2e4154" id="path_99" />
    <path fill="#0d6a60"
        d="M113.23,77.16s-2.57,-5.37 -5.22,-3.42c0,0 -3.24,-0.09 -2.66,2.95 0,0 -1.92,0.52 -1.18,2.83 0.39,2.4 3.03,2.41 3.03,2.41 0.87,2.97 3.53,0.76 3.53,0.76 3.26,0.52 2.5,-5.53 2.5,-5.53"
        stroke-width="0.5" stroke="#2e4154" id="path_100" />
    <path fill="#2e4154"
        d="M192.95,32.75a8.68,8.68 0,0 0,7.89 3.61,6.44 6.44,0 0,0 -3.12,-3.38s1.62,0.44 4.63,-2.5c-4.33,-1.48 -5.39,-0.21 -5.39,-0.21 1.86,-2.48 1.28,-4.32 1.28,-4.32A8.6,8.6 0,0 0,192.95 32.75Z"
        id="path_101" />
    <path fill="#2e4154"
        d="M192.95,76.13a8.67,8.67 0,0 1,7.89 -3.61,6.44 6.44,0 0,1 -3.12,3.38s1.62,-0.44 4.63,2.5c-4.33,1.48 -5.39,0.21 -5.39,0.21 1.86,2.47 1.28,4.31 1.28,4.31A8.6,8.6 0,0 1,192.95 76.13Z"
        id="path_102" />
    <path fill="#2e4154"
        d="M117.26,32.75a8.68,8.68 0,0 1,-7.89 3.61,6.43 6.43,0 0,1 3.13,-3.38s-1.62,0.44 -4.63,-2.5c4.33,-1.48 5.39,-0.21 5.39,-0.21 -1.86,-2.48 -1.28,-4.32 -1.28,-4.32A8.59,8.59 0,0 1,117.26 32.75Z"
        id="path_103" />
    <path fill="#2e4154"
        d="M117.26,76.13a8.67,8.67 0,0 0,-7.89 -3.61,6.43 6.43,0 0,0 3.13,3.38s-1.62,-0.44 -4.63,2.5c4.33,1.48 5.39,0.21 5.39,0.21 -1.86,2.47 -1.28,4.31 -1.28,4.31A8.6,8.6 0,0 0,117.26 76.13Z"
        id="path_104" />
    <path fill="#0d6a60"
        d="M190.54,39.68s2.33,-0.24 3.54,2.57l-1.34,-0.39a6.07,6.07 0,0 1,1.75 4.23l-1.06,-1.36s1.17,3.63 -0.26,4.99a4.17,4.17 0,0 1,-2.31 -3.38l-0.24,1.5s-1.49,-1.72 -1.1,-2.96l-0.39,1.25s-1.27,-2.14 -0.27,-3.72L187.8,43.44a5.29,5.29 0,0 1,1.5 -3.55C190.24,39.02 190.54,39.68 190.54,39.68Z"
        stroke-width="0.5" stroke="#2e4154" id="path_105" />
    <path fill="#0d6a60"
        d="M190.54,69.2s2.33,0.25 3.54,-2.57l-1.34,0.39a6.07,6.07 0,0 0,1.75 -4.24l-1.06,1.36s1.17,-3.63 -0.26,-4.99a4.16,4.16 0,0 0,-2.31 3.37l-0.24,-1.5s-1.49,1.72 -1.1,2.96l-0.39,-1.25s-1.27,2.14 -0.27,3.72l-1.06,-1.05a5.3,5.3 0,0 0,1.5 3.55C190.24,69.86 190.54,69.2 190.54,69.2Z"
        stroke-width="0.5" stroke="#2e4154" id="path_106" />
    <path fill="#0d6a60"
        d="M119.68,39.68s-2.33,-0.24 -3.54,2.57l1.35,-0.39a6.06,6.06 0,0 0,-1.75 4.23l1.06,-1.36s-1.17,3.63 0.26,4.99a4.17,4.17 0,0 0,2.32 -3.38l0.23,1.5s1.49,-1.72 1.1,-2.96l0.39,1.25s1.27,-2.14 0.27,-3.72L122.41,43.44a5.29,5.29 0,0 0,-1.5 -3.55C119.97,39.02 119.68,39.68 119.68,39.68Z"
        stroke-width="0.5" stroke="#2e4154" id="path_107" />
    <path fill="#0d6a60"
        d="M119.68,69.2s-2.33,0.25 -3.54,-2.57l1.35,0.39a6.07,6.07 0,0 1,-1.75 -4.24l1.06,1.36s-1.17,-3.63 0.26,-4.99a4.17,4.17 0,0 1,2.32 3.37l0.23,-1.5s1.49,1.72 1.1,2.96l0.39,-1.25s1.27,2.14 0.27,3.72l1.06,-1.05a5.3,5.3 0,0 1,-1.5 3.55C119.97,69.86 119.68,69.2 119.68,69.2Z"
        stroke-width="0.5" stroke="#2e4154" id="path_108" />
    <path fill="#2e4154"
        d="M215.05,54.65c3.45,0.46 5.76,3.88 5.76,3.88 -2.07,2.54 -8.06,1.15 -8.06,1.15 2.53,1.61 2.53,6.68 2.53,6.68 -5.3,0.23 -6.45,-3.68 -6.45,-3.68 0.92,2.53 -1.61,6.45 -1.61,6.45 0.46,-2.76 -11.05,-14.49 -11.05,-14.49s11.52,-11.73 11.05,-14.49c0,0 2.53,3.91 1.61,6.45 0,0 1.15,-3.91 6.45,-3.68 0,0 0,5.06 -2.53,6.68 0,0 5.99,-1.38 8.06,1.15 0,0 -2.3,3.42 -5.76,3.88"
        id="path_109" />
    <path fill="#2e4154"
        d="M95.17,54.65c-3.46,0.46 -5.76,3.88 -5.76,3.88 2.07,2.54 8.06,1.15 8.06,1.15 -2.54,1.61 -2.54,6.68 -2.54,6.68 5.3,0.23 6.45,-3.68 6.45,-3.68 -0.92,2.53 1.61,6.45 1.61,6.45 -0.46,-2.76 11.05,-14.49 11.05,-14.49s-11.51,-11.73 -11.05,-14.49c0,0 -2.54,3.91 -1.61,6.45 0,0 -1.15,-3.91 -6.45,-3.68 0,0 0,5.06 2.54,6.68 0,0 -5.99,-1.38 -8.06,1.15 0,0 2.3,3.42 5.76,3.88"
        id="path_110" />
    <path fill="#c2d2ff"
        d="M171.34,51.88c0,-0.81 0,-1.26 1.04,-1.26s0.87,0.45 0.87,1.26v5.41c0,0.8 0.17,1.26 -0.87,1.26s-1.04,-0.46 -1.04,-1.26Z"
        stroke-width="0.5" stroke="#2e4154" id="path_111" />
    <path fill="#c2d2ff"
        d="M152.25,45.68c-0.8,0 -1.26,0 -1.26,-1.05s0.46,-0.87 1.26,-0.87h5.41c0.81,0 1.26,-0.17 1.26,0.87s-0.45,1.05 -1.26,1.05Z"
        stroke-width="0.5" stroke="#2e4154" id="path_112" />
    <path fill="#c2d2ff"
        d="M139.02,51.88c0,-0.81 0,-1.26 -1.04,-1.26s-0.87,0.45 -0.87,1.26v5.41c0,0.8 -0.17,1.26 0.87,1.26s1.04,-0.46 1.04,-1.26Z"
        stroke-width="0.5" stroke="#2e4154" id="path_113" />
    <path fill="#c2d2ff"
        d="M152.25,63.48c-0.8,0 -1.26,0 -1.26,1.04s0.46,0.87 1.26,0.87h5.41c0.81,0 1.26,0.17 1.26,-0.87s-0.45,-1.04 -1.26,-1.04Z"
        stroke-width="0.5" stroke="#2e4154" id="path_114" />
    <path fill="#0d6a60"
        d="M173.26,53.49c2.65,-4.13 7.48,-2.42 7.48,-2.42 -0.26,1.66 -3.31,2.42 -3.31,2.42a6.21,6.21 0,0 1,5.91 1.09,6.21 6.21,0 0,1 -5.91,1.09s3.05,0.75 3.31,2.42c0,0 -4.83,1.72 -7.48,-2.42Z"
        stroke-width="0.5" stroke="#2e4154" id="path_115" />
    <path fill="#0d6a60"
        d="M153.87,43.76c-4.14,-2.65 -2.42,-7.48 -2.42,-7.48 1.66,0.27 2.42,3.31 2.42,3.31a6.2,6.2 0,0 1,1.09 -5.91,6.2 6.2,0 0,1 1.09,5.91s0.76,-3.04 2.42,-3.31c0,0 1.72,4.83 -2.42,7.48Z"
        stroke-width="0.5" stroke="#2e4154" id="path_116" />
    <path fill="#0d6a60"
        d="M153.87,65.39c-4.14,2.65 -2.42,7.48 -2.42,7.48 1.66,-0.26 2.42,-3.31 2.42,-3.31a6.2,6.2 0,0 0,1.09 5.91,6.2 6.2,0 0,0 1.09,-5.91s0.76,3.05 2.42,3.31c0,0 1.72,-4.83 -2.42,-7.48Z"
        stroke-width="0.5" stroke="#2e4154" id="path_117" />
    <path fill="#0d6a60"
        d="M136.96,53.49c-2.65,-4.13 -7.48,-2.42 -7.48,-2.42 0.26,1.66 3.3,2.42 3.3,2.42a6.2,6.2 0,0 0,-5.91 1.09,6.21 6.21,0 0,0 5.91,1.09s-3.04,0.75 -3.3,2.42c0,0 4.83,1.72 7.48,-2.42Z"
        stroke-width="0.5" stroke="#2e4154" id="path_118" />
    <path fill="#c2d2ff"
        d="M201.35,54.64s1.96,5.74 4.72,5.28c0,0 4.15,2.3 4.37,-1.61 0,0 4.61,-0.21 2.53,-3.67 2.07,-3.45 -2.53,-3.67 -2.53,-3.67 -0.23,-3.92 -4.37,-1.61 -4.37,-1.61C203.31,48.9 201.35,54.64 201.35,54.64Z"
        stroke-width="1.0" stroke="#2e4154" id="path_119" />
    <path fill="#c2d2ff"
        d="M108.87,54.64s-1.96,5.74 -4.72,5.28c0,0 -4.14,2.3 -4.37,-1.61 0,0 -4.6,-0.21 -2.53,-3.67 -2.07,-3.45 2.53,-3.67 2.53,-3.67 0.23,-3.92 4.37,-1.61 4.37,-1.61C106.91,48.9 108.87,54.64 108.87,54.64Z"
        stroke-width="1.0" stroke="#2e4154" id="path_120" />
    <path fill="#c2d2ff" d="M218.96,49.36s2.07,-4.38 -3.69,-5.07l-2.53,5.3Z" stroke-width="0.5"
        stroke="#2e4154" id="path_121" />
    <path fill="#c2d2ff"
        d="M208.83,46.59s0.23,-3.68 -0.69,-5.07 5.3,-1.98 5.3,1.15C213.44,44.06 208.83,46.59 208.83,46.59Z"
        stroke-width="0.5" stroke="#2e4154" id="path_122" />
    <path fill="#c2d2ff" d="M218.96,59.92s2.07,4.37 -3.69,5.07l-2.53,-5.3Z" stroke-width="0.5"
        stroke="#2e4154" id="path_123" />
    <path fill="#c2d2ff"
        d="M208.83,62.68s0.23,3.68 -0.69,5.07 5.3,1.98 5.3,-1.15C213.44,65.21 208.83,62.68 208.83,62.68Z"
        stroke-width="0.5" stroke="#2e4154" id="path_124" />
    <path fill="#c2d2ff"
        d="M214.13,54.64l4.49,2.89c1.38,-0.46 3.8,-1.05 4.49,-2.89 -0.69,-1.84 -3.28,-2.26 -4.66,-2.72Z"
        stroke-width="0.5" stroke="#2e4154" id="path_125" />
    <path fill="#c2d2ff" d="M91.25,49.36s-2.07,-4.38 3.68,-5.07l2.54,5.3Z" stroke-width="0.5"
        stroke="#2e4154" id="path_126" />
    <path fill="#c2d2ff"
        d="M101.38,46.59s-0.23,-3.68 0.69,-5.07 -5.3,-1.98 -5.3,1.15C96.78,44.06 101.38,46.59 101.38,46.59Z"
        stroke-width="0.5" stroke="#2e4154" id="path_127" />
    <path fill="#c2d2ff" d="M91.25,59.92s-2.07,4.37 3.68,5.07l2.54,-5.3Z" stroke-width="0.5"
        stroke="#2e4154" id="path_128" />
    <path fill="#c2d2ff"
        d="M101.38,62.68s-0.23,3.68 0.69,5.07 -5.3,1.98 -5.3,-1.15C96.78,65.21 101.38,62.68 101.38,62.68Z"
        stroke-width="0.5" stroke="#2e4154" id="path_129" />
    <path fill="#c2d2ff"
        d="M96.09,54.64l-4.49,2.89c-1.38,-0.46 -3.8,-1.05 -4.49,-2.89 0.69,-1.84 3.28,-2.26 4.66,-2.72Z"
        stroke-width="0.5" stroke="#2e4154" id="path_130" />
    <path fill="#3f4c6e"
        d="M861.15,97.76l-35.6,-37.44a8,8 0,0 1,-0.05 -10.97l35.64,-38.16a8,8 0,0 1,5.85 -2.54h79.68a8,8 0,0 1,5.85 2.54l35.64,38.16a8,8 0,0 1,-0.05 10.97l-35.6,37.44a8.01,8.01 0,0 1,-5.8 2.49h-79.76A8,8 0,0 1,861.15 97.76Z"
        stroke-width="0.5" stroke="#485c6d" id="path_131" />
    <path fill="#3f4c6e"
        d="M1033.62,12.21 L999.37,46.04a10.93,10.93 0,0 0,0 15.45l34.24,35.2a10.93,10.93 0,0 0,18.65 -7.73L1052.27,19.93A10.93,10.93 0,0 0,1033.62 12.21Z"
        stroke-width="0.5" stroke="#485c6d" id="path_132" />
    <path fill="#2e4154"
        d="M978.79,100.35c-1.68,-0.13 -8.65,-2.91 -8.65,-8.36a7.88,7.88 0,0 1,4.81 -7.27,6.66 6.66,0 0,0 -2.64,5.19c0,1.69 1.44,1.69 1.44,3.12s-1.44,1.55 -2.16,0.78c0,0 0.96,4.15 7.21,6.1Z"
        id="path_133" />
    <path fill="#2e4154"
        d="M993.45,89.66c-2.52,8.83 -9.4,10.7 -9.4,10.7l-0.12,-0.77a16.48,16.48 0,0 0,8.79 -10.06l0.73,0.13"
        id="path_134" />
    <path fill="#2e4154"
        d="M989.68,95.15l0.77,-0.99c-4.68,-0.52 -5.77,-7.23 -5.77,-7.23S984.31,93.99 989.68,95.15Z"
        id="path_135" />
    <path fill="#2e4154"
        d="M970.38,100.35s2.77,-5.41 7.09,-5.11c0,0 -0.24,-5.97 2.76,-5.97s3.18,6.16 5.17,4.93c1.68,-1.04 -0.43,-2.89 -0.61,-5.61 -0.24,-3.51 1.69,-6.07 4.58,-5.81 0,0 0.48,-3.67 1.8,-4.41a2.04,2.04 0,1 1,4.05 0c1.32,0.74 1.8,4.41 1.8,4.41 2.88,-0.26 4.8,2.35 4.56,5.86 -0.18,2.72 -2.28,4.53 -0.59,5.56 1.98,1.22 2.16,-4.93 5.17,-4.93s2.76,5.97 2.76,5.97c4.32,-0.29 7.09,5.11 7.09,5.11l0.48,-0.51s-1.97,-5.07 -6.37,-5.77c0,0 0.48,-8.18 -7.33,-6.62 0,0 0.48,-5.58 -4.93,-5.84 0,0 -0.48,-3.37 -2.52,-4.41a2.27,2.27 0,1 0,-4.3 0c-2.04,1.04 -2.52,4.41 -2.52,4.41 -5.41,0.26 -4.93,5.84 -4.93,5.84 -7.81,-1.56 -7.33,6.62 -7.33,6.62 -4.4,0.71 -6.37,5.77 -6.37,5.77Z"
        id="path_136" />
    <path fill="#2e4154"
        d="M1007.59,100.35c1.68,-0.13 8.65,-2.91 8.65,-8.36a7.88,7.88 0,0 0,-4.81 -7.27,6.66 6.66,0 0,1 2.64,5.19c0,1.69 -1.44,1.69 -1.44,3.12s1.44,1.55 2.16,0.78c0,0 -0.96,4.15 -7.21,6.1Z"
        id="path_137" />
    <path fill="#2e4154"
        d="M992.93,89.66c2.52,8.83 9.4,10.7 9.4,10.7l0.12,-0.77a16.48,16.48 0,0 1,-8.79 -10.06l-0.73,0.13"
        id="path_138" />
    <path fill="#2e4154"
        d="M996.68,95.16l-0.77,-0.99c4.68,-0.52 5.79,-7.23 5.79,-7.23S1002.05,94 996.68,95.16Z"
        id="path_139" />
    <path fill="#2e4154"
        d="M993.42,99.3a7.29,7.29 0,0 0,3.27 -2.7l-0.62,-0.76a5.87,5.87 0,0 1,-2.65 2.27,7.59 7.59,0 0,1 -2.96,-2.5l-0.75,0.81A10.66,10.66 0,0 0,993.42 99.3Z"
        id="path_140" />
    <path fill="#2e4154"
        d="M969.77,100.35a10.69,10.69 0,0 0,-6.29 -4.8c-0.2,2.1 2,2.98 2,2.98 -2.46,-0.55 -5.19,1.82 -5.19,1.82h9.48"
        id="path_141" />
    <path fill="#2e4154"
        d="M984.07,100.35c-0.24,-3.51 -4.57,-4.08 -4.57,-4.08a2.89,2.89 0,0 0,1.92 2.6,3.8 3.8,0 0,0 -4.08,1.48Z"
        id="path_142" />
    <path fill="#0d6a60"
        d="M993.33,88.83c-3.24,-0.26 -3.67,-4.96 -3.67,-4.96 1.8,0 2.4,2.08 2.4,2.08a4.41,4.41 0,0 1,1.38 -4.41,4.89 4.89,0 0,1 0.81,4.41s0.6,-2.08 2.4,-2.08C996.66,83.87 996.58,88.57 993.33,88.83Z"
        stroke-width="0.5" stroke="#2e4154" id="path_143" />
    <path fill="#2e4154"
        d="M1016.61,100.35a10.69,10.69 0,0 1,6.29 -4.8c0.2,2.1 -2,2.98 -2,2.98 2.45,-0.55 5.19,1.82 5.19,1.82h-9.48"
        id="path_144" />
    <path fill="#2e4154"
        d="M1002.3,100.35c0.24,-3.51 4.56,-4.08 4.56,-4.08a2.89,2.89 0,0 1,-1.92 2.6,3.8 3.8,0 0,1 4.08,1.48Z"
        id="path_145" />
    <path fill="#2e4154" d="M991.59,89.74c-1.5,0 -1.57,-1.75 0,-1.75h3.14c1.57,0 1.5,1.75 0,1.75Z"
        id="path_146" />
    <path fill="#2e4154" d="M968.43,100.35v-2.33c0,-2 1.91,-1.9 1.91,0v2.33Z" id="path_147" />
    <path fill="#2e4154" d="M1001.42,100.35v-1.99c0,-1.62 1.63,-1.69 1.63,0v1.99Z"
        id="path_148" />
    <path fill="#2e4154" d="M983.34,100.35v-1.99c0,-1.62 1.63,-1.69 1.63,0v1.99Z" id="path_149" />
    <path fill="#2e4154" d="M1017.95,100.35v-2.33c0,-2 -1.91,-1.9 -1.91,0v2.33Z" id="path_150" />
    <path fill="#2e4154"
        d="M978.79,8.18c-1.68,0.13 -8.65,2.91 -8.65,8.36a7.88,7.88 0,0 0,4.81 7.27,6.66 6.66,0 0,1 -2.64,-5.19c0,-1.69 1.44,-1.69 1.44,-3.12s-1.44,-1.55 -2.16,-0.78c0,0 0.96,-4.15 7.21,-6.1Z"
        id="path_151" />
    <path fill="#2e4154"
        d="M993.45,18.88c-2.52,-8.82 -9.4,-10.69 -9.4,-10.69l-0.12,0.77a16.48,16.48 0,0 1,8.79 10.06l0.73,-0.13"
        id="path_152" />
    <path fill="#2e4154"
        d="M989.68,13.39l0.77,0.99c-4.68,0.52 -5.77,7.23 -5.77,7.23S984.31,14.55 989.68,13.39Z"
        id="path_153" />
    <path fill="#2e4154"
        d="M970.38,8.18s2.77,5.41 7.09,5.11c0,0 -0.24,5.97 2.76,5.97s3.18,-6.16 5.17,-4.93c1.68,1.04 -0.43,2.89 -0.61,5.61 -0.24,3.51 1.69,6.07 4.58,5.81 0,0 0.48,3.67 1.8,4.41a2.04,2.04 0,1 0,4.05 0c1.32,-0.74 1.8,-4.41 1.8,-4.41 2.88,0.26 4.8,-2.35 4.56,-5.86 -0.18,-2.72 -2.28,-4.53 -0.59,-5.56 1.98,-1.22 2.16,4.93 5.17,4.93s2.76,-5.97 2.76,-5.97c4.32,0.29 7.09,-5.11 7.09,-5.11l0.48,0.51s-1.97,5.07 -6.37,5.77c0,0 0.48,8.18 -7.33,6.62 0,0 0.48,5.58 -4.93,5.84 0,0 -0.48,3.37 -2.52,4.41a2.27,2.27 0,1 1,-4.3 0c-2.04,-1.04 -2.52,-4.41 -2.52,-4.41 -5.41,-0.26 -4.93,-5.84 -4.93,-5.84 -7.81,1.56 -7.33,-6.62 -7.33,-6.62 -4.4,-0.71 -6.37,-5.77 -6.37,-5.77Z"
        id="path_154" />
    <path fill="#2e4154"
        d="M1007.59,8.18c1.68,0.13 8.65,2.91 8.65,8.36a7.88,7.88 0,0 1,-4.81 7.27,6.66 6.66,0 0,0 2.64,-5.19c0,-1.69 -1.44,-1.69 -1.44,-3.12s1.44,-1.55 2.16,-0.78c0,0 -0.96,-4.15 -7.21,-6.1Z"
        id="path_155" />
    <path fill="#2e4154"
        d="M992.93,18.88c2.52,-8.82 9.4,-10.69 9.4,-10.69l0.12,0.77a16.48,16.48 0,0 0,-8.79 10.06l-0.73,-0.13"
        id="path_156" />
    <path fill="#2e4154"
        d="M996.68,13.38l-0.77,0.99c4.68,0.52 5.79,7.23 5.79,7.23S1002.05,14.54 996.68,13.38Z"
        id="path_157" />
    <path fill="#2e4154"
        d="M993.42,9.23a7.29,7.29 0,0 1,3.27 2.7l-0.62,0.76a5.87,5.87 0,0 0,-2.65 -2.27,7.58 7.58,0 0,0 -2.96,2.5l-0.75,-0.81A10.66,10.66 0,0 1,993.42 9.23Z"
        id="path_158" />
    <path fill="#2e4154"
        d="M969.77,8.18a10.69,10.69 0,0 1,-6.29 4.8c-0.2,-2.1 2,-2.98 2,-2.98 -2.46,0.55 -5.19,-1.82 -5.19,-1.82h9.48"
        id="path_159" />
    <path fill="#2e4154"
        d="M984.07,8.18c-0.24,3.51 -4.57,4.08 -4.57,4.08a2.89,2.89 0,0 1,1.92 -2.6,3.8 3.8,0 0,1 -4.08,-1.48Z"
        id="path_160" />
    <path fill="#0d6a60"
        d="M993.33,19.71c-3.24,0.26 -3.67,4.96 -3.67,4.96 1.8,0 2.4,-2.08 2.4,-2.08a4.41,4.41 0,0 0,1.38 4.41,4.89 4.89,0 0,0 0.81,-4.41s0.6,2.08 2.4,2.08C996.66,24.67 996.58,19.97 993.33,19.71Z"
        stroke-width="0.5" stroke="#2e4154" id="path_161" />
    <path fill="#2e4154"
        d="M1016.61,8.18a10.69,10.69 0,0 0,6.29 4.8c0.2,-2.1 -2,-2.98 -2,-2.98 2.45,0.55 5.19,-1.82 5.19,-1.82h-9.48"
        id="path_162" />
    <path fill="#2e4154"
        d="M1002.3,8.18c0.24,3.51 4.56,4.08 4.56,4.08a2.89,2.89 0,0 0,-1.92 -2.6,3.8 3.8,0 0,0 4.08,-1.48Z"
        id="path_163" />
    <path fill="#2e4154" d="M991.59,18.79c-1.5,0 -1.57,1.75 0,1.75h3.14c1.57,0 1.5,-1.75 0,-1.75Z"
        id="path_164" />
    <path fill="#2e4154" d="M968.43,8.18v2.33c0,2 1.91,1.9 1.91,0L970.34,8.18Z" id="path_165" />
    <path fill="#2e4154" d="M1001.42,8.18v1.99c0,1.62 1.63,1.69 1.63,0L1003.05,8.18Z"
        id="path_166" />
    <path fill="#2e4154" d="M983.34,8.18v1.99c0,1.62 1.63,1.69 1.63,0L984.97,8.18Z"
        id="path_167" />
    <path fill="#2e4154" d="M1017.95,8.18v2.33c0,2 -1.91,1.9 -1.91,0L1016.04,8.18Z"
        id="path_168" />
    <path fill="#2e4154"
        d="M805.61,100.35c-1.68,-0.13 -8.65,-2.91 -8.65,-8.36a7.88,7.88 0,0 1,4.81 -7.27,6.66 6.66,0 0,0 -2.64,5.19c0,1.69 1.44,1.69 1.44,3.12s-1.44,1.55 -2.16,0.78c0,0 0.96,4.15 7.21,6.1Z"
        id="path_169" />
    <path fill="#2e4154"
        d="M820.27,89.66c-2.52,8.83 -9.4,10.7 -9.4,10.7l-0.12,-0.77a16.48,16.48 0,0 0,8.79 -10.06l0.73,0.13"
        id="path_170" />
    <path fill="#2e4154"
        d="M816.51,95.15l0.77,-0.99c-4.68,-0.52 -5.78,-7.23 -5.78,-7.23S811.13,93.99 816.51,95.15Z"
        id="path_171" />
    <path fill="#2e4154"
        d="M797.2,100.35s2.77,-5.41 7.09,-5.11c0,0 -0.24,-5.97 2.76,-5.97s3.18,6.16 5.17,4.93c1.68,-1.04 -0.43,-2.89 -0.61,-5.61 -0.24,-3.51 1.69,-6.07 4.58,-5.81 0,0 0.49,-3.67 1.8,-4.41a2.04,2.04 0,1 1,4.05 0c1.32,0.74 1.8,4.41 1.8,4.41 2.88,-0.26 4.8,2.35 4.56,5.86 -0.18,2.72 -2.28,4.53 -0.59,5.56 1.98,1.22 2.16,-4.93 5.17,-4.93s2.76,5.97 2.76,5.97c4.32,-0.29 7.09,5.11 7.09,5.11l0.48,-0.51s-1.97,-5.07 -6.37,-5.77c0,0 0.48,-8.18 -7.33,-6.62 0,0 0.48,-5.58 -4.93,-5.84 0,0 -0.48,-3.37 -2.52,-4.41a2.27,2.27 0,1 0,-4.3 0c-2.04,1.04 -2.52,4.41 -2.52,4.41 -5.41,0.26 -4.93,5.84 -4.93,5.84 -7.81,-1.56 -7.33,6.62 -7.33,6.62 -4.4,0.71 -6.37,5.77 -6.37,5.77Z"
        id="path_172" />
    <path fill="#2e4154"
        d="M834.42,100.35c1.68,-0.13 8.65,-2.91 8.65,-8.36a7.88,7.88 0,0 0,-4.81 -7.27,6.66 6.66,0 0,1 2.64,5.19c0,1.69 -1.44,1.69 -1.44,3.12s1.44,1.55 2.16,0.78c0,0 -0.96,4.15 -7.21,6.1Z"
        id="path_173" />
    <path fill="#2e4154"
        d="M819.75,89.66c2.52,8.83 9.4,10.7 9.4,10.7l0.12,-0.77a16.48,16.48 0,0 1,-8.79 -10.06l-0.73,0.13"
        id="path_174" />
    <path fill="#2e4154"
        d="M823.51,95.16l-0.77,-0.99c4.68,-0.52 5.79,-7.23 5.79,-7.23S828.88,94 823.51,95.16Z"
        id="path_175" />
    <path fill="#2e4154"
        d="M820.24,99.3a7.29,7.29 0,0 0,3.27 -2.7l-0.62,-0.76a5.87,5.87 0,0 1,-2.65 2.27,7.58 7.58,0 0,1 -2.96,-2.5l-0.75,0.81A10.66,10.66 0,0 0,820.24 99.3Z"
        id="path_176" />
    <path fill="#2e4154"
        d="M796.59,100.35a10.7,10.7 0,0 0,-6.29 -4.8c-0.2,2.1 2,2.98 2,2.98 -2.45,-0.55 -5.19,1.82 -5.19,1.82L796.59,100.35"
        id="path_177" />
    <path fill="#2e4154"
        d="M810.9,100.35c-0.24,-3.51 -4.57,-4.08 -4.57,-4.08a2.89,2.89 0,0 0,1.92 2.6,3.81 3.81,0 0,0 -4.09,1.48Z"
        id="path_178" />
    <path fill="#0d6a60"
        d="M820.16,88.83c-3.24,-0.26 -3.67,-4.96 -3.67,-4.96 1.8,0 2.4,2.08 2.4,2.08a4.4,4.4 0,0 1,1.38 -4.41,4.89 4.89,0 0,1 0.81,4.41s0.6,-2.08 2.4,-2.08C823.49,83.87 823.4,88.57 820.16,88.83Z"
        stroke-width="0.5" stroke="#2e4154" id="path_179" />
    <path fill="#2e4154"
        d="M843.43,100.35a10.69,10.69 0,0 1,6.29 -4.8c0.2,2.1 -2,2.98 -2,2.98 2.45,-0.55 5.19,1.82 5.19,1.82h-9.48"
        id="path_180" />
    <path fill="#2e4154"
        d="M829.13,100.35c0.24,-3.51 4.56,-4.08 4.56,-4.08a2.89,2.89 0,0 1,-1.92 2.6,3.81 3.81,0 0,1 4.08,1.48Z"
        id="path_181" />
    <path fill="#2e4154" d="M818.42,89.74c-1.5,0 -1.57,-1.75 0,-1.75h3.14c1.57,0 1.5,1.75 0,1.75Z"
        id="path_182" />
    <path fill="#2e4154" d="M795.25,100.35v-2.33c0,-2 1.91,-1.9 1.91,0v2.33Z" id="path_183" />
    <path fill="#2e4154" d="M828.25,100.35v-1.99c0,-1.62 1.63,-1.69 1.63,0v1.99Z" id="path_184" />
    <path fill="#2e4154" d="M810.17,100.35v-1.99c0,-1.62 1.63,-1.69 1.63,0v1.99Z" id="path_185" />
    <path fill="#2e4154" d="M844.77,100.35v-2.33c0,-2 -1.91,-1.9 -1.91,0v2.33Z" id="path_186" />
    <path fill="#2e4154"
        d="M805.61,8.18c-1.68,0.13 -8.65,2.91 -8.65,8.36a7.88,7.88 0,0 0,4.81 7.27,6.66 6.66,0 0,1 -2.64,-5.19c0,-1.69 1.44,-1.69 1.44,-3.12s-1.44,-1.55 -2.16,-0.78c0,0 0.96,-4.15 7.21,-6.1Z"
        id="path_187" />
    <path fill="#2e4154"
        d="M820.27,18.88c-2.52,-8.82 -9.4,-10.69 -9.4,-10.69l-0.12,0.77a16.48,16.48 0,0 1,8.79 10.06l0.73,-0.13"
        id="path_188" />
    <path fill="#2e4154"
        d="M816.51,13.39l0.77,0.99c-4.68,0.52 -5.78,7.23 -5.78,7.23S811.13,14.55 816.51,13.39Z"
        id="path_189" />
    <path fill="#2e4154"
        d="M797.2,8.18s2.77,5.41 7.09,5.11c0,0 -0.24,5.97 2.76,5.97s3.18,-6.16 5.17,-4.93c1.68,1.04 -0.43,2.89 -0.61,5.61 -0.24,3.51 1.69,6.07 4.58,5.81 0,0 0.49,3.67 1.8,4.41a2.04,2.04 0,1 0,4.05 0c1.32,-0.74 1.8,-4.41 1.8,-4.41 2.88,0.26 4.8,-2.35 4.56,-5.86 -0.18,-2.72 -2.28,-4.53 -0.59,-5.56 1.98,-1.22 2.16,4.93 5.17,4.93s2.76,-5.97 2.76,-5.97c4.32,0.29 7.09,-5.11 7.09,-5.11l0.48,0.51s-1.97,5.07 -6.37,5.77c0,0 0.48,8.18 -7.33,6.62 0,0 0.48,5.58 -4.93,5.84 0,0 -0.48,3.37 -2.52,4.41a2.27,2.27 0,1 1,-4.3 0c-2.04,-1.04 -2.52,-4.41 -2.52,-4.41 -5.41,-0.26 -4.93,-5.84 -4.93,-5.84 -7.81,1.56 -7.33,-6.62 -7.33,-6.62 -4.4,-0.71 -6.37,-5.77 -6.37,-5.77Z"
        id="path_190" />
    <path fill="#2e4154"
        d="M834.42,8.18c1.68,0.13 8.65,2.91 8.65,8.36a7.88,7.88 0,0 1,-4.81 7.27,6.66 6.66,0 0,0 2.64,-5.19c0,-1.69 -1.44,-1.69 -1.44,-3.12s1.44,-1.55 2.16,-0.78c0,0 -0.96,-4.15 -7.21,-6.1Z"
        id="path_191" />
    <path fill="#2e4154"
        d="M819.75,18.88c2.52,-8.82 9.4,-10.69 9.4,-10.69l0.12,0.77a16.48,16.48 0,0 0,-8.79 10.06l-0.73,-0.13"
        id="path_192" />
    <path fill="#2e4154"
        d="M823.51,13.38l-0.77,0.99c4.68,0.52 5.79,7.23 5.79,7.23S828.88,14.54 823.51,13.38Z"
        id="path_193" />
    <path fill="#2e4154"
        d="M820.24,9.23a7.29,7.29 0,0 1,3.27 2.7l-0.62,0.76a5.87,5.87 0,0 0,-2.65 -2.27,7.57 7.57,0 0,0 -2.96,2.5l-0.75,-0.81A10.66,10.66 0,0 1,820.24 9.23Z"
        id="path_194" />
    <path fill="#2e4154"
        d="M796.59,8.18a10.7,10.7 0,0 1,-6.29 4.8c-0.2,-2.1 2,-2.98 2,-2.98 -2.45,0.55 -5.19,-1.82 -5.19,-1.82L796.59,8.18"
        id="path_195" />
    <path fill="#2e4154"
        d="M810.9,8.18c-0.24,3.51 -4.57,4.08 -4.57,4.08a2.89,2.89 0,0 1,1.92 -2.6,3.81 3.81,0 0,1 -4.09,-1.48Z"
        id="path_196" />
    <path fill="#0d6a60"
        d="M820.16,19.71c-3.24,0.26 -3.67,4.96 -3.67,4.96 1.8,0 2.4,-2.08 2.4,-2.08a4.4,4.4 0,0 0,1.38 4.41,4.89 4.89,0 0,0 0.81,-4.41s0.6,2.08 2.4,2.08C823.49,24.67 823.4,19.97 820.16,19.71Z"
        stroke-width="0.5" stroke="#2e4154" id="path_197" />
    <path fill="#2e4154"
        d="M843.43,8.18a10.69,10.69 0,0 0,6.29 4.8c0.2,-2.1 -2,-2.98 -2,-2.98 2.45,0.55 5.19,-1.82 5.19,-1.82h-9.48"
        id="path_198" />
    <path fill="#2e4154"
        d="M829.13,8.18c0.24,3.51 4.56,4.08 4.56,4.08a2.89,2.89 0,0 0,-1.92 -2.6,3.81 3.81,0 0,0 4.08,-1.48Z"
        id="path_199" />
    <path fill="#2e4154" d="M818.42,18.79c-1.5,0 -1.57,1.75 0,1.75h3.14c1.57,0 1.5,-1.75 0,-1.75Z"
        id="path_200" />
    <path fill="#2e4154" d="M795.25,8.18v2.33c0,2 1.91,1.9 1.91,0L797.17,8.18Z" id="path_201" />
    <path fill="#2e4154" d="M828.25,8.18v1.99c0,1.62 1.63,1.69 1.63,0L829.88,8.18Z"
        id="path_202" />
    <path fill="#2e4154" d="M810.17,8.18v1.99c0,1.62 1.63,1.69 1.63,0L811.79,8.18Z"
        id="path_203" />
    <path fill="#2e4154" d="M844.77,8.18v2.33c0,2 -1.91,1.9 -1.91,0L842.86,8.18Z" id="path_204" />
    <path fill="#2e4154"
        d="M903.21,31.1c-1.99,-1.71 -5.22,-3.37 -10.38,-3.7a5.27,5.27 0,0 0,-2.49 0.35,2.47 2.47,0 0,0 -1.32,1.7 1.64,1.64 0,0 0,0.26 1.41,1.55 1.55,0 0,0 1.06,0.65 1.05,1.05 0,0 0,1.11 -1.07,0.68 0.68,0 0,0 -0.52,-0.66 0.27,0.27 0,0 0,-0.37 0.17,0.57 0.57,0 0,1 -0.77,0.3 0.61,0.61 0,0 1,-0.33 -0.78,1.41 1.41,0 0,1 1.71,-0.85 1.91,1.91 0,0 1,1.45 1.89,2.2 2.2,0 0,1 -2.35,2.17 2.62,2.62 0,0 1,-2.49 -2.56,4.17 4.17,0 0,1 0.95,-2.63 24.69,24.69 0,0 0,-9.42 3.51,18.79 18.79,0 0,0 -7.11,9.79l-1.32,-0.4a20.93,20.93 0,0 1,2.27 -4.94c-2.06,1.69 -4.07,3.46 -6.15,5.33 -7.54,6.76 -15.35,13.75 -25.05,14.1l-0.05,-1.38c9.2,-0.33 16.81,-7.16 24.18,-13.75 2.74,-2.45 5.49,-4.84 8.37,-7.01h0a19.79,19.79 0,0 1,-9.42 0.1l0.32,-1.34a18.12,18.12 0,0 0,9.26 -0.16c-1.51,-0.61 -2.19,-1.46 -2.34,-2.31a2.65,2.65 0,0 1,0.53 -2.17,2.31 2.31,0 0,1 3.26,-0.26 1.82,1.82 0,0 1,0.37 2.31,1.49 1.49,0 0,1 -1.84,0.67 0.57,0.57 0,0 1,-0.34 -0.75,0.61 0.61,0 0,1 0.77,-0.35h0a0.28,0.28 0,0 0,0.38 -0.15,0.63 0.63,0 0,0 -0.12,-0.81 1.1,1.1 0,0 0,-1.57 0.09,1.86 1.86,0 0,0 -0.27,1.19c0,0.53 1.17,2.93 5.38,0.91 3.99,-1.92 7.84,-3.73 12.25,-3.73 4.43,0 9.3,0.87 12.9,4.06Z"
        id="path_205" />
    <path fill="#2e4154"
        d="M903.21,77.78c-1.99,1.72 -5.22,3.37 -10.38,3.7a5.23,5.23 0,0 1,-2.49 -0.35,2.47 2.47,0 0,1 -1.32,-1.7 1.64,1.64 0,0 1,0.26 -1.41,1.54 1.54,0 0,1 1.06,-0.65 1.06,1.06 0,0 1,1.11 1.07,0.67 0.67,0 0,1 -0.52,0.66 0.27,0.27 0,0 1,-0.37 -0.17,0.57 0.57,0 0,0 -0.77,-0.3 0.61,0.61 0,0 0,-0.33 0.78,1.42 1.42,0 0,0 1.71,0.85 1.91,1.91 0,0 0,1.45 -1.89,2.2 2.2,0 0,0 -2.35,-2.18 2.62,2.62 0,0 0,-2.49 2.56,4.17 4.17,0 0,0 0.95,2.63 24.69,24.69 0,0 1,-9.42 -3.51,18.79 18.79,0 0,1 -7.11,-9.79l-1.32,0.4a20.94,20.94 0,0 0,2.27 4.94c-2.06,-1.69 -4.07,-3.46 -6.15,-5.33 -7.54,-6.76 -15.35,-13.75 -25.05,-14.1l-0.05,1.38c9.2,0.33 16.81,7.15 24.18,13.75 2.74,2.45 5.49,4.84 8.37,7.01h0a19.8,19.8 0,0 0,-9.42 -0.1l0.32,1.35a18.11,18.11 0,0 1,9.26 0.16c-1.51,0.6 -2.19,1.46 -2.34,2.3a2.66,2.66 0,0 0,0.53 2.18,2.31 2.31,0 0,0 3.26,0.26 1.82,1.82 0,0 0,0.37 -2.31,1.49 1.49,0 0,0 -1.84,-0.67 0.57,0.57 0,0 0,-0.34 0.75,0.61 0.61,0 0,0 0.77,0.35h0a0.28,0.28 0,0 1,0.38 0.15,0.63 0.63,0 0,1 -0.12,0.82 1.1,1.1 0,0 1,-1.57 -0.09,1.86 1.86,0 0,1 -0.27,-1.19c0,-0.53 1.17,-2.93 5.38,-0.91 3.99,1.91 7.84,3.73 12.25,3.73 4.43,0 9.3,-0.87 12.9,-4.06Z"
        id="path_206" />
    <path fill="#2e4154"
        d="M910.44,31.1c1.99,-1.71 5.22,-3.37 10.38,-3.7a5.27,5.27 0,0 1,2.5 0.35,2.48 2.48,0 0,1 1.32,1.7 1.64,1.64 0,0 1,-0.26 1.41,1.53 1.53,0 0,1 -1.05,0.65 1.06,1.06 0,0 1,-1.11 -1.07,0.68 0.68,0 0,1 0.52,-0.66 0.27,0.27 0,0 1,0.36 0.17,0.58 0.58,0 0,0 0.77,0.3 0.6,0.6 0,0 0,0.33 -0.78,1.41 1.41,0 0,0 -1.71,-0.85 1.91,1.91 0,0 0,-1.46 1.89,2.2 2.2,0 0,0 2.35,2.17 2.62,2.62 0,0 0,2.49 -2.56,4.17 4.17,0 0,0 -0.94,-2.63 24.66,24.66 0,0 1,9.42 3.51,18.77 18.77,0 0,1 7.11,9.79l1.32,-0.4a20.85,20.85 0,0 0,-2.27 -4.94c2.06,1.69 4.07,3.46 6.16,5.33 7.54,6.76 15.35,13.75 25.05,14.1l0.05,-1.38c-9.2,-0.33 -16.82,-7.16 -24.18,-13.75 -2.74,-2.45 -5.49,-4.84 -8.37,-7.01h0a19.79,19.79 0,0 0,9.42 0.1l-0.32,-1.34a18.13,18.13 0,0 1,-9.26 -0.16c1.51,-0.61 2.19,-1.46 2.35,-2.31a2.66,2.66 0,0 0,-0.54 -2.17,2.31 2.31,0 0,0 -3.26,-0.26 1.82,1.82 0,0 0,-0.37 2.31,1.49 1.49,0 0,0 1.84,0.67 0.57,0.57 0,0 0,0.34 -0.75,0.6 0.6,0 0,0 -0.77,-0.35h0a0.29,0.29 0,0 1,-0.39 -0.15,0.64 0.64,0 0,1 0.13,-0.81 1.1,1.1 0,0 1,1.57 0.09,1.88 1.88,0 0,1 0.27,1.19c0,0.53 -1.17,2.93 -5.38,0.91 -3.99,-1.92 -7.84,-3.73 -12.25,-3.73 -4.43,0 -9.29,0.87 -12.9,4.06Z"
        id="path_207" />
    <path fill="#2e4154"
        d="M910.44,77.78c1.99,1.72 5.22,3.37 10.38,3.7a5.23,5.23 0,0 0,2.5 -0.35,2.48 2.48,0 0,0 1.32,-1.7 1.64,1.64 0,0 0,-0.26 -1.41,1.52 1.52,0 0,0 -1.05,-0.65 1.06,1.06 0,0 0,-1.11 1.07,0.68 0.68,0 0,0 0.52,0.66 0.27,0.27 0,0 0,0.36 -0.17,0.58 0.58,0 0,1 0.77,-0.3 0.6,0.6 0,0 1,0.33 0.78,1.42 1.42,0 0,1 -1.71,0.85 1.91,1.91 0,0 1,-1.46 -1.89,2.2 2.2,0 0,1 2.35,-2.18 2.62,2.62 0,0 1,2.49 2.56,4.17 4.17,0 0,1 -0.94,2.63 24.66,24.66 0,0 0,9.42 -3.51,18.77 18.77,0 0,0 7.11,-9.79l1.32,0.4a20.86,20.86 0,0 1,-2.27 4.94c2.06,-1.69 4.07,-3.46 6.16,-5.33 7.54,-6.76 15.35,-13.75 25.05,-14.1l0.05,1.38c-9.2,0.33 -16.82,7.15 -24.18,13.75 -2.74,2.45 -5.49,4.84 -8.37,7.01h0a19.8,19.8 0,0 1,9.42 -0.1l-0.32,1.35a18.11,18.11 0,0 0,-9.26 0.16c1.51,0.6 2.19,1.46 2.35,2.3a2.67,2.67 0,0 1,-0.54 2.18,2.31 2.31,0 0,1 -3.26,0.26 1.82,1.82 0,0 1,-0.37 -2.31,1.49 1.49,0 0,1 1.84,-0.67 0.57,0.57 0,0 1,0.34 0.75,0.6 0.6,0 0,1 -0.77,0.35h0a0.28,0.28 0,0 0,-0.39 0.15,0.64 0.64,0 0,0 0.13,0.82 1.1,1.1 0,0 0,1.57 -0.09,1.88 1.88,0 0,0 0.27,-1.19c0,-0.53 -1.17,-2.93 -5.38,-0.91 -3.99,1.91 -7.84,3.73 -12.25,3.73 -4.43,0 -9.29,-0.87 -12.9,-4.06Z"
        id="path_208" />
    <path fill="#c2d2ff"
        d="M906.83,28.92s3.59,0.81 4.7,6.07c0,0 10.05,-0.86 10.05,6.91 0,1.73 -3.07,2.22 -4.24,3.8 -1.57,2.1 2.45,4.38 4.69,2.57 1.59,-1.29 2.35,-5.41 5.8,-5.41s7.3,2.19 6.82,6.82c0,0 5.85,0.98 8.26,4.96 -2.42,3.98 -8.26,4.97 -8.26,4.97 0.48,4.64 -3.35,6.82 -6.82,6.82s-4.22,-4.12 -5.8,-5.41c-2.23,-1.81 -6.26,0.46 -4.69,2.56 1.17,1.57 4.24,2.07 4.24,3.8 0,7.77 -10.05,6.91 -10.05,6.91 -1.11,5.27 -4.7,5.04 -4.7,5.04s-3.59,0.23 -4.7,-5.04c0,0 -10.05,0.86 -10.05,-6.91 0,-1.73 3.08,-2.23 4.25,-3.8 1.56,-2.1 -2.46,-4.37 -4.69,-2.56 -1.59,1.29 -2.35,5.41 -5.81,5.41s-7.29,-2.19 -6.81,-6.82c0,0 -5.84,-0.98 -8.27,-4.97 2.42,-3.98 8.27,-4.96 8.27,-4.96 -0.48,-4.64 3.35,-6.82 6.81,-6.82s4.22,4.12 5.81,5.41c2.23,1.81 6.25,-0.46 4.69,-2.57 -1.17,-1.57 -4.25,-2.07 -4.25,-3.8 0,-7.77 10.05,-6.91 10.05,-6.91C903.24,29.73 906.83,28.92 906.83,28.92Z"
        stroke-width="0.75" stroke="#2e4155" id="path_209" />
    <path fill="#2e4154"
        d="M866.63,54.9s-1.15,5.07 -4.55,6.4c0,0 -0.86,-3.07 0.29,-5.14a4.64,4.64 0,0 1,-5.82 -1.52,4.59 4.59,0 0,1 6.16,-1.35c-1.15,-2.07 -0.64,-5.31 -0.64,-5.31C866.75,50.75 866.63,54.9 866.63,54.9Z"
        id="path_210" />
    <path fill="#2e4154"
        d="M868.01,51.19c0,-1 0,-1.57 -1,-1.57s-0.84,0.56 -0.84,1.57v6.73c0,1 -0.17,1.56 0.84,1.56s1,-0.56 1,-1.56Z"
        id="path_211" />
    <path fill="#2e4154"
        d="M947.02,54.9s1.15,5.07 4.55,6.4c0,0 0.86,-3.07 -0.29,-5.14a4.64,4.64 0,0 0,5.82 -1.52,4.59 4.59,0 0,0 -6.16,-1.35c1.15,-2.07 0.64,-5.31 0.64,-5.31C946.91,50.75 947.02,54.9 947.02,54.9Z"
        id="path_212" />
    <path fill="#2e4154"
        d="M945.64,51.19c0,-1 0,-1.57 1,-1.57s0.84,0.56 0.84,1.57v6.73c0,1 0.17,1.56 -0.84,1.56s-1,-0.56 -1,-1.56Z"
        id="path_213" />
    <path fill="#2e4154"
        d="M913.99,46.82c6.84,-6.65 4.02,-10.7 4.02,-10.7s4.13,1.73 3.57,5.78c-0.3,2.19 -21.97,20.72 -21.97,20.72 -6.84,6.65 -3.96,10.53 -3.96,10.53a6.66,6.66 0,0 1,-3.58 -5.78C892.07,66.6 913.99,46.82 913.99,46.82Z"
        id="path_214" />
    <path fill="#2e4154"
        d="M913.99,62.45c6.84,6.65 4.02,10.7 4.02,10.7s4.13,-1.73 3.57,-5.78c-0.3,-2.19 -21.92,-20.55 -21.92,-20.55 -6.84,-6.65 -4.02,-10.7 -4.02,-10.7s-4.13,1.73 -3.58,5.78C892.38,44.09 913.99,62.45 913.99,62.45Z"
        id="path_215" />
    <path fill="#2e4154"
        d="M890.46,53.39c23.82,-4.64 11.67,-18.39 11.67,-18.39l0.67,-1.73s13.23,16.6 -12.34,21.35Z"
        id="path_216" />
    <path fill="#2e4154"
        d="M923.21,53.39c-25.22,-4.64 -9.94,-20.51 -11.67,-18.39l-0.67,-1.73s-13.23,16.6 12.34,21.35Z"
        id="path_217" />
    <path fill="#2e4154"
        d="M923.21,55.89c-23.75,4.67 -11.67,18.39 -11.67,18.39l-0.67,1.73s-13.23,-16.6 12.34,-21.35Z"
        id="path_218" />
    <path fill="#2e4154"
        d="M890.45,55.89c23.75,4.67 11.67,18.39 11.67,18.39l0.67,1.73s13.23,-16.6 -12.34,-21.35Z"
        id="path_219" />
    <path fill="#0d6a60"
        d="M864.96,31.72s-2.57,5.37 -5.23,3.42c0,0 -3.24,0.09 -2.66,-2.95 0,0 -1.92,-0.52 -1.17,-2.83 0.39,-2.4 3.03,-2.41 3.03,-2.41 0.88,-2.97 3.53,-0.76 3.53,-0.76 3.25,-0.52 2.51,5.53 2.51,5.53"
        stroke-width="0.5" stroke="#2e4154" id="path_220" />
    <path fill="#0d6a60"
        d="M864.96,77.16s-2.57,-5.37 -5.23,-3.42c0,0 -3.24,-0.09 -2.66,2.95 0,0 -1.92,0.52 -1.17,2.83 0.39,2.4 3.03,2.41 3.03,2.41 0.88,2.97 3.53,0.76 3.53,0.76 3.25,0.52 2.51,-5.53 2.51,-5.53"
        stroke-width="0.5" stroke="#2e4154" id="path_221" />
    <path fill="#0d6a60"
        d="M948.7,31.72s2.57,5.37 5.22,3.42c0,0 3.24,0.09 2.66,-2.95 0,0 1.92,-0.52 1.18,-2.83 -0.39,-2.4 -3.03,-2.41 -3.03,-2.41 -0.87,-2.97 -3.53,-0.76 -3.53,-0.76 -3.26,-0.52 -2.5,5.53 -2.5,5.53"
        stroke-width="0.5" stroke="#2e4154" id="path_222" />
    <path fill="#0d6a60"
        d="M948.7,77.16s2.57,-5.37 5.22,-3.42c0,0 3.24,-0.09 2.66,2.95 0,0 1.92,0.52 1.18,2.83 -0.39,2.4 -3.03,2.41 -3.03,2.41 -0.87,2.97 -3.53,0.76 -3.53,0.76 -3.26,0.52 -2.5,-5.53 -2.5,-5.53"
        stroke-width="0.5" stroke="#2e4154" id="path_223" />
    <path fill="#2e4154"
        d="M868.98,32.75a8.68,8.68 0,0 1,-7.89 3.61,6.44 6.44,0 0,1 3.12,-3.38s-1.62,0.44 -4.63,-2.5c4.33,-1.48 5.39,-0.21 5.39,-0.21 -1.86,-2.48 -1.28,-4.32 -1.28,-4.32A8.6,8.6 0,0 1,868.98 32.75Z"
        id="path_224" />
    <path fill="#2e4154"
        d="M868.98,76.13a8.67,8.67 0,0 0,-7.89 -3.61,6.44 6.44,0 0,0 3.12,3.38s-1.62,-0.44 -4.63,2.5c4.33,1.48 5.39,0.21 5.39,0.21 -1.86,2.47 -1.28,4.31 -1.28,4.31A8.61,8.61 0,0 0,868.98 76.13Z"
        id="path_225" />
    <path fill="#2e4154"
        d="M944.67,32.75a8.68,8.68 0,0 0,7.89 3.61,6.43 6.43,0 0,0 -3.13,-3.38s1.62,0.44 4.63,-2.5c-4.33,-1.48 -5.39,-0.21 -5.39,-0.21 1.86,-2.48 1.28,-4.32 1.28,-4.32A8.59,8.59 0,0 0,944.67 32.75Z"
        id="path_226" />
    <path fill="#2e4154"
        d="M944.67,76.13a8.67,8.67 0,0 1,7.89 -3.61,6.43 6.43,0 0,1 -3.13,3.38s1.62,-0.44 4.63,2.5c-4.33,1.48 -5.39,0.21 -5.39,0.21 1.86,2.47 1.28,4.31 1.28,4.31A8.6,8.6 0,0 1,944.67 76.13Z"
        id="path_227" />
    <path fill="#0d6a60"
        d="M871.4,39.68s-2.33,-0.24 -3.54,2.57l1.34,-0.39a6.07,6.07 0,0 0,-1.75 4.23l1.06,-1.36s-1.17,3.63 0.26,4.99a4.17,4.17 0,0 0,2.31 -3.38l0.24,1.5s1.49,-1.72 1.1,-2.96l0.39,1.25s1.27,-2.14 0.26,-3.72l1.06,1.05a5.29,5.29 0,0 0,-1.5 -3.55C871.69,39.02 871.4,39.68 871.4,39.68Z"
        stroke-width="0.5" stroke="#2e4154" id="path_228" />
    <path fill="#0d6a60"
        d="M871.4,69.2s-2.33,0.25 -3.54,-2.57l1.34,0.39a6.07,6.07 0,0 1,-1.75 -4.24l1.06,1.36s-1.17,-3.63 0.26,-4.99a4.17,4.17 0,0 1,2.31 3.37l0.24,-1.5s1.49,1.72 1.1,2.96l0.39,-1.25s1.27,2.14 0.26,3.72l1.06,-1.05a5.3,5.3 0,0 1,-1.5 3.55C871.69,69.86 871.4,69.2 871.4,69.2Z"
        stroke-width="0.5" stroke="#2e4154" id="path_229" />
    <path fill="#0d6a60"
        d="M942.26,39.68s2.33,-0.24 3.54,2.57l-1.35,-0.39a6.06,6.06 0,0 1,1.76 4.23l-1.06,-1.36s1.17,3.63 -0.26,4.99a4.17,4.17 0,0 1,-2.32 -3.38l-0.23,1.5s-1.49,-1.72 -1.1,-2.96l-0.39,1.25s-1.27,-2.14 -0.27,-3.72l-1.06,1.05a5.29,5.29 0,0 1,1.5 -3.55C941.96,39.02 942.26,39.68 942.26,39.68Z"
        stroke-width="0.5" stroke="#2e4154" id="path_230" />
    <path fill="#0d6a60"
        d="M942.26,69.2s2.33,0.25 3.54,-2.57l-1.35,0.39a6.07,6.07 0,0 0,1.76 -4.24l-1.06,1.36s1.17,-3.63 -0.26,-4.99a4.17,4.17 0,0 0,-2.32 3.37l-0.23,-1.5s-1.49,1.72 -1.1,2.96l-0.39,-1.25s-1.27,2.14 -0.27,3.72l-1.06,-1.05a5.3,5.3 0,0 0,1.5 3.55C941.96,69.86 942.26,69.2 942.26,69.2Z"
        stroke-width="0.5" stroke="#2e4154" id="path_231" />
    <path fill="#2e4154"
        d="M846.89,54.65c-3.45,0.46 -5.76,3.88 -5.76,3.88 2.07,2.54 8.06,1.15 8.06,1.15 -2.53,1.61 -2.53,6.68 -2.53,6.68 5.3,0.23 6.45,-3.68 6.45,-3.68 -0.92,2.53 1.61,6.45 1.61,6.45 -0.46,-2.76 11.05,-14.49 11.05,-14.49s-11.51,-11.73 -11.05,-14.49c0,0 -2.53,3.91 -1.61,6.45 0,0 -1.15,-3.91 -6.45,-3.68 0,0 0,5.06 2.53,6.68 0,0 -5.99,-1.38 -8.06,1.15 0,0 2.3,3.42 5.76,3.88"
        id="path_232" />
    <path fill="#2e4154"
        d="M966.77,54.65c3.46,0.46 5.76,3.88 5.76,3.88 -2.07,2.54 -8.06,1.15 -8.06,1.15 2.54,1.61 2.54,6.68 2.54,6.68 -5.3,0.23 -6.45,-3.68 -6.45,-3.68 0.92,2.53 -1.61,6.45 -1.61,6.45 0.46,-2.76 -11.05,-14.49 -11.05,-14.49s11.51,-11.73 11.05,-14.49c0,0 2.54,3.91 1.61,6.45 0,0 1.15,-3.91 6.45,-3.68 0,0 0,5.06 -2.54,6.68 0,0 5.99,-1.38 8.06,1.15 0,0 -2.3,3.42 -5.76,3.88"
        id="path_233" />
    <path fill="#c2d2ff"
        d="M890.59,51.88c0,-0.81 0,-1.26 -1.04,-1.26s-0.87,0.45 -0.87,1.26v5.41c0,0.8 -0.17,1.26 0.87,1.26s1.04,-0.46 1.04,-1.26Z"
        stroke-width="0.5" stroke="#2e4154" id="path_234" />
    <path fill="#c2d2ff"
        d="M909.68,45.68c0.8,0 1.26,0 1.26,-1.05s-0.46,-0.87 -1.26,-0.87h-5.41c-0.81,0 -1.26,-0.17 -1.26,0.87s0.45,1.05 1.26,1.05Z"
        stroke-width="0.5" stroke="#2e4154" id="path_235" />
    <path fill="#c2d2ff"
        d="M922.91,51.88c0,-0.81 0,-1.26 1.04,-1.26s0.87,0.45 0.87,1.26v5.41c0,0.8 0.17,1.26 -0.87,1.26s-1.04,-0.46 -1.04,-1.26Z"
        stroke-width="0.5" stroke="#2e4154" id="path_236" />
    <path fill="#c2d2ff"
        d="M909.68,63.48c0.8,0 1.26,0 1.26,1.04s-0.46,0.87 -1.26,0.87h-5.41c-0.81,0 -1.26,0.17 -1.26,-0.87s0.45,-1.04 1.26,-1.04Z"
        stroke-width="0.5" stroke="#2e4154" id="path_237" />
    <path fill="#0d6a60"
        d="M888.68,53.49c-2.65,-4.13 -7.48,-2.42 -7.48,-2.42 0.26,1.66 3.31,2.42 3.31,2.42a6.2,6.2 0,0 0,-5.91 1.09,6.21 6.21,0 0,0 5.91,1.09s-3.05,0.75 -3.31,2.42c0,0 4.83,1.72 7.48,-2.42Z"
        stroke-width="0.5" stroke="#2e4154" id="path_238" />
    <path fill="#0d6a60"
        d="M908.06,43.76c4.14,-2.65 2.42,-7.48 2.42,-7.48 -1.66,0.27 -2.42,3.31 -2.42,3.31a3.06,3.06 0,1 0,-2.17 0s-0.76,-3.04 -2.42,-3.31c0,0 -1.72,4.83 2.42,7.48Z"
        stroke-width="0.5" stroke="#2e4154" id="path_239" />
    <path fill="#0d6a60"
        d="M908.06,65.39c4.14,2.65 2.42,7.48 2.42,7.48 -1.66,-0.26 -2.42,-3.31 -2.42,-3.31a3.06,3.06 0,1 1,-2.17 0s-0.76,3.05 -2.42,3.31c0,0 -1.72,-4.83 2.42,-7.48Z"
        stroke-width="0.5" stroke="#2e4154" id="path_240" />
    <path fill="#0d6a60"
        d="M924.98,53.49c2.65,-4.13 7.48,-2.42 7.48,-2.42 -0.26,1.66 -3.3,2.42 -3.3,2.42a6.21,6.21 0,0 1,5.91 1.09,6.21 6.21,0 0,1 -5.91,1.09s3.05,0.75 3.3,2.42c0,0 -4.83,1.72 -7.48,-2.42Z"
        stroke-width="0.5" stroke="#2e4154" id="path_241" />
    <path fill="#c2d2ff"
        d="M860.59,54.64s-1.96,5.74 -4.72,5.28c0,0 -4.14,2.3 -4.37,-1.61 0,0 -4.61,-0.21 -2.53,-3.67 -2.07,-3.45 2.53,-3.67 2.53,-3.67 0.23,-3.92 4.37,-1.61 4.37,-1.61C858.63,48.9 860.59,54.64 860.59,54.64Z"
        stroke-width="0.5" stroke="#2e4154" id="path_242" />
    <path fill="#c2d2ff"
        d="M953.07,54.64s1.96,5.74 4.72,5.28c0,0 4.14,2.3 4.37,-1.61 0,0 4.6,-0.21 2.53,-3.67 2.07,-3.45 -2.53,-3.67 -2.53,-3.67 -0.23,-3.92 -4.37,-1.61 -4.37,-1.61C955.03,48.9 953.07,54.64 953.07,54.64Z"
        stroke-width="0.5" stroke="#2e4154" id="path_243" />
    <path fill="#c2d2ff" d="M842.97,49.36s-2.07,-4.38 3.69,-5.07l2.53,5.3Z" stroke-width="0.5"
        stroke="#2e4154" id="path_244" />
    <path fill="#c2d2ff"
        d="M853.11,46.59s-0.23,-3.68 0.69,-5.07 -5.3,-1.98 -5.3,1.15C848.5,44.06 853.11,46.59 853.11,46.59Z"
        stroke-width="0.5" stroke="#2e4154" id="path_245" />
    <path fill="#c2d2ff" d="M842.97,59.92s-2.07,4.37 3.69,5.07l2.53,-5.3Z" stroke-width="0.5"
        stroke="#2e4154" id="path_246" />
    <path fill="#c2d2ff"
        d="M853.11,62.68s-0.23,3.68 0.69,5.07 -5.3,1.98 -5.3,-1.15C848.5,65.21 853.11,62.68 853.11,62.68Z"
        stroke-width="0.5" stroke="#2e4154" id="path_247" />
    <path fill="#c2d2ff"
        d="M847.81,54.64l-4.49,2.89c-1.38,-0.46 -3.8,-1.05 -4.49,-2.89 0.69,-1.84 3.28,-2.26 4.66,-2.72Z"
        stroke-width="0.5" stroke="#2e4154" id="path_248" />
    <path fill="#c2d2ff" d="M970.68,49.36s2.07,-4.38 -3.68,-5.07l-2.54,5.3Z" stroke-width="0.5"
        stroke="#2e4154" id="path_249" />
    <path fill="#c2d2ff"
        d="M960.55,46.59s0.23,-3.68 -0.69,-5.07 5.3,-1.98 5.3,1.15C965.16,44.06 960.55,46.59 960.55,46.59Z"
        stroke-width="0.5" stroke="#2e4154" id="path_250" />
    <path fill="#c2d2ff" d="M970.68,59.92s2.07,4.37 -3.68,5.07l-2.54,-5.3Z" stroke-width="0.5"
        stroke="#2e4154" id="path_251" />
    <path fill="#c2d2ff"
        d="M960.55,62.68s0.23,3.68 -0.69,5.07 5.3,1.98 5.3,-1.15C965.16,65.21 960.55,62.68 960.55,62.68Z"
        stroke-width="0.5" stroke="#2e4154" id="path_252" />
    <path fill="#c2d2ff"
        d="M965.85,54.64l4.49,2.89c1.38,-0.46 3.8,-1.05 4.49,-2.89 -0.69,-1.84 -3.28,-2.26 -4.66,-2.72Z"
        stroke-width="0.5" stroke="#2e4154" id="path_253" />
    <path fill="#c2d2ff"
        d="M1052.97,22.96c-0.71,0 -4.77,0.94 -5.16,7.59 0,0 -9.71,-1.08 -9.71,8.63 0,2.16 2.97,2.78 4.1,4.74 1.51,2.63 -2.37,5.47 -4.53,3.2 -1.53,-1.61 -2.26,-6.76 -5.61,-6.76s-7.05,2.73 -6.58,8.52c0,0 -5.65,1.23 -7.98,6.2 2.34,4.98 7.98,6.2 7.98,6.2 -0.47,5.79 3.24,8.52 6.58,8.52s4.08,-5.15 5.61,-6.76c2.16,-2.26 6.04,0.58 4.53,3.2 -1.13,1.97 -4.1,2.59 -4.1,4.75 0,9.71 9.71,8.63 9.71,8.63 1.08,6.58 5.25,5.8 5.25,5.8"
        stroke-width="0.5" stroke="#485c6d" id="path_254" />
    <path fill="#2e4154"
        d="M1036.1,53.53c21.31,-5.4 11.75,-22.76 11.75,-22.76l0.42,-2.22s12.53,20.59 -12.17,26.53Z"
        id="path_255" />
    <path fill="#2e4154"
        d="M1036.1,56.66c21.31,5.39 11.85,22.69 11.85,22.69l0.57,2.37s12.29,-20.67 -12.42,-26.61Z"
        id="path_256" />
    <path fill="#c2d2ff"
        d="M1036.39,51.65c0,-1.01 0,-1.58 -1.07,-1.58s-0.89,0.57 -0.89,1.58v6.76c0,1 -0.18,1.58 0.89,1.58s1.07,-0.57 1.07,-1.58Z"
        stroke-width="0.5" stroke="#2e4154" id="path_257" />
    <path fill="#0d6a60"
        d="M1034.36,53.61c-2.56,-5.16 -7.23,-3.02 -7.23,-3.02 0.25,2.08 3.19,3.02 3.19,3.02a5.09,5.09 0,0 0,-5.72 1.36,5.09 5.09,0 0,0 5.72,1.36s-2.94,0.94 -3.19,3.02c0,0 4.66,2.15 7.23,-3.02Z"
        stroke-width="0.5" stroke="#2e4154" id="path_258" />
    <path fill="#2e4154"
        d="M1052.45,41.83c-5.17,-2.56 -4.41,-7.23 -4.41,-7.23 2.08,0.26 3.03,3.19 3.03,3.19a5.08,5.08 0,0 1,1.36 -5.71Z"
        stroke-width="0.5" stroke="#e7e2de" id="path_259" />
    <path fill="#2e4154"
        d="M1052.47,69.15c-5.17,2.56 -4.5,7.2 -4.5,7.2 2.08,-0.25 3.03,-3.19 3.03,-3.19a5.18,5.18 0,0 0,1.41 5.78Z"
        stroke-width="0.5" stroke="#e7e2de" id="path_260" />
    <path fill="#c2d2ff" d="M10.16,85.96m-1.55,0a1.55,1.55 0,1 1,3.1 0a1.55,1.55 0,1 1,-3.1 0"
        stroke-width="0.5" stroke="#485c6d" id="path_261" />
    <path fill="#c2d2ff" d="M10.34,22.6m-1.55,0a1.55,1.55 0,1 1,3.1 0a1.55,1.55 0,1 1,-3.1 0"
        stroke-width="0.5" stroke="#485c6d" id="path_262" />
    <path fill="#c2d2ff" d="M1051.24,85.96m-1.55,0a1.55,1.55 0,1 1,3.1 0a1.55,1.55 0,1 1,-3.1 0"
        stroke-width="0.5" stroke="#485c6d" id="path_263" />
    <path fill="#c2d2ff" d="M1051.42,22.6m-1.55,0a1.55,1.55 0,1 1,3.1 0a1.55,1.55 0,1 1,-3.1 0"
        stroke-width="0.5" stroke="#485c6d" id="path_264" />
</svg>