<svg width="309" height="98" viewBox="0 0 309 98" fill="none" xmlns="http://www.w3.org/2000/svg">
    <path opacity="0.3" fill-rule="evenodd" clip-rule="evenodd"
        d="M247.246 103.446C247.246 101.04 245.976 99.011 244.21 98.2356C244.21 98.2079 244.216 98.1816 244.216 98.1535C244.216 97.334 243.783 96.6411 243.179 96.3755L242.959 95.5629C243.001 95.4902 243.029 95.406 243.029 95.31C243.029 95.1239 242.935 94.9674 242.806 94.8937L242.668 92.3358C242.668 92.3245 242.658 92.3158 242.65 92.3158C242.638 92.3158 242.627 92.3242 242.627 92.3358L242.49 94.8937C242.359 94.967 242.264 95.1239 242.264 95.31C242.264 95.4063 242.294 95.491 242.338 95.565L242.117 96.3755C241.512 96.6414 241.079 97.3318 241.079 98.1535C241.079 98.1813 241.084 98.2075 241.085 98.2356C239.709 98.8399 238.645 100.207 238.237 101.916V95.4607H238.319C238.52 95.4607 238.681 95.2655 238.681 95.0217V94.7722C238.681 94.5321 238.52 94.3332 238.319 94.3332H237.827C237.85 94.1701 237.862 94.0088 237.862 93.8359C237.862 92.662 237.347 91.6309 236.576 91.0566C236.103 90.7015 235.693 90.2363 235.368 89.6934C235.429 89.6244 235.467 89.5251 235.467 89.4175C235.467 89.265 235.39 89.1303 235.279 89.0741L235.201 87.5891H235.109L235.03 89.0741C234.919 89.1303 234.843 89.265 234.843 89.4175C234.843 89.5251 234.879 89.624 234.941 89.6934C234.619 90.2385 234.21 90.7012 233.731 91.0566C232.961 91.6309 232.447 92.662 232.447 93.8359C232.447 94.0092 232.46 94.1701 232.48 94.3332H232.004C231.803 94.3332 231.64 94.5321 231.64 94.7722V95.0217C231.64 95.2655 231.803 95.4607 232.004 95.4607H232.074V101.617H230.894C231.2 100.923 231.366 100.182 231.366 99.4168C231.366 96.7429 229.351 94.4025 226.331 93.0955C224.365 92.2417 222.691 91.093 221.386 89.7583C221.438 89.6408 221.47 89.5146 221.47 89.3719C221.47 89.0234 221.297 88.7235 221.046 88.5907L220.867 85.2184H220.658L220.479 88.5907C220.228 88.7231 220.052 89.0234 220.052 89.3719C220.052 89.5146 220.088 89.6404 220.137 89.7583C218.943 90.9876 217.45 92.0388 215.685 92.8682C215.64 92.43 215.546 91.9724 215.379 91.5134C215.115 90.7672 214.58 90.0882 213.972 89.4737C213.383 88.8815 212.721 88.3768 212.187 88.0043C212.205 87.9167 212.241 87.7846 212.241 87.6536C212.241 87.4785 212.223 87.2811 212.16 87.0833C212.087 86.8859 211.932 86.6885 211.76 86.5353C211.606 86.3813 211.434 86.2503 211.307 86.162L211.297 85.8336C211.334 85.7902 211.353 85.7679 211.37 85.7019C211.407 85.6585 211.416 85.5921 211.416 85.5271C211.416 85.4607 211.397 85.3947 211.37 85.329C211.344 85.2856 211.316 85.2414 211.271 85.2191L211.262 84.9119C211.279 84.8904 211.307 84.8462 211.316 84.8244C211.344 84.7802 211.353 84.7368 211.353 84.6711C211.353 84.627 211.334 84.5605 211.316 84.5178C211.297 84.4737 211.271 84.4522 211.244 84.4295L211.225 84.1012L211.135 81.7331C211.135 81.6897 211.117 81.6667 211.099 81.6667C211.072 81.6896 211.053 81.7108 211.053 81.7331L210.963 84.1012L210.954 84.4295C210.917 84.4525 210.9 84.4737 210.881 84.5178C210.854 84.5605 210.844 84.627 210.844 84.6711C210.844 84.7368 210.844 84.7802 210.871 84.8244C210.881 84.8466 210.909 84.8908 210.936 84.9119L210.917 85.2191C210.881 85.2414 210.844 85.2856 210.827 85.329C210.79 85.3947 210.772 85.4607 210.772 85.5271C210.772 85.5921 210.79 85.6581 210.817 85.7019C210.836 85.7683 210.863 85.7902 210.899 85.8336L210.881 86.162C210.753 86.2503 210.59 86.3817 210.427 86.5353C210.264 86.6885 210.11 86.8859 210.028 87.0833C209.964 87.2807 209.947 87.4781 209.956 87.6536C209.956 87.7846 209.983 87.9167 210.01 88.0043C209.466 88.3768 208.813 88.8815 208.224 89.4737C207.921 89.7809 207.633 90.1039 207.388 90.4428C205.634 85.2411 201.53 81.513 196.665 81.1832V80.6515C196.665 80.46 196.535 80.3031 196.377 80.3031H196.153L195.968 74.7116C196.482 74.9232 197.038 75.0039 197.609 74.882C198.531 74.6868 199.295 74.0552 199.788 73.1937C199.433 73.4582 199.035 73.6476 198.6 73.7396C196.786 74.1245 195.05 72.6541 194.733 70.4578C194.576 69.3697 194.791 68.3097 195.271 67.4701C194.149 68.3152 193.501 69.9265 193.743 71.6006C193.948 73.0109 194.738 74.1128 195.757 74.6266L195.577 80.3031H195.347C195.272 80.3031 195.202 80.3381 195.149 80.402C195.096 80.4655 195.067 80.5523 195.067 80.6413V81.1945C190.557 81.5886 186.72 84.9053 184.848 89.5919L184.809 82.5336H184.969C185.231 82.5336 185.447 82.272 185.447 81.9607C185.447 81.6488 185.231 81.3912 184.969 81.3912H184.809L184.772 73.4586H184.969C185.2 73.4586 185.394 73.2335 185.394 72.954C185.394 72.7153 185.257 72.5135 185.075 72.4588V70.0835H185.242C185.363 70.0835 185.461 69.9638 185.461 69.8174C185.461 69.6755 185.363 69.5602 185.242 69.5602H185.036C185.158 69.134 185.302 68.3181 185.002 67.4877C184.862 67.102 184.575 66.7356 184.256 66.4146C183.94 66.1029 183.592 65.8366 183.307 65.6443C183.323 65.5895 183.337 65.5253 183.337 65.4469C183.342 65.3505 183.334 65.2495 183.292 65.1499C183.258 65.0393 183.175 64.9382 183.084 64.8554C183.004 64.7777 182.913 64.7134 182.845 64.6678L182.837 64.4883C182.853 64.4704 182.871 64.4471 182.879 64.4241C182.895 64.3927 182.902 64.3606 182.902 64.3285C182.902 64.2906 182.895 64.25 182.876 64.223C182.868 64.1953 182.845 64.1767 182.826 64.1581L182.823 64.0027C182.829 63.9884 182.845 63.9706 182.853 63.9472C182.863 63.9293 182.868 63.9016 182.868 63.8739C182.868 63.8469 182.863 63.8147 182.849 63.7918C182.841 63.7731 182.826 63.7545 182.807 63.7363L182.803 63.571L182.758 62.3155C182.754 62.2968 182.746 62.2877 182.731 62.2877C182.716 62.2877 182.708 62.3012 182.708 62.3155L182.663 63.571L182.656 63.7363C182.641 63.7549 182.625 63.7735 182.618 63.7918C182.602 63.8147 182.595 63.8465 182.595 63.8739C182.595 63.9016 182.602 63.9293 182.614 63.9472C182.622 63.9706 182.633 63.9884 182.648 64.0027L182.641 64.1581C182.618 64.1767 182.603 64.1953 182.587 64.223C182.572 64.25 182.565 64.2909 182.565 64.3285C182.565 64.3606 182.572 64.3927 182.587 64.4241C182.595 64.4471 182.61 64.4704 182.625 64.4883L182.622 64.6678C182.557 64.7134 182.466 64.7777 182.383 64.8554C182.291 64.9382 182.208 65.0393 182.17 65.1499C182.132 65.2495 182.125 65.3509 182.128 65.4469C182.132 65.5253 182.144 65.5895 182.155 65.6443C181.874 65.8366 181.526 66.1033 181.214 66.4146C180.888 66.736 180.608 67.1023 180.464 67.4877C180.16 68.3178 180.312 69.134 180.43 69.5602H180.184C180.069 69.5602 179.971 69.6755 179.971 69.8174C179.971 69.9634 180.069 70.0835 180.184 70.0835H180.366V72.4588C180.18 72.5095 180.04 72.711 180.04 72.954C180.04 73.2335 180.229 73.4586 180.457 73.4586H180.662L180.623 81.3912H180.457C180.198 81.3912 179.987 81.6484 179.987 81.9607C179.987 82.2724 180.198 82.5336 180.457 82.5336H180.615L180.594 87.1432C178.968 82.9977 174.115 83.4422 172.68 86.4441V85.5027H172.747C172.921 85.5027 173.055 85.3403 173.055 85.1455C173.055 84.9189 172.921 84.7565 172.747 84.7565H172.574C172.895 83.9125 173.659 81.1868 172.653 78.4279C172.264 77.3242 171.473 76.3186 170.573 75.4104C169.7 74.5332 168.721 73.7877 167.929 73.2353C167.956 73.1058 168.01 72.9102 168.01 72.7164C168.01 72.4563 167.983 72.1647 167.89 71.8725C167.782 71.5802 167.554 71.2879 167.298 71.0613C167.071 70.834 166.816 70.6388 166.627 70.5089L166.614 70.0229C166.669 69.9579 166.695 69.9251 166.722 69.8276C166.776 69.7627 166.789 69.6653 166.789 69.5689C166.789 69.4704 166.762 69.373 166.722 69.276C166.682 69.211 166.641 69.1457 166.574 69.1136L166.561 68.6589C166.587 68.6268 166.627 68.5619 166.641 68.5294C166.682 68.4644 166.695 68.3999 166.695 68.3028C166.695 68.2379 166.669 68.1397 166.641 68.0755C166.614 68.0105 166.574 67.9784 166.534 67.946L166.507 67.4592L166.373 63.9545C166.373 63.8896 166.346 63.8567 166.32 63.8567C166.279 63.8896 166.251 63.9217 166.251 63.9545L166.118 67.4592L166.105 67.946C166.05 67.9788 166.024 68.0109 165.997 68.0755C165.957 68.1397 165.943 68.2379 165.943 68.3028C165.943 68.3999 165.943 68.4644 165.983 68.5294C165.997 68.5622 166.038 68.6272 166.078 68.6589L166.05 69.1136C165.997 69.1457 165.943 69.2114 165.917 69.276C165.863 69.373 165.836 69.4704 165.836 69.5689C165.836 69.6653 165.863 69.7627 165.903 69.8276C165.93 69.9254 165.971 69.9579 166.025 70.0229L165.997 70.5089C165.809 70.6384 165.568 70.834 165.327 71.0613C165.085 71.2879 164.857 71.5802 164.735 71.8725C164.641 72.1647 164.615 72.4563 164.628 72.7164C164.628 72.9102 164.669 73.1054 164.709 73.2353C163.904 73.7877 162.938 74.5332 162.066 75.4104C161.167 76.3182 160.361 77.3238 159.972 78.4279C158.966 81.1868 159.744 83.9125 160.052 84.7565H159.892C159.717 84.7565 159.583 84.9189 159.583 85.1455C159.583 85.3399 159.717 85.5027 159.892 85.5027H160.039V86.4441H158.591L158.563 69.7306H158.992C159.275 69.7306 159.502 69.4383 159.502 69.1143C159.502 68.7578 159.275 68.498 158.992 68.498H158.563L158.523 59.249H158.671C158.912 59.249 159.127 59.0217 159.127 58.7294C159.127 58.405 158.912 58.1777 158.671 58.1777H158.508L158.483 50.6815H158.671C158.886 50.6815 159.073 50.4546 159.073 50.1948C159.073 49.9674 158.938 49.7726 158.764 49.7408V47.4687H158.926C159.046 47.4687 159.127 47.3709 159.127 47.241C159.127 47.1111 159.046 46.9816 158.926 46.9816H158.738C158.845 46.5919 158.992 45.8136 158.698 45.035C158.563 44.6777 158.294 44.3201 158 44.0286C157.704 43.7042 157.369 43.4765 157.101 43.2821C157.114 43.2499 157.128 43.1846 157.128 43.0872C157.128 43.0223 157.114 42.9259 157.087 42.8274C157.046 42.6979 156.98 42.6008 156.886 42.5355C156.806 42.4709 156.725 42.4063 156.657 42.3735V42.179C156.672 42.179 156.685 42.1469 156.685 42.1137C156.711 42.1137 156.711 42.0812 156.711 42.0487C156.711 42.0166 156.711 41.9834 156.685 41.9513C156.685 41.9189 156.657 41.8864 156.631 41.8864V41.7244C156.657 41.7244 156.657 41.6923 156.672 41.6923C156.685 41.659 156.685 41.6266 156.685 41.5937C156.685 41.5937 156.685 41.5616 156.657 41.5288C156.657 41.497 156.644 41.4971 156.631 41.4971L156.618 41.3347L156.577 40.1338C156.577 40.1338 156.564 40.1014 156.549 40.1014C156.536 40.1014 156.523 40.1338 156.523 40.1338L156.483 41.3347V41.4971C156.47 41.4971 156.443 41.497 156.443 41.5288C156.43 41.5616 156.417 41.5937 156.417 41.5937C156.417 41.6266 156.43 41.659 156.443 41.6923C156.443 41.6923 156.456 41.7244 156.47 41.7244V41.8864C156.443 41.8864 156.43 41.9189 156.417 41.9513C156.402 41.9834 156.389 42.0166 156.389 42.0487C156.389 42.0812 156.402 42.1137 156.417 42.1137C156.417 42.1469 156.443 42.179 156.456 42.179L156.443 42.3735C156.389 42.4063 156.308 42.4713 156.228 42.5355C156.134 42.6008 156.067 42.6975 156.013 42.8274C155.986 42.9259 155.986 43.0223 155.986 43.0872C155.986 43.185 156 43.2499 156.013 43.2821C155.745 43.4765 155.409 43.7042 155.113 44.0286C154.806 44.3201 154.537 44.6774 154.403 45.035C154.122 45.8136 154.27 46.5919 154.377 46.9816H154.148C154.027 46.9816 153.947 47.1108 153.947 47.241C153.947 47.3713 154.027 47.4687 154.148 47.4687H154.31V48.0846C154.31 48.1178 154.31 48.15 154.295 48.1824L154.31 48.247V49.7408C154.135 49.7726 154 49.9674 154 50.1948C154 50.4546 154.188 50.6815 154.403 50.6815H154.592L154.564 58.1777H154.403C154.162 58.1777 153.947 58.405 153.947 58.7294C153.947 59.0217 154.162 59.249 154.403 59.249H154.55L154.51 68.498H154.08C153.8 68.498 153.571 68.7582 153.571 69.1143C153.571 69.4387 153.801 69.7306 154.08 69.7306H154.498L154.484 79.3693H153.719V75.5074H151.974V74.5668H152.042C152.202 74.5668 152.35 74.4037 152.35 74.2092C152.35 73.9826 152.202 73.8202 152.042 73.8202H151.881C152.189 72.9762 152.953 70.2498 151.961 67.4917C151.56 66.3886 150.767 65.3823 149.868 64.4741C148.995 63.5976 148.016 62.8507 147.225 62.299C147.265 62.1688 147.291 61.9746 147.318 61.7473C147.318 61.52 147.291 61.2285 147.183 60.9362C147.077 60.6439 146.849 60.3517 146.594 60.1243C146.366 59.897 146.111 59.7025 145.923 59.5726L145.909 59.0866C145.962 59.0209 146.003 58.9888 146.03 58.8914C146.057 58.8264 146.084 58.729 146.084 58.6312C146.084 58.5334 146.057 58.4367 146.03 58.3397C145.976 58.2747 145.936 58.2102 145.869 58.1773L145.855 57.7234C145.896 57.6906 145.923 57.6256 145.949 57.5931C145.976 57.5282 146.003 57.4636 146.003 57.3658C146.003 57.3016 145.976 57.2042 145.949 57.1385C145.923 57.0743 145.869 57.0414 145.83 57.0093L145.815 56.5226L145.681 53.0179C145.681 52.9522 145.655 52.9201 145.615 52.9201C145.573 52.9522 145.548 52.985 145.548 53.0179L145.413 56.5226L145.4 57.0093C145.359 57.0414 145.319 57.0743 145.292 57.1385C145.252 57.2042 145.238 57.3016 145.238 57.3658C145.238 57.4636 145.252 57.5282 145.279 57.5931C145.307 57.626 145.333 57.6909 145.373 57.7234L145.359 58.1773C145.307 58.2102 145.252 58.2751 145.212 58.3397C145.172 58.4367 145.145 58.5334 145.145 58.6312C145.145 58.729 145.172 58.8264 145.198 58.8914C145.225 58.9892 145.279 59.0209 145.333 59.0866L145.307 59.5726C145.118 59.7021 144.876 59.897 144.634 60.1243C144.392 60.3517 144.151 60.6439 144.045 60.9362C143.937 61.2285 143.91 61.52 143.923 61.7473C143.937 61.9746 143.963 62.1684 144.003 62.299C143.213 62.8507 142.246 63.5976 141.361 64.4741C140.461 65.3819 139.67 66.3883 139.28 67.4917C138.275 70.2498 139.052 72.9762 139.347 73.8202H139.187C139.026 73.8202 138.891 73.9826 138.891 74.2092C138.891 74.4037 139.026 74.5668 139.187 74.5668H139.347V75.5074H137.509V79.3693H136.181V76.4481C136.342 76.3186 136.477 76.1237 136.477 75.8643C136.477 75.507 136.262 75.1823 135.993 75.1181V71.5149H136.249C136.422 71.5149 136.57 71.3211 136.57 71.1266C136.57 70.8986 136.422 70.7377 136.249 70.7377H135.94C136.115 70.0878 136.342 68.8542 135.885 67.5891C135.67 67.0046 135.241 66.4525 134.758 65.9672C134.275 65.4797 133.752 65.09 133.31 64.7985C133.337 64.7335 133.363 64.6033 133.363 64.5055C133.363 64.3446 133.363 64.2139 133.296 64.0516C133.228 63.8899 133.122 63.7272 132.974 63.5976C132.854 63.5006 132.72 63.3703 132.612 63.3054V63.0459C132.639 63.0131 132.665 62.981 132.665 62.9482C132.692 62.9153 132.705 62.8504 132.705 62.8186C132.705 62.7537 132.692 62.6884 132.665 62.657C132.639 62.5913 132.612 62.5592 132.585 62.5592V62.299C132.598 62.299 132.612 62.2669 132.625 62.2341C132.639 62.202 132.652 62.1684 132.652 62.1049C132.652 62.0721 132.639 62.0392 132.625 62.0071C132.612 61.9743 132.585 61.9414 132.557 61.9093V61.6499L132.478 59.7678C132.478 59.7357 132.464 59.7021 132.45 59.7021C132.425 59.7021 132.41 59.7357 132.41 59.7678L132.343 61.6499L132.33 61.9093C132.302 61.9414 132.29 61.9743 132.263 62.0071C132.249 62.0392 132.235 62.0721 132.235 62.1049C132.235 62.1684 132.249 62.202 132.263 62.2341C132.276 62.2669 132.29 62.299 132.316 62.299V62.5592C132.276 62.5592 132.249 62.5913 132.235 62.657C132.209 62.6884 132.182 62.754 132.182 62.8186C132.182 62.8507 132.209 62.9157 132.222 62.9482C132.235 62.981 132.263 63.0131 132.29 63.0459L132.276 63.3054C132.182 63.3703 132.048 63.5006 131.914 63.5976C131.781 63.7272 131.658 63.8899 131.591 64.0516C131.539 64.2139 131.524 64.3767 131.539 64.5055C131.539 64.6033 131.551 64.7335 131.565 64.7985C131.149 65.09 130.625 65.4797 130.143 65.9672C129.659 66.4525 129.23 67.0049 129.015 67.5891C128.558 68.8542 128.773 70.0878 128.961 70.7377H128.585C128.412 70.7377 128.264 70.8986 128.264 71.1266C128.264 71.3211 128.412 71.5149 128.585 71.5149H128.854V75.1181C128.585 75.1823 128.372 75.507 128.372 75.8643C128.372 76.1237 128.492 76.3182 128.64 76.4481V79.3693H128.62V79.2438C127.469 69.5945 122.538 61.5926 110.223 55.6085C103.889 52.5289 100.748 48.3441 99.2103 45.2714C100.685 44.4924 101.716 42.7158 101.716 40.6458C101.716 38.1795 100.253 36.13 98.3198 35.6888L98.2513 33.4627C98.7854 33.1814 99.159 32.5399 99.159 31.7908C99.159 30.995 98.7354 30.3251 98.1469 30.0758L97.9831 24.7343C99.8549 25.2203 101.85 25.1371 103.793 24.3453C106.711 23.154 108.931 20.64 110.176 17.5414C109.137 18.6171 107.919 19.4712 106.545 20.0324C100.793 22.3772 94.5497 18.6368 92.6082 11.6813C91.6462 8.23466 91.9144 4.65407 93.1293 1.63174C89.8202 5.06019 88.3748 10.6911 89.8558 15.9943C91.084 20.4006 94.0439 23.5101 97.5093 24.6055L97.2398 30.0434C96.6077 30.2608 96.1415 30.9567 96.1415 31.7908C96.1415 32.549 96.5247 33.1989 97.0691 33.474L96.9607 35.6523C94.9311 35.9953 93.3677 38.0967 93.3677 40.6458C93.3677 42.8059 94.4917 44.6434 96.0696 45.3641C94.5156 48.4276 91.3737 52.5603 85.1032 55.6085C73.6291 61.1843 68.562 68.5111 66.9938 77.2906V76.4481C67.1413 76.3186 67.2621 76.1237 67.2621 75.8643C67.2621 75.507 67.0484 75.1823 66.7792 75.1181V71.5149H67.0484C67.2219 71.5149 67.3695 71.3211 67.3695 71.1266C67.3695 70.8986 67.2219 70.7377 67.0484 70.7377H66.6727C66.8607 70.0878 67.075 68.8542 66.6187 67.5891C66.4035 67.0046 65.9748 66.4525 65.4904 65.9672C65.0085 65.4797 64.4844 65.09 64.0683 64.7985C64.0821 64.7335 64.0948 64.6033 64.0948 64.5055C64.1093 64.3763 64.0948 64.2139 64.0426 64.0516C63.975 63.8899 63.8531 63.7272 63.7197 63.5976C63.5857 63.5006 63.4515 63.3703 63.3576 63.3054L63.344 63.0459C63.3706 63.0131 63.398 62.981 63.4116 62.9482C63.4246 62.9153 63.4518 62.8504 63.4518 62.8186C63.4518 62.7537 63.4246 62.6884 63.398 62.657C63.3842 62.5913 63.3576 62.5592 63.3175 62.5592V62.299C63.344 62.299 63.3576 62.2669 63.3706 62.2341C63.3842 62.202 63.398 62.1684 63.398 62.1049C63.398 62.0721 63.3842 62.0392 63.3706 62.0071C63.344 61.9743 63.3314 61.9414 63.3039 61.9093L63.2909 61.6499L63.2233 59.7678C63.2233 59.7357 63.2088 59.7021 63.1832 59.7021C63.1696 59.7021 63.1557 59.7357 63.1557 59.7678L63.0764 61.6499V61.9093C63.0489 61.9414 63.0215 61.9743 63.0079 62.0071C62.9943 62.0392 62.9813 62.0721 62.9813 62.1049C62.9813 62.1684 62.9943 62.202 63.0079 62.2341C63.0215 62.2669 63.0353 62.299 63.0489 62.299V62.5592C63.0215 62.5592 62.9943 62.5913 62.9686 62.657C62.9412 62.6884 62.9282 62.754 62.9282 62.8186C62.9282 62.8507 62.9412 62.9157 62.9686 62.9482C62.9686 62.981 62.9943 63.0131 63.0215 63.0459V63.3054C62.914 63.3703 62.7797 63.5006 62.6593 63.5976C62.5118 63.7272 62.405 63.8899 62.3374 64.0516C62.2701 64.2139 62.2701 64.3446 62.2701 64.5055C62.2701 64.6033 62.2963 64.7335 62.3238 64.7985C61.8814 65.09 61.3588 65.4797 60.8751 65.9672C60.3916 66.4525 59.9628 67.0049 59.7486 67.5891C59.2914 68.8542 59.5187 70.0878 59.6937 70.7377H59.3847C59.2115 70.7377 59.0636 70.8986 59.0636 71.1266C59.0636 71.3211 59.2115 71.5149 59.3847 71.5149H59.6403V75.1181C59.372 75.1823 59.1565 75.507 59.1565 75.8643C59.1565 76.1237 59.2914 76.3182 59.452 76.4481V79.3693H58.1239V75.5074H56.2856V74.5668H56.4462C56.6076 74.5668 56.7425 74.4037 56.7425 74.2092C56.7425 73.9826 56.6076 73.8202 56.4462 73.8202H56.2856C56.581 72.9762 57.3587 70.2498 56.3532 67.4917C55.9636 66.3886 55.1727 65.3823 54.2723 64.4741C53.3872 63.5976 52.4204 62.8507 51.6301 62.299C51.6696 62.1688 51.6962 61.9746 51.7098 61.7473C51.7227 61.52 51.6962 61.2285 51.5885 60.9362C51.4816 60.6439 51.2411 60.3517 50.9991 60.1243C50.7574 59.897 50.5151 59.7025 50.3268 59.5726L50.3003 59.0866C50.3543 59.0209 50.408 58.9888 50.4351 58.8914C50.4617 58.8264 50.4883 58.729 50.4883 58.6312C50.4883 58.5334 50.4617 58.4367 50.4216 58.3397C50.3814 58.2747 50.3268 58.2102 50.274 58.1773L50.2601 57.7234C50.3003 57.6906 50.3268 57.6256 50.3543 57.5931C50.3817 57.5282 50.3953 57.4636 50.3953 57.3658C50.3953 57.3016 50.3817 57.2042 50.3407 57.1385C50.3141 57.0743 50.274 57.0414 50.233 57.0093L50.2203 56.5226L50.0854 53.0179C50.0854 52.985 50.0598 52.9522 50.0187 52.9201C49.9786 52.9201 49.952 52.9522 49.952 53.0179L49.8181 56.5226L49.8033 57.0093C49.764 57.0414 49.71 57.0743 49.6838 57.1385C49.6563 57.2042 49.6298 57.3016 49.6298 57.3658C49.6298 57.4636 49.6563 57.5282 49.6838 57.5931C49.71 57.626 49.7375 57.6909 49.7776 57.7234L49.764 58.1773C49.6964 58.2102 49.6566 58.2751 49.6026 58.3397C49.576 58.4367 49.5489 58.5334 49.5489 58.6312C49.5489 58.729 49.576 58.8264 49.6026 58.8914C49.6301 58.9892 49.6711 59.0209 49.7239 59.0866L49.71 59.5726C49.5223 59.7021 49.2667 59.897 49.0395 60.1243C48.7839 60.3517 48.5558 60.6439 48.4493 60.9362C48.3419 61.2285 48.3153 61.52 48.3153 61.7473C48.3419 61.9746 48.3684 62.1684 48.4076 62.299C47.6167 62.8507 46.6378 63.5976 45.7648 64.4741C44.8656 65.3819 44.0738 66.3883 43.6719 67.4917C42.6794 70.2498 43.4437 72.9762 43.7524 73.8202H43.591C43.4305 73.8202 43.2826 73.9826 43.2826 74.2092C43.2826 74.4037 43.4305 74.5668 43.591 74.5668H43.6595V75.5074H41.9144V79.3693H41.1492L41.1353 69.7306H41.5523C41.8326 69.7306 42.062 69.4383 42.062 69.1143C42.062 68.7578 41.8323 68.498 41.5523 68.498H41.1226L41.0825 59.249H41.23C41.4708 59.249 41.6854 59.0217 41.6854 58.7294C41.6854 58.405 41.4708 58.1777 41.23 58.1777H41.0686L41.0411 50.6815H41.23C41.4446 50.6815 41.6323 50.4546 41.6323 50.1948C41.6323 49.9674 41.4974 49.7726 41.3233 49.7408V48.247L41.3378 48.1824C41.3233 48.15 41.3233 48.1178 41.3233 48.0846V47.4687H41.4847C41.6057 47.4687 41.6854 47.3709 41.6854 47.241C41.6854 47.1111 41.6057 46.9816 41.4847 46.9816H41.2557C41.3631 46.5919 41.5104 45.8136 41.23 45.035C41.0961 44.6777 40.8269 44.3201 40.5197 44.0286C40.2234 43.7042 39.8881 43.4765 39.6193 43.2821C39.6331 43.2499 39.6467 43.1846 39.6467 43.0872C39.6467 43.0223 39.6467 42.9259 39.6193 42.8274C39.5655 42.6979 39.4992 42.6008 39.405 42.5355C39.3244 42.4709 39.2436 42.4063 39.1905 42.3735L39.1769 42.179C39.1905 42.179 39.2161 42.1469 39.2161 42.1137C39.2309 42.1137 39.2436 42.0812 39.2436 42.0487C39.2436 42.0166 39.2309 41.9834 39.2161 41.9513C39.2034 41.9189 39.1905 41.8864 39.163 41.8864V41.7244C39.1769 41.7244 39.1905 41.6923 39.1905 41.6923C39.2034 41.659 39.2161 41.6266 39.2161 41.5937C39.2161 41.5937 39.2034 41.5616 39.1905 41.5288C39.1905 41.497 39.163 41.4971 39.1494 41.4971V41.3347L39.1093 40.1338C39.1093 40.1338 39.0963 40.1014 39.0836 40.1014C39.0691 40.1014 39.0562 40.1338 39.0562 40.1338L39.0151 41.3347L39.0016 41.4971C38.9886 41.4971 38.9759 41.497 38.9759 41.5288C38.9484 41.5616 38.9484 41.5937 38.9484 41.5937C38.9484 41.6266 38.9484 41.659 38.9611 41.6923C38.9759 41.6923 38.9759 41.7244 39.0016 41.7244V41.8864C38.9759 41.8864 38.9484 41.9189 38.9484 41.9513C38.9219 41.9834 38.9219 42.0166 38.9219 42.0487C38.9219 42.0812 38.9219 42.1137 38.9484 42.1137C38.9484 42.1469 38.9611 42.179 38.9759 42.179V42.3735C38.9083 42.4063 38.8271 42.4713 38.7469 42.5355C38.6527 42.6008 38.5863 42.6975 38.5462 42.8274C38.5187 42.9259 38.5052 43.0223 38.5052 43.0872C38.5052 43.185 38.5187 43.2499 38.5323 43.2821C38.2641 43.4765 37.9285 43.7042 37.6331 44.0286C37.3383 44.3201 37.0694 44.6774 36.9345 45.035C36.6406 45.8136 36.7879 46.5919 36.8944 46.9816H36.7073C36.5869 46.9816 36.5057 47.1108 36.5057 47.241C36.5057 47.3713 36.5869 47.4687 36.7073 47.4687H36.8687V49.7408C36.6946 49.7726 36.5597 49.9674 36.5597 50.1948C36.5597 50.4546 36.7474 50.6815 36.962 50.6815H37.1497L37.1243 58.1777H36.962C36.7209 58.1777 36.5057 58.405 36.5057 58.7294C36.5057 59.0217 36.7209 59.249 36.962 59.249H37.1095L37.0694 68.498H36.6406C36.3579 68.498 36.1306 68.7582 36.1306 69.1143C36.1306 69.4387 36.3582 69.7306 36.6406 69.7306H37.0694L37.0419 86.4441H35.5941V85.5027H35.7411C35.9161 85.5027 36.0501 85.3403 36.0501 85.1455C36.0501 84.9189 35.9161 84.7565 35.7411 84.7565H35.5814C35.8889 83.9125 36.6672 81.1868 35.6608 78.4279C35.2712 77.3242 34.4658 76.3186 33.5666 75.4104C32.6951 74.5332 31.7292 73.7877 30.9238 73.2353C30.9639 73.1058 31.005 72.9102 31.005 72.7164C31.0177 72.4563 30.9914 72.1647 30.8976 71.8725C30.7762 71.5802 30.5481 71.2879 30.3064 71.0613C30.0647 70.834 29.8236 70.6388 29.6356 70.5089L29.6084 70.0229C29.6622 69.9579 29.7026 69.9251 29.7295 69.8276C29.7699 69.7627 29.797 69.6653 29.797 69.5689C29.797 69.4704 29.7699 69.373 29.7159 69.276C29.6893 69.211 29.6353 69.1457 29.5828 69.1136L29.5553 68.6589C29.5955 68.6268 29.6356 68.5619 29.6495 68.5294C29.6896 68.4644 29.6896 68.3999 29.6896 68.3028C29.6896 68.2379 29.676 68.1397 29.6356 68.0755C29.6084 68.0105 29.5828 67.9784 29.5282 67.946L29.5155 67.4592L29.3815 63.9545C29.3815 63.9217 29.3541 63.8896 29.313 63.8567C29.2865 63.8567 29.2599 63.8896 29.2599 63.9545L29.1259 67.4592L29.0985 67.946C29.0583 67.9788 29.0191 68.0109 28.9917 68.0755C28.9642 68.1397 28.9376 68.2379 28.9376 68.3028C28.9376 68.3999 28.9506 68.4644 28.9917 68.5294C29.0052 68.5622 29.0463 68.6272 29.0719 68.6589L29.0583 69.1136C28.9917 69.1457 28.9509 69.2114 28.9114 69.276C28.8713 69.373 28.8438 69.4704 28.8438 69.5689C28.8438 69.6653 28.8568 69.7627 28.9114 69.8276C28.9379 69.9254 28.9645 69.9579 29.0191 70.0229L29.0052 70.5089C28.8166 70.6384 28.562 70.834 28.3347 71.0613C28.0791 71.2879 27.851 71.5802 27.7427 71.8725C27.6494 72.1647 27.6232 72.4563 27.6232 72.7164C27.6232 72.9102 27.6763 73.1054 27.7038 73.2353C26.9119 73.7877 25.933 74.5332 25.0601 75.4104C24.1605 76.3182 23.3693 77.3238 22.98 78.4279C21.9737 81.1868 22.738 83.9125 23.0594 84.7565H22.8862C22.7118 84.7565 22.5778 84.9189 22.5778 85.1455C22.5778 85.3399 22.7118 85.5027 22.8862 85.5027H22.9529V86.4441C21.5177 83.4422 16.6649 82.9977 15.0387 87.1432L15.0173 82.5336H15.176C15.4343 82.5336 15.6461 82.272 15.6461 81.9607C15.6461 81.6488 15.4346 81.3912 15.176 81.3912H15.0094L14.9714 73.4586H15.176C15.4038 73.4586 15.5933 73.2335 15.5933 72.954C15.5933 72.711 15.4527 72.5092 15.2674 72.4588V70.0835H15.4491C15.5637 70.0835 15.6618 69.9638 15.6618 69.8174C15.6618 69.6755 15.5637 69.5602 15.4491 69.5602H15.2028C15.3208 69.134 15.4726 68.3181 15.169 67.4877C15.0245 67.102 14.7448 66.7356 14.4183 66.4146C14.1072 66.1029 13.758 65.8366 13.478 65.6443C13.4892 65.5895 13.5006 65.5253 13.5046 65.4469C13.5079 65.3505 13.5006 65.2495 13.4626 65.1499C13.4246 65.0393 13.3416 64.9382 13.2499 64.8554C13.1672 64.7777 13.0758 64.7134 13.0112 64.6678L13.0073 64.4883C13.0226 64.4704 13.038 64.4471 13.0456 64.4241C13.0604 64.3927 13.0682 64.3606 13.0682 64.3285C13.0682 64.2906 13.0604 64.25 13.0456 64.223C13.0302 64.1953 13.0148 64.1767 12.9922 64.1581L12.9846 64.0027C12.9997 63.9884 13.0112 63.9706 13.019 63.9472C13.0302 63.9293 13.038 63.9016 13.038 63.8739C13.038 63.8469 13.0305 63.8147 13.0151 63.7918C13.0076 63.7731 12.9925 63.7545 12.9771 63.7363L12.9698 63.571L12.9246 62.3155C12.9246 62.3012 12.917 62.2877 12.9016 62.2877C12.8863 62.2877 12.8787 62.2968 12.8751 62.3155L12.8298 63.571L12.8256 63.7363C12.8069 63.7549 12.7921 63.7735 12.7837 63.7918C12.7695 63.8147 12.7649 63.8465 12.7649 63.8739C12.7649 63.9016 12.7695 63.9293 12.7803 63.9472C12.7876 63.9706 12.803 63.9884 12.8102 64.0027L12.8069 64.1581C12.7879 64.1767 12.7649 64.1953 12.7571 64.223C12.7384 64.25 12.7308 64.2909 12.7308 64.3285C12.7308 64.3606 12.7384 64.3927 12.7538 64.4241C12.761 64.4471 12.7803 64.4704 12.7957 64.4883L12.7879 64.6678C12.7197 64.7134 12.6286 64.7777 12.5492 64.8554C12.4578 64.9382 12.3748 65.0393 12.3407 65.1499C12.2987 65.2495 12.2912 65.3509 12.2954 65.4469C12.2954 65.5253 12.3102 65.5895 12.3256 65.6443C12.0413 65.8366 11.6925 66.1033 11.3772 66.4146C11.0582 66.736 10.7706 67.1023 10.6303 67.4877C10.3307 68.3178 10.4749 69.134 10.5962 69.5602H10.3913C10.27 69.5602 10.1716 69.6755 10.1716 69.8174C10.1716 69.9634 10.2697 70.0835 10.3913 70.0835H10.5579V72.4588C10.3756 72.5135 10.2392 72.7153 10.2392 72.954C10.2392 73.2335 10.4333 73.4586 10.6638 73.4586H10.8609L10.8234 81.3912H10.6638C10.4022 81.3912 10.1861 81.6484 10.1861 81.9607C10.1861 82.2724 10.4022 82.5336 10.6638 82.5336H10.8234L10.7851 89.5919C8.91271 84.9053 5.07616 81.5886 0.565494 81.1945V80.6413C0.565494 80.5523 0.536525 80.4655 0.483717 80.402C0.430608 80.3378 0.360902 80.3031 0.285764 80.3031H0.0546181L0 78.5823V137.369H248.608V105.932V105.091H247.02C247.155 104.567 247.246 104.022 247.246 103.446ZM13.6898 71.5134V72.4442H12.1346V71.5134C12.1346 71.5134 12.127 71.4401 12.1838 71.3481C12.2447 71.2562 12.2182 71.1836 12.1952 71.0916C12.0211 70.5045 12.8214 70.533 12.9161 70.0831C13.007 70.5326 13.8072 70.5042 13.637 71.0916C13.6062 71.1836 13.5833 71.2562 13.644 71.3481C13.7046 71.4401 13.6898 71.5134 13.6898 71.5134ZM38.21 49.5099V47.7913C38.21 47.1389 38.5746 46.5905 39.0685 46.4222C39.5652 46.5905 39.9289 47.1389 39.9289 47.7913V49.4708L39.9295 49.5099H38.21ZM61.5878 73.6826H60.5899V71.0066C60.5899 70.1385 60.7999 69.4102 61.0863 69.1906C61.376 69.4102 61.5878 70.1385 61.5878 71.0066V73.6826ZM61.965 73.6794V71.1551C61.965 70.1973 62.5003 69.3913 63.2257 69.1446C63.9551 69.3913 64.4892 70.1973 64.4892 71.1551V73.6217L64.4901 73.6794H61.965ZM65.9609 73.6907H64.9633V71.007C64.9633 70.1389 65.1733 69.4106 65.463 69.1909C65.7499 69.4106 65.9606 70.1389 65.9606 71.007V73.6907H65.9609ZM130.67 73.6907H129.672V71.007C129.672 70.1389 129.883 69.4106 130.17 69.1909C130.459 69.4106 130.67 70.1389 130.67 71.007V73.6907H130.67ZM133.668 73.6794H131.144L131.145 73.6217V71.1551C131.145 70.1973 131.679 69.3913 132.408 69.1446C133.133 69.3913 133.669 70.1973 133.669 71.1551V73.6794H133.668ZM135.043 73.6826H134.045V71.0066C134.045 70.1385 134.257 69.4102 134.547 69.1906C134.833 69.4102 135.043 70.1385 135.043 71.0066V73.6826ZM157.423 49.5099H155.704L155.705 49.4708V47.7913C155.705 47.1389 156.068 46.5905 156.565 46.4222C157.059 46.5905 157.424 47.1389 157.424 47.7913V49.5099H157.423ZM183.499 71.5134V72.4442H181.943V71.5134C181.943 71.5134 181.929 71.4401 181.989 71.3481C182.05 71.2562 182.027 71.1836 181.996 71.0916C181.826 70.5045 182.626 70.533 182.717 70.0831C182.812 70.5326 183.613 70.5042 183.438 71.0916C183.415 71.1836 183.389 71.2562 183.45 71.3481C183.506 71.4401 183.499 71.5134 183.499 71.5134ZM233.471 101.616H232.473V98.2674C232.473 97.3993 232.684 96.6703 232.971 96.4513C233.26 96.6703 233.471 97.3993 233.471 98.2674L233.471 101.616ZM236.416 101.674H234.503V101.616H233.893V97.9054C233.893 96.9476 234.427 96.1416 235.156 95.8949C235.881 96.1416 236.417 96.9476 236.417 97.9054L236.416 101.674ZM237.844 101.674H236.846V98.2674C236.846 97.3993 237.058 96.6703 237.348 96.4513C237.634 96.6703 237.844 97.3993 237.844 98.2674V101.674Z"
        fill="#001732" fill-opacity="0.06" />
    <path opacity="0.3" fill-rule="evenodd" clip-rule="evenodd"
        d="M0 72.5785V74.5518C0.956571 74.0125 1.69226 72.9507 1.8884 71.6003C2.13101 69.9262 1.48253 68.3149 0.360902 67.4698C0.840395 68.3094 1.05555 69.369 0.898332 70.4574C0.778534 71.2894 0.454145 72.0162 0 72.5785Z"
        fill="#001732" fill-opacity="0.06" />
    <path opacity="0.3" fill-rule="evenodd" clip-rule="evenodd"
        d="M309 55.9917C308.746 55.8632 308.494 55.7348 308.234 55.6082C301.9 52.5286 298.759 48.3437 297.221 45.271C298.696 44.492 299.727 42.7154 299.727 40.6454C299.727 38.1792 298.264 36.1296 296.331 35.6885L296.262 33.4623C296.796 33.181 297.17 32.5395 297.17 31.7904C297.17 30.9946 296.746 30.3247 296.158 30.0755L295.994 24.7339C297.866 25.22 299.861 25.1368 301.803 24.345C304.721 23.1536 306.942 20.6396 308.187 17.541C307.148 18.6167 305.93 19.4709 304.556 20.0321C298.804 22.3768 292.561 18.6364 290.619 11.681C289.657 8.23431 289.925 4.6537 291.14 1.63138C287.831 5.05982 286.386 10.6907 287.867 15.9939C289.095 20.4002 292.055 23.5098 295.52 24.6051L295.25 30.043C294.618 30.2605 294.152 30.9563 294.152 31.7904C294.152 32.5487 294.535 33.1985 295.08 33.4736L294.971 35.652C292.942 35.995 291.378 38.0963 291.378 40.6454C291.378 42.8055 292.503 44.6431 294.08 45.3637C292.526 48.4273 289.384 52.5599 283.114 55.6082C271.64 61.1839 266.573 68.5108 265.004 77.2902V76.4477C265.152 76.3182 265.273 76.1234 265.273 75.8639C265.273 75.5067 265.059 75.182 264.79 75.1177V71.5145H265.059C265.232 71.5145 265.38 71.3208 265.38 71.1263C265.38 70.8982 265.232 70.7373 265.059 70.7373H264.683C264.871 70.0875 265.086 68.8538 264.629 67.5887C264.414 67.0042 263.985 66.4521 263.501 65.9668C263.019 65.4793 262.495 65.0896 262.079 64.7981C262.093 64.7332 262.105 64.6029 262.105 64.5051C262.12 64.3759 262.105 64.2136 262.053 64.0512C261.986 63.8895 261.864 63.7268 261.73 63.5973C261.596 63.5002 261.462 63.37 261.368 63.305L261.355 63.0456C261.381 63.0127 261.409 62.9806 261.422 62.9478C261.435 62.9149 261.462 62.85 261.462 62.8183C261.462 62.7533 261.435 62.688 261.409 62.6566C261.395 62.5909 261.368 62.5588 261.328 62.5588V62.2987C261.355 62.2987 261.368 62.2666 261.381 62.2337C261.395 62.2016 261.409 62.168 261.409 62.1045C261.409 62.0717 261.395 62.0389 261.381 62.0068C261.355 61.9739 261.342 61.9411 261.314 61.909L261.301 61.6495L261.234 59.7675C261.234 59.7354 261.219 59.7018 261.194 59.7018C261.18 59.7018 261.166 59.7354 261.166 59.7675L261.087 61.6495V61.909C261.059 61.9411 261.032 61.9739 261.018 62.0068C261.005 62.0389 260.992 62.0717 260.992 62.1045C260.992 62.168 261.005 62.2016 261.018 62.2337C261.032 62.2666 261.046 62.2987 261.059 62.2987V62.5588C261.032 62.5588 261.005 62.5909 260.979 62.6566C260.952 62.688 260.939 62.7537 260.939 62.8183C260.939 62.8504 260.952 62.9153 260.979 62.9478C260.979 62.9806 261.005 63.0127 261.032 63.0456V63.305C260.925 63.37 260.79 63.5002 260.67 63.5973C260.522 63.7268 260.415 63.8895 260.348 64.0512C260.281 64.2136 260.281 64.3442 260.281 64.5051C260.281 64.6029 260.307 64.7332 260.334 64.7981C259.892 65.0896 259.369 65.4793 258.886 65.9668C258.402 66.4521 257.973 67.0046 257.759 67.5887C257.302 68.8538 257.529 70.0875 257.704 70.7373H257.395C257.222 70.7373 257.074 70.8982 257.074 71.1263C257.074 71.3208 257.222 71.5145 257.395 71.5145H257.651V75.1177C257.383 75.182 257.167 75.5067 257.167 75.8639C257.167 76.1234 257.302 76.3178 257.463 76.4477V79.369H256.134V75.507H254.296V74.5664H254.457C254.618 74.5664 254.753 74.4033 254.753 74.2088C254.753 73.9822 254.618 73.8198 254.457 73.8198H254.296C254.592 72.9759 255.369 70.2495 254.364 67.4913C253.974 66.3883 253.183 65.3819 252.283 64.4737C251.398 63.5973 250.431 62.8504 249.641 62.2987C249.68 62.1684 249.707 61.9743 249.72 61.7469C249.733 61.5196 249.707 61.2281 249.599 60.9358C249.492 60.6436 249.252 60.3513 249.01 60.124C248.768 59.8966 248.526 59.7022 248.337 59.5723L248.311 59.0862C248.365 59.0205 248.419 58.9884 248.446 58.891C248.472 58.8261 248.499 58.7286 248.499 58.6309C248.499 58.5331 248.472 58.4364 248.432 58.3393C248.392 58.2744 248.337 58.2098 248.285 58.1769L248.271 57.723C248.311 57.6902 248.337 57.6252 248.365 57.5928C248.392 57.5278 248.406 57.4632 248.406 57.3654C248.406 57.3012 248.392 57.2038 248.351 57.1381C248.325 57.0739 248.285 57.0411 248.244 57.0089L248.231 56.5222L248.096 53.0175C248.096 52.9847 248.07 52.9518 248.029 52.9197C247.989 52.9197 247.963 52.9518 247.963 53.0175L247.829 56.5222L247.814 57.0089C247.775 57.0411 247.721 57.0739 247.694 57.1381C247.667 57.2038 247.64 57.3012 247.64 57.3654C247.64 57.4632 247.667 57.5278 247.694 57.5928C247.721 57.6256 247.748 57.6906 247.788 57.723L247.775 58.1769C247.707 58.2098 247.667 58.2747 247.613 58.3393C247.587 58.4364 247.559 58.5331 247.559 58.6309C247.559 58.7286 247.587 58.8261 247.613 58.891C247.641 58.9888 247.682 59.0205 247.734 59.0862L247.721 59.5723C247.533 59.7018 247.277 59.8966 247.05 60.124C246.794 60.3513 246.566 60.6436 246.46 60.9358C246.352 61.2281 246.326 61.5196 246.326 61.7469C246.352 61.9743 246.379 62.168 246.418 62.2987C245.627 62.8504 244.648 63.5973 243.775 64.4737C242.876 65.3816 242.084 66.3879 241.682 67.4913C240.69 70.2495 241.454 72.9759 241.763 73.8198H241.602C241.441 73.8198 241.293 73.9822 241.293 74.2088C241.293 74.4033 241.441 74.5664 241.602 74.5664H241.67V75.507H239.925V79.369H239.16L239.146 69.7302H239.563C239.843 69.7302 240.073 69.438 240.073 69.1139C240.073 68.7574 239.843 68.4977 239.563 68.4977H239.133L239.093 59.2486H239.241C239.481 59.2486 239.696 59.0213 239.696 58.729C239.696 58.4046 239.481 58.1773 239.241 58.1773H239.079L239.052 50.6812H239.241C239.455 50.6812 239.643 50.4542 239.643 50.1944C239.643 49.9671 239.508 49.7722 239.334 49.7405V48.2467L239.348 48.1821C239.334 48.1496 239.334 48.1175 239.334 48.0843V47.4684H239.495C239.616 47.4684 239.696 47.3706 239.696 47.2407C239.696 47.1108 239.616 46.9812 239.495 46.9812H239.266C239.374 46.5915 239.521 45.8132 239.241 45.0346C239.107 44.6774 238.837 44.3198 238.53 44.0282C238.234 43.7038 237.899 43.4762 237.63 43.2817C237.644 43.2496 237.657 43.1843 237.657 43.0868C237.657 43.0219 237.657 42.9256 237.63 42.827C237.576 42.6975 237.51 42.6004 237.416 42.5351C237.335 42.4706 237.254 42.406 237.201 42.3731L237.187 42.1786C237.201 42.1786 237.227 42.1465 237.227 42.1133C237.241 42.1133 237.254 42.0809 237.254 42.0484C237.254 42.0163 237.241 41.9831 237.227 41.951C237.214 41.9185 237.201 41.886 237.174 41.886V41.724C237.187 41.724 237.201 41.6919 237.201 41.6919C237.214 41.6587 237.227 41.6262 237.227 41.5934C237.227 41.5934 237.214 41.5613 237.201 41.5284C237.201 41.4967 237.174 41.4967 237.16 41.4967V41.3343L237.12 40.1335C237.12 40.1335 237.107 40.101 237.094 40.101C237.08 40.101 237.067 40.1335 237.067 40.1335L237.026 41.3343L237.012 41.4967C236.999 41.4967 236.986 41.4967 236.986 41.5284C236.959 41.5613 236.959 41.5934 236.959 41.5934C236.959 41.6262 236.959 41.6587 236.972 41.6919C236.986 41.6919 236.986 41.724 237.012 41.724V41.886C236.986 41.886 236.959 41.9185 236.959 41.951C236.932 41.9831 236.932 42.0163 236.932 42.0484C236.932 42.0809 236.932 42.1133 236.959 42.1133C236.959 42.1465 236.972 42.1786 236.986 42.1786V42.3731C236.919 42.406 236.838 42.4709 236.757 42.5351C236.663 42.6004 236.597 42.6971 236.557 42.827C236.529 42.9256 236.516 43.0219 236.516 43.0868C236.516 43.1846 236.529 43.2496 236.543 43.2817C236.275 43.4762 235.939 43.7038 235.644 44.0282C235.349 44.3198 235.08 44.677 234.945 45.0346C234.651 45.8132 234.798 46.5915 234.905 46.9812H234.718C234.597 46.9812 234.516 47.1104 234.516 47.2407C234.516 47.3709 234.597 47.4684 234.718 47.4684H234.879V49.7405C234.705 49.7722 234.57 49.9671 234.57 50.1944C234.57 50.4542 234.758 50.6812 234.973 50.6812H235.16L235.135 58.1773H234.973C234.731 58.1773 234.516 58.4046 234.516 58.729C234.516 59.0213 234.731 59.2486 234.973 59.2486H235.12L235.08 68.4977H234.651C234.368 68.4977 234.141 68.7578 234.141 69.1139C234.141 69.4383 234.369 69.7302 234.651 69.7302H235.08L235.052 86.4437H233.605V85.5023H233.752C233.927 85.5023 234.061 85.3399 234.061 85.1451C234.061 84.9185 233.927 84.7561 233.752 84.7561H233.592C233.899 83.9121 234.678 81.1865 233.671 78.4276C233.282 77.3238 232.476 76.3182 231.577 75.41C230.706 74.5328 229.74 73.7874 228.934 73.2349C228.974 73.1054 229.016 72.9098 229.016 72.7161C229.028 72.4559 229.002 72.1644 228.908 71.8721C228.787 71.5798 228.559 71.2875 228.317 71.061C228.075 70.8336 227.834 70.6384 227.646 70.5085L227.619 70.0225C227.673 69.9576 227.713 69.9247 227.74 69.8273C227.78 69.7623 227.808 69.6649 227.808 69.5686C227.808 69.4701 227.78 69.3726 227.726 69.2756C227.7 69.2106 227.646 69.1453 227.593 69.1132L227.566 68.6586C227.606 68.6265 227.646 68.5615 227.66 68.529C227.7 68.4641 227.7 68.3995 227.7 68.3024C227.7 68.2375 227.687 68.1393 227.646 68.0751C227.619 68.0102 227.593 67.9781 227.539 67.9456L227.526 67.4588L227.392 63.9541C227.392 63.9213 227.365 63.8892 227.324 63.8563C227.297 63.8563 227.27 63.8892 227.27 63.9541L227.136 67.4588L227.109 67.9456C227.069 67.9784 227.03 68.0105 227.002 68.0751C226.975 68.1393 226.948 68.2375 226.948 68.3024C226.948 68.3995 226.961 68.4641 227.002 68.529C227.016 68.5619 227.057 68.6268 227.082 68.6586L227.069 69.1132C227.002 69.1453 226.961 69.211 226.922 69.2756C226.882 69.3726 226.854 69.4701 226.854 69.5686C226.854 69.6649 226.867 69.7623 226.922 69.8273C226.948 69.9251 226.975 69.9576 227.03 70.0225L227.016 70.5085C226.827 70.6381 226.573 70.8336 226.345 71.061C226.09 71.2875 225.862 71.5798 225.753 71.8721C225.66 72.1644 225.634 72.4559 225.634 72.7161C225.634 72.9098 225.687 73.105 225.714 73.2349C224.922 73.7874 223.944 74.5328 223.071 75.41C222.171 76.3178 221.38 77.3234 220.991 78.4276C219.984 81.1865 220.749 83.9121 221.07 84.7561H220.897C220.722 84.7561 220.588 84.9185 220.588 85.1451C220.588 85.3396 220.722 85.5023 220.897 85.5023H220.963V86.4437C219.528 83.4418 214.675 82.9974 213.049 87.1428L213.028 82.5333H213.187C213.445 82.5333 213.657 82.2716 213.657 81.9604C213.657 81.6484 213.445 81.3908 213.187 81.3908H213.02L212.982 73.4582H213.187C213.414 73.4582 213.604 73.2331 213.604 72.9536C213.604 72.7106 213.463 72.5088 213.278 72.4585V70.0831H213.46C213.574 70.0831 213.672 69.9634 213.672 69.8171C213.672 69.6751 213.574 69.5598 213.46 69.5598H213.213C213.331 69.1337 213.483 68.3178 213.18 67.4873C213.035 67.1016 212.755 66.7353 212.429 66.4142C212.118 66.1026 211.769 65.8362 211.489 65.6439C211.5 65.5892 211.511 65.525 211.515 65.4465C211.518 65.3502 211.511 65.2491 211.473 65.1495C211.435 65.0389 211.352 64.9379 211.26 64.855C211.178 64.7773 211.086 64.7131 211.022 64.6675L211.018 64.488C211.033 64.4701 211.049 64.4467 211.056 64.4237C211.071 64.3923 211.079 64.3603 211.079 64.3281C211.079 64.2902 211.071 64.2497 211.056 64.2227C211.041 64.195 211.025 64.1763 211.003 64.1577L210.995 64.0023C211.01 63.9881 211.022 63.9702 211.03 63.9468C211.041 63.929 211.049 63.9012 211.049 63.8735C211.049 63.8465 211.041 63.8144 211.026 63.7914C211.018 63.7728 211.003 63.7542 210.988 63.7359L210.98 63.5707L210.935 62.3151C210.935 62.3008 210.928 62.2873 210.912 62.2873C210.897 62.2873 210.889 62.2965 210.886 62.3151L210.84 63.5707L210.836 63.7359C210.817 63.7546 210.803 63.7732 210.794 63.7914C210.78 63.8144 210.775 63.8461 210.775 63.8735C210.775 63.9012 210.78 63.929 210.791 63.9468C210.798 63.9702 210.814 63.9881 210.821 64.0023L210.817 64.1577C210.798 64.1763 210.775 64.195 210.768 64.2227C210.749 64.2497 210.741 64.2906 210.741 64.3281C210.741 64.3603 210.749 64.3923 210.764 64.4237C210.772 64.4467 210.791 64.4701 210.806 64.488L210.798 64.6675C210.73 64.7131 210.639 64.7773 210.56 64.855C210.468 64.9379 210.385 65.0389 210.351 65.1495C210.309 65.2491 210.302 65.3505 210.306 65.4465C210.306 65.525 210.321 65.5892 210.336 65.6439C210.052 65.8362 209.703 66.1029 209.388 66.4142C209.069 66.7356 208.781 67.102 208.641 67.4873C208.341 68.3174 208.485 69.1337 208.607 69.5598H208.402C208.281 69.5598 208.182 69.6751 208.182 69.8171C208.182 69.963 208.28 70.0831 208.402 70.0831H208.568V72.4585C208.386 72.5132 208.25 72.715 208.25 72.9536C208.25 73.2331 208.444 73.4582 208.674 73.4582H208.871L208.834 81.3908H208.674C208.413 81.3908 208.197 81.648 208.197 81.9604C208.197 82.272 208.413 82.5333 208.674 82.5333H208.834L208.796 89.5916C206.923 84.905 203.087 81.5882 198.576 81.1941V80.641C198.576 80.5519 198.547 80.4651 198.494 80.4016C198.441 80.3374 198.371 80.3027 198.296 80.3027H198.066L197.886 74.6262C198.905 74.1125 199.695 73.0105 199.9 71.6003C200.143 69.9262 199.494 68.3148 198.373 67.4698C198.852 68.3094 199.067 69.369 198.91 70.4574C198.593 72.654 196.857 74.1242 195.043 73.7392C194.609 73.6473 194.211 73.4579 193.856 73.1933C194.349 74.0548 195.113 74.6864 196.034 74.8816C196.606 75.0035 197.161 74.9229 197.675 74.7113L197.491 80.3027H197.266C197.108 80.3027 196.978 80.4596 196.978 80.6512V81.1828C192.114 81.5127 188.009 85.2407 186.255 90.4425C186.01 90.1031 185.723 89.7805 185.419 89.4733C184.83 88.8811 184.178 88.3765 183.633 88.0039C183.66 87.9164 183.688 87.7843 183.688 87.6533C183.696 87.4781 183.679 87.2807 183.616 87.083C183.533 86.8856 183.38 86.6882 183.216 86.5349C183.053 86.3809 182.89 86.2499 182.763 86.1616L182.744 85.8333C182.781 85.7898 182.808 85.7676 182.826 85.7015C182.854 85.6581 182.872 85.5917 182.872 85.5267C182.872 85.4603 182.853 85.3943 182.816 85.3286C182.799 85.2852 182.762 85.2411 182.727 85.2188L182.708 84.9116C182.735 84.89 182.762 84.8459 182.772 84.824C182.799 84.7798 182.799 84.7364 182.799 84.6707C182.799 84.6266 182.789 84.5602 182.762 84.5175C182.744 84.4733 182.727 84.4518 182.689 84.4292L182.681 84.1008L182.59 81.7327C182.59 81.7104 182.572 81.6893 182.544 81.6663C182.526 81.6663 182.509 81.6893 182.509 81.7327L182.418 84.1008L182.399 84.4292C182.372 84.4522 182.346 84.4733 182.327 84.5175C182.309 84.5602 182.291 84.6266 182.291 84.6707C182.291 84.7364 182.3 84.7798 182.327 84.824C182.336 84.8462 182.364 84.8904 182.382 84.9116L182.373 85.2188C182.328 85.2411 182.3 85.2852 182.273 85.3286C182.246 85.3943 182.228 85.4603 182.228 85.5267C182.228 85.5917 182.236 85.6577 182.273 85.7015C182.291 85.7679 182.309 85.7898 182.346 85.8333L182.337 86.1616C182.209 86.2499 182.037 86.3813 181.884 86.5349C181.711 86.6882 181.557 86.8856 181.484 87.083C181.421 87.2804 181.402 87.4778 181.402 87.6533C181.402 87.7843 181.438 87.9164 181.457 88.0039C180.922 88.3765 180.261 88.8811 179.671 89.4733C179.063 90.0878 178.528 90.7668 178.265 91.513C178.097 91.972 178.003 92.4296 177.958 92.8678C176.193 92.0385 174.701 90.9872 173.506 89.7579C173.556 89.6404 173.591 89.5142 173.591 89.3715C173.591 89.0231 173.416 88.7231 173.164 88.5903L172.986 85.2181H172.777L172.597 88.5903C172.346 88.7228 172.173 89.0231 172.173 89.3715C172.173 89.5142 172.206 89.6401 172.257 89.7579C170.953 91.0927 169.278 92.2417 167.312 93.0952C164.293 94.4022 162.278 96.7425 162.278 99.4164C162.278 100.182 162.444 100.923 162.75 101.616H161.569V95.4603H161.639C161.84 95.4603 162.003 95.2651 162.003 95.0214V94.7718C162.003 94.5317 161.84 94.3328 161.639 94.3328H161.164C161.183 94.1697 161.197 94.0085 161.197 93.8355C161.197 92.6617 160.683 91.6305 159.912 91.0562C159.433 90.7004 159.025 90.2381 158.703 89.693C158.764 89.624 158.8 89.5248 158.8 89.4171C158.8 89.2646 158.725 89.13 158.614 89.0738L158.534 87.5887H158.443L158.364 89.0738C158.253 89.13 158.177 89.2646 158.177 89.4171C158.177 89.5248 158.214 89.6237 158.275 89.693C157.95 90.2359 157.54 90.7015 157.067 91.0562C156.296 91.6305 155.781 92.6617 155.781 93.8355C155.781 94.0088 155.794 94.1697 155.817 94.3328H155.324C155.124 94.3328 154.962 94.5317 154.962 94.7718V95.0214C154.962 95.2651 155.124 95.4603 155.324 95.4603H155.407V101.915C154.998 100.207 153.934 98.8395 152.558 98.2353C152.56 98.2075 152.565 98.1813 152.565 98.1532C152.565 97.3314 152.131 96.6407 151.527 96.3751L151.306 95.5647C151.349 95.4906 151.379 95.4056 151.379 95.3096C151.379 95.1235 151.285 94.967 151.154 94.8933L151.016 92.3355C151.016 92.3241 151.005 92.3154 150.993 92.3154C150.986 92.3154 150.975 92.3238 150.975 92.3355L150.838 94.8933C150.708 94.9666 150.614 95.1235 150.614 95.3096C150.614 95.4059 150.643 95.4899 150.684 95.5625L150.464 96.3751C149.86 96.6411 149.428 97.3336 149.428 98.1532C149.428 98.1809 149.433 98.2072 149.433 98.2353C147.667 99.0106 146.397 101.04 146.397 103.445C146.397 104.021 146.489 104.567 146.624 105.091H145.036V105.932H144.874V137.369H309V55.9917ZM156.798 101.674H155.8V98.2674C155.8 97.3993 156.01 96.6703 156.297 96.4513C156.586 96.6703 156.798 97.3993 156.798 98.2674V101.674ZM159.752 101.616H159.141V101.674H157.228V97.9054C157.228 96.9476 157.763 96.1416 158.489 95.8949C159.218 96.1416 159.752 96.9476 159.752 97.9054L159.752 101.616ZM161.171 101.616H160.174V98.2674C160.174 97.3993 160.384 96.6703 160.673 96.4513C160.96 96.6703 161.171 97.3993 161.171 98.2674V101.616H161.171ZM211.701 71.5134V72.4442H210.146V71.5134C210.146 71.5134 210.138 71.4401 210.195 71.3481C210.256 71.2562 210.229 71.1836 210.206 71.0916C210.032 70.5045 210.833 70.533 210.927 70.0831C211.018 70.5326 211.818 70.5042 211.648 71.0916C211.617 71.1836 211.594 71.2562 211.655 71.3481C211.716 71.4401 211.701 71.5134 211.701 71.5134ZM236.221 49.5099V47.7913C236.221 47.1389 236.586 46.5905 237.08 46.4222C237.577 46.5905 237.94 47.1389 237.94 47.7913V49.4708L237.941 49.5099H236.221ZM259.599 73.6826H258.601V71.0066C258.601 70.1385 258.811 69.4102 259.098 69.1906C259.387 69.4102 259.599 70.1385 259.599 71.0066V73.6826ZM259.976 73.6794V71.1551C259.976 70.1973 260.512 69.3913 261.237 69.1446C261.967 69.3913 262.501 70.1973 262.501 71.1551V73.6217L262.502 73.6794H259.976ZM263.972 73.6907H262.975V71.007C262.975 70.1389 263.185 69.4106 263.474 69.1909C263.761 69.4106 263.972 70.1389 263.972 71.007V73.6907H263.972Z"
        fill="#001732" fill-opacity="0.06" />
    <path fill-rule="evenodd" clip-rule="evenodd"
        d="M307.374 105.947C307.513 105.41 307.606 104.852 307.606 104.261C307.606 101.798 306.306 99.72 304.497 98.9256C304.497 98.8979 304.503 98.8705 304.503 98.8421C304.503 98.0028 304.06 97.2935 303.442 97.0217L303.217 96.1897C303.259 96.1153 303.288 96.0292 303.288 95.931C303.288 95.7402 303.192 95.5793 303.059 95.5041L302.918 92.8853C302.918 92.8733 302.907 92.8645 302.899 92.8645C302.887 92.8645 302.876 92.8729 302.876 92.8853L302.735 95.5041C302.601 95.5793 302.504 95.7398 302.504 95.931C302.504 96.0292 302.535 96.116 302.579 96.1919L302.353 97.0217C301.734 97.2935 301.29 98.001 301.29 98.8421C301.29 98.8705 301.295 98.8979 301.297 98.9256C299.887 99.5445 298.798 100.946 298.38 102.695V96.0839H298.464C298.67 96.0839 298.835 95.884 298.835 95.6344V95.3793C298.835 95.133 298.67 94.9305 298.464 94.9305H297.96C297.983 94.7634 297.997 94.5985 297.997 94.4208C297.997 93.2192 297.469 92.1629 296.679 91.5747C296.195 91.2109 295.775 90.7344 295.442 90.1787C295.504 90.1079 295.543 90.0068 295.543 89.8966C295.543 89.7401 295.465 89.6021 295.351 89.5441L295.271 88.0237H295.177L295.096 89.5441C294.982 89.6021 294.905 89.7401 294.905 89.8966C294.905 90.0072 294.941 90.1079 295.004 90.1787C294.675 90.7366 294.256 91.2102 293.766 91.5747C292.977 92.1625 292.45 93.2192 292.45 94.4208C292.45 94.5985 292.464 94.7634 292.484 94.9305H291.997C291.791 94.9305 291.624 95.1334 291.624 95.3793V95.6344C291.624 95.8843 291.792 96.0839 291.997 96.0839H292.069V102.388H290.86C291.173 101.678 291.343 100.919 291.343 100.135C291.343 97.3971 289.28 95.0002 286.188 93.6618C284.175 92.7876 282.46 91.6112 281.125 90.2443C281.177 90.1239 281.211 89.9944 281.211 89.8492C281.211 89.4919 281.033 89.1851 280.776 89.0493L280.593 85.5957H280.379L280.196 89.0493C279.939 89.1851 279.758 89.4919 279.758 89.8492C279.758 89.9944 279.795 90.1239 279.846 90.2443C278.623 91.5028 277.094 92.5796 275.287 93.4294C275.241 92.9806 275.145 92.5117 274.973 92.0414C274.703 91.2773 274.156 90.5819 273.533 89.9524C272.93 89.3467 272.252 88.8293 271.704 88.448C271.723 88.3582 271.76 88.2236 271.76 88.0893C271.76 87.9094 271.742 87.7069 271.678 87.5055C271.603 87.303 271.445 87.1009 271.268 86.944C271.111 86.786 270.934 86.6517 270.804 86.5616L270.794 86.2251C270.832 86.1806 270.851 86.1576 270.869 86.0901C270.907 86.046 270.915 85.9774 270.915 85.911C270.915 85.8435 270.896 85.7756 270.869 85.7077C270.842 85.6636 270.813 85.6183 270.767 85.5957L270.758 85.2812C270.776 85.2593 270.804 85.2144 270.814 85.1914C270.842 85.1462 270.851 85.102 270.851 85.0342C270.851 84.9893 270.832 84.9214 270.814 84.878C270.794 84.832 270.767 84.8101 270.74 84.7868L270.721 84.4503L270.628 82.0253C270.628 81.9812 270.61 81.9578 270.592 81.9578C270.563 81.9808 270.544 82.0031 270.544 82.0253L270.452 84.4503L270.443 84.7868C270.405 84.8101 270.387 84.832 270.369 84.878C270.341 84.9214 270.33 84.9893 270.33 85.0342C270.33 85.102 270.33 85.1462 270.358 85.1914C270.369 85.2144 270.396 85.2597 270.424 85.2812L270.405 85.5957C270.369 85.6183 270.331 85.6636 270.313 85.7077C270.275 85.7756 270.256 85.8435 270.256 85.911C270.256 85.9777 270.275 86.046 270.303 86.0901C270.322 86.158 270.35 86.1806 270.387 86.2251L270.369 86.5616C270.238 86.6517 270.071 86.786 269.904 86.944C269.736 87.1009 269.579 87.303 269.495 87.5055C269.43 87.7069 269.412 87.9091 269.421 88.0893C269.421 88.2236 269.449 88.3582 269.477 88.448C268.92 88.8293 268.251 89.3467 267.648 89.9524C267.337 90.2673 267.043 90.5983 266.792 90.9453C264.995 85.6183 260.793 81.8009 255.811 81.4634V80.9194C255.811 80.7227 255.678 80.5621 255.516 80.5621H255.286L255.097 74.8368C255.622 75.0535 256.193 75.1356 256.777 75.0112C257.72 74.8109 258.503 74.165 259.008 73.282C258.645 73.5531 258.237 73.7472 257.792 73.8414C255.934 74.2351 254.156 72.7296 253.832 70.4804C253.671 69.3664 253.892 68.2813 254.382 67.4213C253.234 68.2868 252.57 69.9368 252.818 71.651C253.028 73.0952 253.837 74.2238 254.881 74.7499L254.696 80.5625H254.461C254.385 80.5625 254.312 80.5986 254.258 80.6636C254.203 80.7289 254.174 80.8179 254.174 80.9088V81.4758C249.555 81.8794 245.627 85.2757 243.709 90.0747L243.669 82.8467H243.833C244.101 82.8467 244.322 82.5785 244.322 82.2603C244.322 81.9403 244.101 81.6769 243.833 81.6769H243.669L243.631 73.5535H243.833C244.07 73.5535 244.268 73.3222 244.268 73.0368C244.268 72.7923 244.128 72.5858 243.942 72.5289V70.097H244.112C244.237 70.097 244.337 69.974 244.337 69.8251C244.337 69.6795 244.237 69.5609 244.112 69.5609H243.902C244.027 69.1249 244.175 68.2893 243.868 67.4388C243.724 67.0443 243.429 66.6692 243.103 66.3398C242.78 66.0208 242.423 65.7483 242.132 65.5509C242.147 65.495 242.163 65.429 242.163 65.3487C242.167 65.2502 242.159 65.1462 242.116 65.0444C242.081 64.9309 241.996 64.8277 241.903 64.7434C241.821 64.6635 241.728 64.5978 241.658 64.5511L241.65 64.3675C241.666 64.3489 241.685 64.3252 241.693 64.3015C241.709 64.269 241.717 64.2369 241.717 64.2037C241.717 64.165 241.709 64.1235 241.689 64.0954C241.682 64.0669 241.658 64.0479 241.639 64.0293L241.635 63.8698C241.642 63.8549 241.658 63.8366 241.666 63.8126C241.677 63.7947 241.682 63.7659 241.682 63.7381C241.682 63.71 241.677 63.6772 241.663 63.6542C241.654 63.6349 241.639 63.6163 241.62 63.5969L241.615 63.4276L241.569 62.1418C241.565 62.1232 241.558 62.114 241.542 62.114C241.526 62.114 241.518 62.1275 241.518 62.1418L241.472 63.4276L241.465 63.5969C241.449 63.6166 241.433 63.6349 241.426 63.6542C241.41 63.6772 241.402 63.71 241.402 63.7381C241.402 63.7659 241.41 63.7947 241.421 63.8126C241.429 63.8366 241.441 63.8549 241.457 63.8698L241.449 64.0293C241.426 64.0479 241.41 64.0669 241.394 64.0954C241.379 64.1235 241.371 64.1647 241.371 64.2037C241.371 64.2369 241.379 64.269 241.394 64.3015C241.402 64.3249 241.417 64.3489 241.433 64.3675L241.429 64.5511C241.363 64.5978 241.27 64.6638 241.185 64.7434C241.091 64.8277 241.006 64.9313 240.967 65.0444C240.928 65.1462 240.921 65.2502 240.924 65.3487C240.928 65.429 240.94 65.4947 240.951 65.5509C240.664 65.7483 240.306 66.0208 239.988 66.3398C239.654 66.6689 239.367 67.0443 239.219 67.4388C238.908 68.2893 239.064 69.1249 239.185 69.5609H238.932C238.815 69.5609 238.715 69.6792 238.715 69.8251C238.715 69.974 238.815 70.097 238.932 70.097H239.118V72.5289C238.928 72.5814 238.785 72.788 238.785 73.0368C238.785 73.3222 238.979 73.5535 239.212 73.5535H239.421L239.382 81.6769H239.212C238.947 81.6769 238.73 81.9403 238.73 82.2603C238.73 82.5785 238.947 82.8467 239.212 82.8467H239.374L239.353 87.5672C237.687 83.3218 232.718 83.7771 231.248 86.8513V85.8873H231.317C231.496 85.8873 231.632 85.7209 231.632 85.5213C231.632 85.2888 231.496 85.1225 231.317 85.1225H231.14C231.468 84.2588 232.251 81.4671 231.22 78.6422C230.822 77.5117 230.012 76.4817 229.09 75.552C228.196 74.6533 227.194 73.8903 226.384 73.3247C226.411 73.1919 226.466 72.9919 226.466 72.7938C226.466 72.5271 226.438 72.2286 226.343 71.9298C226.232 71.6306 225.998 71.3314 225.737 71.0993C225.504 70.8665 225.243 70.6665 225.05 70.5337L225.036 70.0364C225.093 69.9692 225.119 69.936 225.147 69.8361C225.202 69.7693 225.215 69.6697 225.215 69.5704C225.215 69.4701 225.188 69.3705 225.147 69.2708C225.106 69.2048 225.064 69.1377 224.996 69.1045L224.982 68.6392C225.008 68.606 225.05 68.5404 225.064 68.5064C225.106 68.4397 225.119 68.374 225.119 68.274C225.119 68.2079 225.092 68.1069 225.064 68.0416C225.036 67.9748 224.995 67.9419 224.955 67.9087L224.927 67.4107L224.789 63.8213C224.789 63.7545 224.762 63.721 224.735 63.721C224.693 63.7549 224.665 63.7881 224.665 63.8213L224.528 67.4107L224.514 67.9087C224.458 67.9419 224.433 67.9752 224.405 68.0416C224.363 68.1069 224.349 68.2079 224.349 68.274C224.349 68.3736 224.349 68.4397 224.39 68.5064C224.405 68.5404 224.446 68.606 224.487 68.6392L224.458 69.1045C224.405 69.1377 224.349 69.2048 224.322 69.2708C224.267 69.3705 224.239 69.4701 224.239 69.5704C224.239 69.6693 224.267 69.7693 224.308 69.8361C224.336 69.9357 224.377 69.9692 224.433 70.0364L224.405 70.5337C224.212 70.6665 223.965 70.8665 223.718 71.0993C223.471 71.3317 223.237 71.6306 223.113 71.9298C223.016 72.2286 222.99 72.5271 223.002 72.7938C223.002 72.9919 223.045 73.1919 223.086 73.3247C222.261 73.8906 221.271 74.6536 220.379 75.552C219.458 76.4817 218.633 77.5117 218.234 78.6422C217.204 81.4671 218.001 84.2588 218.316 85.1225H218.152C217.973 85.1225 217.835 85.2888 217.835 85.5213C217.835 85.7209 217.973 85.8873 218.152 85.8873H218.303V86.8513H216.82L216.792 69.7357H217.231C217.521 69.7357 217.753 69.4369 217.753 69.1048C217.753 68.7403 217.521 68.474 217.231 68.474H216.792L216.751 59.0027H216.902C217.149 59.0027 217.369 58.7695 217.369 58.4703C217.369 58.1383 217.149 57.9058 216.902 57.9058H216.736L216.71 50.2291H216.902C217.122 50.2291 217.314 49.9966 217.314 49.7306C217.314 49.4978 217.176 49.2982 216.997 49.2658V46.9393H217.163C217.286 46.9393 217.369 46.8393 217.369 46.7061C217.369 46.5729 217.286 46.4405 217.163 46.4405H216.971C217.08 46.0413 217.231 45.2444 216.93 44.4471C216.792 44.0811 216.517 43.7152 216.215 43.4167C215.912 43.0847 215.568 42.8515 215.294 42.6523C215.308 42.6191 215.321 42.5527 215.321 42.4523C215.321 42.3859 215.307 42.2874 215.279 42.1863C215.238 42.0535 215.17 41.9542 215.074 41.8875C214.992 41.8214 214.908 41.7554 214.839 41.7215V41.5222C214.854 41.5222 214.868 41.4894 214.868 41.4555C214.895 41.4555 214.895 41.4222 214.895 41.3887C214.895 41.3558 214.895 41.3219 214.868 41.2894C214.868 41.2562 214.839 41.223 214.813 41.223V41.057C214.839 41.057 214.839 41.0242 214.854 41.0242C214.868 40.9902 214.868 40.957 214.868 40.9235C214.868 40.9235 214.868 40.8906 214.839 40.8567C214.839 40.8242 214.826 40.8242 214.813 40.8242L214.799 40.6578L214.757 39.4282C214.757 39.4282 214.744 39.395 214.729 39.395C214.716 39.395 214.702 39.4282 214.702 39.4282L214.661 40.6578V40.8242C214.647 40.8242 214.62 40.8242 214.62 40.8567C214.606 40.8906 214.593 40.9235 214.593 40.9235C214.593 40.957 214.606 40.9902 214.62 41.0242C214.62 41.0242 214.633 41.057 214.647 41.057V41.223C214.62 41.223 214.606 41.2562 214.593 41.2894C214.578 41.3223 214.565 41.3562 214.565 41.3887C214.565 41.4222 214.578 41.4555 214.593 41.4555C214.593 41.4894 214.62 41.5222 214.633 41.5222L214.62 41.7215C214.565 41.7554 214.482 41.8214 214.4 41.8875C214.303 41.9546 214.235 42.0535 214.18 42.1863C214.152 42.287 214.152 42.3859 214.152 42.4523C214.152 42.5523 214.166 42.6191 214.18 42.6523C213.905 42.8515 213.561 43.0847 213.258 43.4167C212.943 43.7152 212.667 44.0811 212.53 44.4471C212.243 45.2444 212.394 46.0413 212.504 46.4405H212.27C212.145 46.4405 212.064 46.5729 212.064 46.7061C212.064 46.8393 212.145 46.9393 212.27 46.9393H212.435V47.5702C212.435 47.6041 212.435 47.6369 212.42 47.6701L212.435 47.7362V49.2658C212.257 49.2982 212.119 49.4978 212.119 49.7306C212.119 49.9966 212.311 50.2291 212.53 50.2291H212.724L212.696 57.9058H212.53C212.284 57.9058 212.064 58.1383 212.064 58.4703C212.064 58.7695 212.284 59.0027 212.53 59.0027H212.681L212.64 68.474H212.2C211.914 68.474 211.678 68.7403 211.678 69.1048C211.678 69.4369 211.914 69.7357 212.2 69.7357H212.628L212.613 79.6065H211.829V75.6516H210.042V74.6883H210.112C210.277 74.6883 210.428 74.5212 210.428 74.3216C210.428 74.0899 210.277 73.9235 210.112 73.9235H209.947C210.262 73.0594 211.045 70.267 210.029 67.4424C209.618 66.3127 208.807 65.2827 207.886 64.3526C206.992 63.4554 205.99 62.6898 205.179 62.1254C205.22 61.9918 205.247 61.7933 205.274 61.5602C205.274 61.3277 205.247 61.0292 205.136 60.7297C205.027 60.4305 204.794 60.1313 204.532 59.8992C204.299 59.666 204.038 59.4664 203.846 59.334L203.832 58.8363C203.886 58.7688 203.928 58.7367 203.956 58.636C203.983 58.5699 204.011 58.4696 204.011 58.37C204.011 58.2696 203.983 58.1704 203.956 58.0715C203.9 58.0047 203.86 57.939 203.791 57.9051L203.777 57.4406C203.818 57.4067 203.846 57.3403 203.872 57.3063C203.9 57.2403 203.928 57.1739 203.928 57.0739C203.928 57.0079 203.9 56.9082 203.872 56.8407C203.845 56.7754 203.791 56.7419 203.75 56.709L203.735 56.2106L203.598 52.6216C203.598 52.5548 203.571 52.522 203.53 52.522C203.487 52.5552 203.461 52.5884 203.461 52.6216L203.323 56.2106L203.31 56.709C203.267 56.7419 203.227 56.7758 203.199 56.8407C203.158 56.9082 203.144 57.0079 203.144 57.0739C203.144 57.1735 203.158 57.2403 203.186 57.3063C203.214 57.3403 203.241 57.4067 203.282 57.4406L203.267 57.9051C203.214 57.939 203.158 58.0047 203.117 58.0715C203.075 58.1704 203.048 58.2696 203.048 58.37C203.048 58.4692 203.075 58.5699 203.103 58.636C203.13 58.7363 203.185 58.7688 203.241 58.8363L203.214 59.334C203.021 59.4664 202.772 59.666 202.525 59.8992C202.278 60.1316 202.031 60.4305 201.922 60.7297C201.811 61.0292 201.784 61.3281 201.797 61.5602C201.811 61.7933 201.838 61.9918 201.879 62.1254C201.069 62.6898 200.08 63.4554 199.173 64.3526C198.251 65.2827 197.442 66.3127 197.042 67.4424C196.013 70.267 196.809 73.0594 197.111 73.9235H196.947C196.782 73.9235 196.643 74.0899 196.643 74.3216C196.643 74.5212 196.782 74.6883 196.947 74.6883H197.111V75.6516H195.229V79.6065H193.869V76.6152C194.034 76.4824 194.172 76.2832 194.172 76.0175C194.172 75.6516 193.952 75.3188 193.677 75.2535V71.5634H193.938C194.115 71.5634 194.267 71.3646 194.267 71.1661C194.267 70.9322 194.115 70.7672 193.938 70.7672H193.622C193.801 70.1017 194.033 68.8385 193.566 67.5431C193.346 66.944 192.906 66.3792 192.412 65.8818C191.916 65.3827 191.381 64.9831 190.928 64.685C190.956 64.6186 190.983 64.4847 190.983 64.3851C190.983 64.2201 190.983 64.087 190.914 63.9206C190.845 63.7549 190.735 63.5885 190.585 63.4561C190.461 63.3565 190.324 63.2225 190.213 63.1569V62.8909C190.241 62.8569 190.268 62.8245 190.268 62.7913C190.296 62.7573 190.309 62.6909 190.309 62.6585C190.309 62.5917 190.296 62.5245 190.268 62.4928C190.241 62.4253 190.213 62.3928 190.186 62.3928V62.1268C190.2 62.1268 190.214 62.0936 190.228 62.06C190.242 62.0276 190.255 61.9929 190.255 61.9279C190.255 61.8944 190.242 61.8612 190.228 61.8283C190.214 61.7948 190.186 61.7608 190.158 61.7284V61.4627L190.077 59.5354C190.077 59.5026 190.062 59.4679 190.048 59.4679C190.022 59.4679 190.007 59.5026 190.007 59.5354L189.938 61.4627L189.925 61.7284C189.896 61.7612 189.884 61.7951 189.857 61.8283C189.843 61.8615 189.828 61.8947 189.828 61.9279C189.828 61.9933 189.843 62.0276 189.857 62.06C189.87 62.0936 189.884 62.1268 189.911 62.1268V62.3928C189.87 62.3928 189.843 62.4256 189.829 62.4928C189.801 62.5245 189.773 62.5917 189.773 62.6585C189.773 62.6909 189.801 62.7573 189.814 62.7913C189.829 62.8248 189.857 62.8573 189.884 62.8909L189.87 63.1569C189.773 63.2229 189.636 63.3565 189.499 63.4561C189.363 63.5885 189.238 63.7549 189.168 63.9206C189.115 64.087 189.1 64.2533 189.115 64.3851C189.115 64.4847 189.127 64.6189 189.142 64.685C188.716 64.9831 188.179 65.3827 187.686 65.8818C187.189 66.3788 186.75 66.944 186.53 67.5431C186.063 68.8385 186.283 70.1017 186.475 70.7672H186.09C185.913 70.7672 185.761 70.9322 185.761 71.1661C185.761 71.3646 185.913 71.5634 186.09 71.5634H186.366V75.2535C186.09 75.3188 185.871 75.6516 185.871 76.0175C185.871 76.2832 185.995 76.482 186.146 76.6152V79.6065H186.125V79.4781C184.948 69.5967 179.897 61.4029 167.286 55.2747C160.8 52.121 157.584 47.8354 156.009 44.6891C157.519 43.8911 158.575 42.0721 158.575 39.9525C158.575 37.4268 157.077 35.328 155.097 34.8763L155.027 32.5965C155.574 32.3086 155.957 31.6514 155.957 30.8844C155.957 30.0696 155.523 29.3837 154.92 29.1282L154.753 23.6586C156.669 24.1563 158.712 24.0713 160.701 23.2602C163.689 22.04 165.964 19.4658 167.238 16.2924C166.174 17.394 164.928 18.269 163.52 18.8433C157.63 21.2442 151.237 17.414 149.248 10.2915C148.263 6.76164 148.538 3.0953 149.782 0C146.393 3.5109 144.913 9.27715 146.43 14.7081C147.688 19.2206 150.719 22.4045 154.267 23.5262L153.992 29.095C153.344 29.3176 152.867 30.0302 152.867 30.8844C152.867 31.6609 153.259 32.3264 153.817 32.6081L153.706 34.8387C151.627 35.1901 150.026 37.3418 150.026 39.9521C150.026 42.1641 151.177 44.0458 152.793 44.7835C151.202 47.9212 147.984 52.1527 141.563 55.2743C129.813 60.984 124.624 68.4867 123.019 77.4774V76.6148C123.169 76.482 123.293 76.2828 123.293 76.0172C123.293 75.6512 123.074 75.3184 122.799 75.2531V71.563H123.074C123.252 71.563 123.403 71.3642 123.403 71.1657C123.403 70.9318 123.252 70.7669 123.074 70.7669H122.689C122.882 70.1013 123.101 68.8381 122.634 67.5428C122.414 66.9436 121.975 66.3788 121.479 65.8814C120.985 65.3823 120.449 64.9827 120.022 64.6846C120.037 64.6182 120.05 64.4843 120.05 64.3847C120.064 64.253 120.05 64.0866 119.996 63.9202C119.927 63.7545 119.802 63.5882 119.665 63.4557C119.528 63.3561 119.391 63.2222 119.295 63.1565L119.281 62.8905C119.308 62.8566 119.336 62.8241 119.35 62.7909C119.363 62.757 119.391 62.6905 119.391 62.6581C119.391 62.5913 119.363 62.5242 119.336 62.4924C119.322 62.4249 119.295 62.3924 119.254 62.3924V62.1264C119.281 62.1264 119.295 62.0932 119.308 62.0597C119.322 62.0272 119.336 61.9925 119.336 61.9276C119.336 61.894 119.322 61.8608 119.308 61.828C119.281 61.7944 119.268 61.7605 119.24 61.728L119.226 61.4624L119.157 59.5351C119.157 59.5022 119.143 59.4675 119.116 59.4675C119.102 59.4675 119.088 59.5022 119.088 59.5351L119.007 61.4624V61.728C118.979 61.7608 118.951 61.7948 118.937 61.828C118.923 61.8612 118.91 61.8944 118.91 61.9276C118.91 61.9929 118.923 62.0272 118.937 62.0597C118.951 62.0932 118.965 62.1264 118.979 62.1264V62.3924C118.951 62.3924 118.923 62.4253 118.897 62.4924C118.869 62.5242 118.856 62.5913 118.856 62.6581C118.856 62.6905 118.869 62.757 118.897 62.7909C118.897 62.8245 118.923 62.8569 118.951 62.8905V63.1565C118.841 63.2226 118.703 63.3561 118.58 63.4557C118.429 63.5882 118.32 63.7545 118.25 63.9202C118.181 64.0866 118.181 64.2198 118.181 64.3847C118.181 64.4843 118.208 64.6186 118.236 64.6846C117.783 64.9827 117.248 65.3823 116.753 65.8814C116.258 66.3784 115.819 66.9436 115.599 67.5428C115.131 68.8381 115.364 70.1013 115.543 70.7669H115.227C115.049 70.7669 114.898 70.9318 114.898 71.1657C114.898 71.3642 115.049 71.563 115.227 71.563H115.488V75.2531C115.214 75.3184 114.993 75.6512 114.993 76.0172C114.993 76.2828 115.131 76.4817 115.296 76.6148V79.6062H113.936V75.6512H112.053V74.6879H112.218C112.383 74.6879 112.521 74.5208 112.521 74.3212C112.521 74.0895 112.383 73.9231 112.218 73.9231H112.053C112.356 73.0591 113.152 70.2666 112.122 67.4421C111.723 66.3124 110.914 65.2823 109.992 64.3522C109.086 63.455 108.095 62.6895 107.286 62.125C107.327 61.9914 107.354 61.7929 107.368 61.5598C107.381 61.3273 107.354 61.0289 107.243 60.7293C107.134 60.4301 106.888 60.1309 106.64 59.8988C106.392 59.6657 106.144 59.4661 105.951 59.3336L105.924 58.8359C105.98 58.7684 106.035 58.7363 106.063 58.6356C106.09 58.5696 106.117 58.4692 106.117 58.3696C106.117 58.2693 106.09 58.17 106.049 58.0711C106.008 58.0044 105.951 57.9387 105.898 57.9047L105.884 57.4403C105.925 57.4063 105.952 57.3399 105.98 57.306C106.008 57.2399 106.022 57.1735 106.022 57.0735C106.022 57.0075 106.008 56.9079 105.966 56.8404C105.939 56.7751 105.898 56.7415 105.856 56.7087L105.843 56.2102L105.704 52.6213C105.704 52.588 105.678 52.5545 105.636 52.5216C105.595 52.5216 105.568 52.5548 105.568 52.6213L105.431 56.2102L105.416 56.7087C105.375 56.7415 105.32 56.7754 105.293 56.8404C105.265 56.9079 105.238 57.0075 105.238 57.0735C105.238 57.1732 105.265 57.2399 105.293 57.306C105.32 57.3399 105.348 57.4063 105.389 57.4403L105.375 57.9047C105.306 57.9387 105.265 58.0044 105.21 58.0711C105.183 58.17 105.155 58.2693 105.155 58.3696C105.155 58.4689 105.183 58.5696 105.21 58.6356C105.238 58.736 105.28 58.7684 105.334 58.8359L105.321 59.3336C105.128 59.4661 104.867 59.6657 104.634 59.8988C104.372 60.1313 104.139 60.4301 104.03 60.7293C103.919 61.0289 103.892 61.3277 103.892 61.5598C103.919 61.7929 103.947 61.9914 103.987 62.125C103.177 62.6895 102.174 63.455 101.28 64.3522C100.359 65.2823 99.5485 66.3124 99.1372 67.4421C98.1209 70.2666 98.9036 73.0591 99.2193 73.9231H99.0539C98.8894 73.9231 98.738 74.0895 98.738 74.3212C98.738 74.5208 98.8894 74.6879 99.0539 74.6879H99.1239V75.6512H97.3369V79.6062H96.5532L96.539 69.7353H96.9663C97.2533 69.7353 97.4881 69.4365 97.4881 69.1045C97.4881 68.7399 97.253 68.4736 96.9663 68.4736H96.5264L96.4853 59.0023H96.6365C96.8831 59.0023 97.1027 58.7692 97.1027 58.47C97.1027 58.1379 96.8831 57.9055 96.6365 57.9055H96.4712L96.4431 50.2287H96.6365C96.8562 50.2287 97.0484 49.9963 97.0484 49.7303C97.0484 49.4975 96.9102 49.2979 96.7319 49.2654V47.7358L96.7467 47.6698C96.7319 47.6366 96.7319 47.6037 96.7319 47.5698V46.9389H96.8972C97.0213 46.9389 97.1027 46.8389 97.1027 46.7058C97.1027 46.5726 97.0213 46.4401 96.8972 46.4401H96.6628C96.7729 46.0409 96.9235 45.244 96.6365 44.4468C96.4992 44.0808 96.2237 43.7148 95.909 43.4163C95.6054 43.0843 95.2623 42.8511 94.9868 42.6519C95.001 42.6187 95.0149 42.5523 95.0149 42.4519C95.0149 42.3855 95.0149 42.287 94.9868 42.186C94.9319 42.0531 94.8637 41.9539 94.7674 41.8871C94.6851 41.8211 94.6021 41.755 94.5478 41.7211L94.5339 41.5219C94.5478 41.5219 94.574 41.489 94.574 41.4551C94.5891 41.4551 94.6021 41.4219 94.6021 41.3883C94.6021 41.3555 94.5891 41.3215 94.574 41.2891C94.561 41.2559 94.5478 41.2227 94.5197 41.2227V41.0566C94.5339 41.0566 94.5478 41.0238 94.5478 41.0238C94.561 40.9899 94.574 40.9567 94.574 40.9231C94.574 40.9231 94.561 40.8902 94.5478 40.8563C94.5478 40.8238 94.5197 40.8238 94.5058 40.8238V40.6575L94.4648 39.4278C94.4648 39.4278 94.4515 39.3946 94.4385 39.3946C94.4237 39.3946 94.4105 39.4278 94.4105 39.4278L94.3685 40.6575L94.3546 40.8238C94.3414 40.8238 94.3284 40.8238 94.3284 40.8563C94.3003 40.8902 94.3003 40.9231 94.3003 40.9231C94.3003 40.9567 94.3003 40.9899 94.3133 41.0238C94.3284 41.0238 94.3284 41.0566 94.3546 41.0566V41.2227C94.3284 41.2227 94.3003 41.2559 94.3003 41.2891C94.2732 41.3219 94.2732 41.3558 94.2732 41.3883C94.2732 41.4219 94.2732 41.4551 94.3003 41.4551C94.3003 41.489 94.3133 41.5219 94.3284 41.5219V41.7211C94.2593 41.755 94.176 41.8211 94.0939 41.8871C93.9977 41.9542 93.9295 42.0531 93.8884 42.186C93.8604 42.2867 93.8465 42.3855 93.8465 42.4519C93.8465 42.5519 93.8604 42.6187 93.8742 42.6519C93.5996 42.8511 93.2559 43.0843 92.9533 43.4163C92.6515 43.7148 92.376 44.0808 92.2378 44.4468C91.937 45.244 92.0875 46.0409 92.1968 46.4401H92.0048C91.8814 46.4401 91.7984 46.5726 91.7984 46.7058C91.7984 46.8389 91.8814 46.9389 92.0048 46.9389H92.1705V49.2654C91.9922 49.2979 91.854 49.4975 91.854 49.7303C91.854 49.9963 92.0462 50.2287 92.2659 50.2287H92.4581L92.4321 57.9055H92.2659C92.019 57.9055 91.7987 58.1379 91.7987 58.47C91.7987 58.7692 92.019 59.0023 92.2659 59.0023H92.4167L92.3757 68.4736H91.9367C91.6473 68.4736 91.4143 68.7399 91.4143 69.1045C91.4143 69.4365 91.6473 69.7353 91.9367 69.7353H92.3757L92.3476 86.8509H90.8651V85.8869H91.016C91.1949 85.8869 91.3322 85.7205 91.3322 85.5209C91.3322 85.2885 91.1949 85.1221 91.016 85.1221H90.8524C91.1669 84.2584 91.9641 81.4667 90.9336 78.6418C90.5347 77.5114 89.71 76.4813 88.789 75.5516C87.8967 74.6529 86.9076 73.8899 86.0828 73.3243C86.1239 73.1915 86.1658 72.9916 86.1658 72.7934C86.1788 72.5267 86.152 72.2282 86.0557 71.9294C85.9314 71.6302 85.6978 71.331 85.4504 71.0989C85.2029 70.8661 84.9561 70.6662 84.7636 70.5333L84.7358 70.036C84.791 69.9689 84.8321 69.9357 84.8601 69.8357C84.9015 69.7689 84.9292 69.6693 84.9292 69.57C84.9292 69.4697 84.9015 69.3701 84.8463 69.2705C84.8191 69.2044 84.7639 69.1373 84.7099 69.1041L84.6818 68.6389C84.7228 68.6057 84.7639 68.54 84.7781 68.5061C84.8191 68.4393 84.8191 68.3736 84.8191 68.2736C84.8191 68.2076 84.8052 68.1065 84.7639 68.0412C84.7361 67.9744 84.7099 67.9416 84.6537 67.9084L84.6408 67.4103L84.5034 63.821C84.5034 63.7874 84.4754 63.7542 84.4334 63.7206C84.4063 63.7206 84.3791 63.7546 84.3791 63.821L84.2418 67.4103L84.2138 67.9084C84.1727 67.9416 84.1323 67.9748 84.1045 68.0412C84.0765 68.1065 84.0493 68.2076 84.0493 68.2736C84.0493 68.3732 84.0623 68.4393 84.1045 68.5061C84.1184 68.54 84.1604 68.6057 84.1866 68.6389L84.1727 69.1041C84.1045 69.1373 84.0626 69.2044 84.0219 69.2705C83.9811 69.3701 83.9528 69.4697 83.9528 69.57C83.9528 69.6689 83.966 69.7689 84.0219 69.8357C84.0493 69.9353 84.0765 69.9689 84.1323 70.036L84.1184 70.5333C83.925 70.6662 83.6646 70.8661 83.4319 71.0989C83.1703 71.3313 82.9364 71.6302 82.8257 71.9294C82.7303 72.2282 82.7029 72.5267 82.7029 72.7934C82.7029 72.9916 82.7575 73.1915 82.7852 73.3243C81.9744 73.8903 80.972 74.6532 80.0782 75.5516C79.1569 76.4813 78.347 77.5114 77.9481 78.6418C76.9176 81.4667 77.7003 84.2584 78.0292 85.1221H77.8518C77.6732 85.1221 77.5359 85.2885 77.5359 85.5209C77.5359 85.7205 77.6732 85.8869 77.8518 85.8869H77.92V86.8509C76.4501 83.7768 71.4808 83.3214 69.8157 87.5668L69.7937 82.8463H69.9563C70.221 82.8463 70.4376 82.5781 70.4376 82.26C70.4376 81.94 70.221 81.6765 69.9563 81.6765H69.7858L69.7472 73.5531H69.9566C70.1899 73.5531 70.3839 73.3218 70.3839 73.0364C70.3839 72.7876 70.24 72.5811 70.0505 72.5285V70.0966H70.2364C70.3537 70.0966 70.4542 69.9736 70.4542 69.8247C70.4542 69.6791 70.3537 69.5606 70.2364 69.5606H69.9841C70.1048 69.1245 70.2602 68.2889 69.9494 67.4384C69.8015 67.044 69.5149 66.6689 69.1805 66.3394C68.8619 66.0205 68.5046 65.7479 68.2176 65.5505C68.2291 65.4947 68.2408 65.4286 68.2448 65.3484C68.2481 65.2498 68.2408 65.1458 68.2019 65.044C68.163 64.9306 68.0779 64.8273 67.984 64.743C67.8992 64.6631 67.8057 64.5974 67.7396 64.5507L67.7357 64.3672C67.7514 64.3486 67.7671 64.3249 67.7749 64.3011C67.79 64.2687 67.7982 64.2365 67.7982 64.2033C67.7982 64.1647 67.79 64.1231 67.7749 64.095C67.7592 64.0665 67.7435 64.0476 67.7203 64.0289L67.7125 63.8695C67.7275 63.8545 67.7396 63.8363 67.7478 63.8122C67.7592 63.7943 67.7671 63.7655 67.7671 63.7378C67.7671 63.7097 67.7592 63.6768 67.7435 63.6538C67.7357 63.6345 67.7203 63.6159 67.7046 63.5966L67.6971 63.4273L67.6506 62.1414C67.6506 62.1272 67.6431 62.1137 67.6271 62.1137C67.6111 62.1137 67.6035 62.1228 67.5999 62.1414L67.5534 63.4273L67.5492 63.5966C67.5302 63.6163 67.5148 63.6345 67.5064 63.6538C67.4919 63.6768 67.4874 63.7097 67.4874 63.7378C67.4874 63.7655 67.4919 63.7943 67.503 63.8122C67.5106 63.8363 67.5263 63.8545 67.5335 63.8695L67.5302 64.0289C67.5106 64.0476 67.4874 64.0665 67.4795 64.095C67.4605 64.1231 67.4523 64.1643 67.4523 64.2033C67.4523 64.2365 67.4602 64.2687 67.4759 64.3011C67.4834 64.3245 67.503 64.3486 67.5187 64.3672L67.5106 64.5507C67.4409 64.5974 67.3473 64.6635 67.2662 64.743C67.1726 64.8273 67.0875 64.9309 67.0525 65.044C67.0097 65.1458 67.0018 65.2498 67.006 65.3484C67.006 65.4286 67.0211 65.4943 67.0368 65.5505C66.7456 65.7479 66.3886 66.0205 66.0658 66.3394C65.7393 66.6685 65.4447 67.044 65.3011 67.4384C64.9942 68.2889 65.1421 69.1245 65.2661 69.5606H65.0564C64.9321 69.5606 64.8316 69.6788 64.8316 69.8247C64.8316 69.9736 64.9321 70.0966 65.0564 70.0966H65.2269V72.5285C65.0404 72.5851 64.9007 72.792 64.9007 73.0364C64.9007 73.3218 65.0992 73.5531 65.3355 73.5531H65.5371L65.4991 81.6765H65.3355C65.0676 81.6765 64.8461 81.94 64.8461 82.26C64.8461 82.5781 65.0673 82.8463 65.3355 82.8463H65.4991L65.4598 90.0743C63.5425 85.2754 59.6136 81.879 54.9943 81.4754V80.9084C54.9943 80.8176 54.9647 80.7286 54.9107 80.6632C54.8561 80.5979 54.7849 80.5621 54.7079 80.5621H54.4725L54.2879 74.7496C55.3313 74.2234 56.1407 73.0948 56.3504 71.6506C56.5987 69.9364 55.9349 68.2864 54.7861 67.4209C55.277 68.2806 55.4973 69.3661 55.3365 70.4801C55.0118 72.7292 53.2344 74.2347 51.3768 73.841C50.9311 73.7469 50.524 73.5527 50.161 73.2816C50.6656 74.1647 51.4483 74.8105 52.3916 75.0108C52.9764 75.1356 53.5462 75.0532 54.0715 74.8364L53.8829 80.5618H53.653C53.4912 80.5618 53.3582 80.7223 53.3582 80.919V81.463C48.3767 81.8009 44.1736 85.6183 42.3775 90.9449C42.1267 90.5979 41.8322 90.2673 41.5214 89.9521C40.9182 89.3463 40.2501 88.8289 39.6928 88.4476C39.7202 88.3579 39.7486 88.2232 39.7486 88.089C39.7573 87.9091 39.7392 87.7066 39.6741 87.5051C39.5902 87.3026 39.4323 87.1005 39.2655 86.9436C39.0983 86.7856 38.9314 86.6513 38.8011 86.5612L38.7824 86.2248C38.8195 86.1803 38.8472 86.1573 38.8666 86.0898C38.8943 86.0456 38.913 85.977 38.913 85.9106C38.913 85.8431 38.8943 85.7752 38.8566 85.7074C38.8388 85.6632 38.8011 85.618 38.7646 85.5954L38.7455 85.2808C38.7733 85.2589 38.8011 85.2141 38.811 85.1911C38.8388 85.1458 38.8388 85.1017 38.8388 85.0338C38.8388 84.9889 38.8288 84.9211 38.8011 84.8776C38.7824 84.8317 38.7646 84.8098 38.7265 84.7864L38.7178 84.45L38.6251 82.025C38.6251 82.0027 38.6061 81.9808 38.5778 81.9575C38.5597 81.9575 38.5413 81.9805 38.5413 82.025L38.4483 84.45L38.4293 84.7864C38.4018 84.8098 38.3747 84.8317 38.3557 84.8776C38.3367 84.9211 38.3183 84.9889 38.3183 85.0338C38.3183 85.1017 38.3273 85.1458 38.3557 85.1911C38.365 85.2141 38.3934 85.2593 38.4112 85.2808L38.4018 85.5954C38.3557 85.618 38.3273 85.6632 38.2999 85.7074C38.2724 85.7752 38.2534 85.8431 38.2534 85.9106C38.2534 85.9774 38.2624 86.0456 38.2999 86.0898C38.3183 86.1576 38.3367 86.1803 38.3747 86.2248L38.365 86.5612C38.2344 86.6513 38.0581 86.7856 37.9012 86.9436C37.7241 87.1005 37.5663 87.3026 37.4914 87.5051C37.4269 87.7066 37.4085 87.9087 37.4085 88.089C37.4085 88.2232 37.4453 88.3579 37.4643 88.4476C36.9166 88.8289 36.2392 89.3463 35.635 89.9521C35.0122 90.5815 34.4648 91.277 34.1953 92.041C34.0236 92.5114 33.9274 92.9799 33.8815 93.429C32.0743 92.5792 30.5456 91.5024 29.3223 90.244C29.373 90.1235 29.4098 89.994 29.4098 89.8488C29.4098 89.4916 29.2296 89.1847 28.9725 89.049L28.7897 85.5954H28.5754L28.3916 89.049C28.1345 89.1847 27.9571 89.4916 27.9571 89.8488C27.9571 89.994 27.9912 90.1235 28.0437 90.244C26.7078 91.6108 24.9926 92.7872 22.9802 93.6615C19.8878 94.9998 17.8244 97.3968 17.8244 100.134C17.8244 100.918 17.9949 101.678 18.3081 102.387H17.0978V96.0836H17.1696C17.3751 96.0836 17.5423 95.8836 17.5423 95.634V95.379C17.5423 95.1327 17.3751 94.9302 17.1696 94.9302H16.6822C16.7025 94.763 16.7163 94.5981 16.7163 94.4204C16.7163 93.2189 16.1898 92.1625 15.4007 91.5743C14.91 91.2098 14.4918 90.7362 14.1623 90.1783C14.225 90.1075 14.2619 90.0064 14.2619 89.8962C14.2619 89.7397 14.1849 89.6018 14.0711 89.5438L13.9897 88.0233H13.8961L13.8159 89.5438C13.7021 89.6018 13.6242 89.7397 13.6242 89.8962C13.6242 90.0068 13.6626 90.1075 13.7247 90.1783C13.3916 90.734 12.9724 91.2105 12.4878 91.5743C11.6978 92.1621 11.1703 93.2189 11.1703 94.4204C11.1703 94.5981 11.1836 94.763 11.2072 94.9302H10.7026C10.4977 94.9302 10.3324 95.133 10.3324 95.379V95.634C10.3324 95.884 10.4977 96.0836 10.7026 96.0836H10.7874V102.694C10.3692 100.945 9.27923 99.5441 7.87032 98.9253C7.87213 98.8975 7.87726 98.8702 7.87726 98.8417C7.87726 98.0003 7.43368 97.2931 6.81448 97.0213L6.58816 96.1916C6.63252 96.1157 6.6636 96.0288 6.6636 95.9307C6.6636 95.7398 6.56643 95.5789 6.43275 95.5038L6.29183 92.885C6.29183 92.8729 6.28006 92.8642 6.26829 92.8642C6.26045 92.8642 6.24989 92.8726 6.24989 92.885L6.10897 95.5038C5.97619 95.5789 5.87993 95.7395 5.87993 95.9307C5.87993 96.0288 5.9095 96.1149 5.95145 96.1894L5.72664 97.0213C5.10834 97.2931 4.66566 98.0025 4.66566 98.8417C4.66566 98.8702 4.67109 98.8975 4.67109 98.9253C2.86296 99.7196 1.56239 101.797 1.56239 104.261C1.56239 104.851 1.65593 105.41 1.79413 105.946H0.167662V106.807H0.000488281V139H309V106.807V105.946H307.374V105.947ZM296.956 98.9588C296.956 98.07 297.173 97.3238 297.469 97.0997C297.762 97.3234 297.978 98.07 297.978 98.9588V102.447H296.956V98.9588ZM293.932 98.5877C293.932 97.6073 294.478 96.7819 295.225 96.5291C295.968 96.7816 296.516 97.6073 296.516 98.5877V102.447H294.557V102.388H293.932V98.5877ZM292.478 98.9588C292.478 98.07 292.694 97.3238 292.987 97.0997C293.284 97.3234 293.499 98.07 293.499 98.9588V102.388H292.477V98.9588H292.478ZM240.788 71.1296C240.613 70.5279 241.433 70.5574 241.526 70.097C241.623 70.5574 242.442 70.5279 242.264 71.1296C242.24 71.2237 242.213 71.2981 242.276 71.3923C242.333 71.4864 242.326 71.5616 242.326 71.5616V72.5147H240.733V71.5616C240.733 71.5616 240.718 71.4864 240.78 71.3923C240.842 71.2981 240.819 71.2237 240.788 71.1296ZM213.864 48.9892V47.2695C213.864 46.601 214.236 46.0398 214.744 45.8676C215.25 46.0398 215.624 46.6014 215.624 47.2695V49.0293H213.863L213.864 48.9892ZM191.684 71.0431C191.684 70.1535 191.901 69.4084 192.197 69.1829C192.49 69.4081 192.706 70.1535 192.706 71.0431V73.783H191.684V71.0431ZM188.713 73.7206V71.1942C188.713 70.2137 189.26 69.3883 190.006 69.1355C190.749 69.388 191.297 70.2137 191.297 71.1942V73.7793H188.712L188.713 73.7206ZM187.205 71.0431C187.205 70.1535 187.421 69.4084 187.715 69.1829C188.011 69.4081 188.227 70.1535 188.227 71.0431V73.7914H187.205L187.205 71.0431ZM120.941 71.0431C120.941 70.1535 121.156 69.4084 121.452 69.1829C121.746 69.4081 121.962 70.1535 121.962 71.0431V73.7914H120.941V71.0431ZM117.87 71.1942C117.87 70.2137 118.418 69.3883 119.161 69.1355C119.908 69.388 120.455 70.2137 120.455 71.1942V73.7206L120.455 73.7793H117.87V71.1942H117.87ZM116.462 71.0431C116.462 70.1535 116.677 69.4084 116.97 69.1829C117.267 69.4081 117.484 70.1535 117.484 71.0431V73.783H116.462V71.0431ZM93.5444 47.2695C93.5444 46.601 93.9177 46.0398 94.4234 45.8676C94.9319 46.0398 95.3043 46.6014 95.3043 47.2695V48.9892L95.3049 49.029H93.5444V47.2695ZM66.9037 71.1296C66.7254 70.5279 67.545 70.5574 67.6418 70.097C67.7348 70.5574 68.5541 70.5279 68.3799 71.1296C68.3486 71.2237 68.325 71.2981 68.3872 71.3923C68.4493 71.4864 68.4343 71.5616 68.4343 71.5616V72.5147H66.8416V71.5616C66.8416 71.5616 66.8337 71.4864 66.892 71.3923C66.9544 71.2981 66.9276 71.2237 66.9037 71.1296ZM15.6683 98.9588C15.6683 98.07 15.8835 97.3238 16.1801 97.0997C16.474 97.3234 16.6898 98.07 16.6898 98.9588V102.388H15.6683V98.9588ZM12.6517 98.5877C12.6517 97.6073 13.2 96.7819 13.9426 96.5291C14.6897 96.7816 15.2362 97.6073 15.2362 98.5877V102.388H14.6107V102.447H12.6514L12.6517 98.5877ZM11.19 98.9588C11.19 98.07 11.4051 97.3238 11.6981 97.0997C11.9947 97.3234 12.2117 98.07 12.2117 98.9588V102.447H11.19V98.9588Z"
        fill="#338d85" fill-opacity="0.1" />
</svg>
