<svg xmlns="http://www.w3.org/2000/svg" width="233.331" height="66.331"
    viewBox="0 0 233.331 66.331">
    <g transform="translate(-3260.5 -1205.816)">
        <path
            d="M3473.812,1206.816H3280.52a19.019,19.019,0,0,0-19.02,19.02v26.291a19.02,19.02,0,0,0,19.02,19.02h62.444l-15.3-15.3H3313.75l-16.541-16.541v-.146l16.541-16.541h13.914l15.324-15.324h68.355l15.325,15.324h13.914l16.541,16.541v.146l-16.541,16.541h-13.914l-15.3,15.3h62.444a19.02,19.02,0,0,0,19.019-19.02v-26.291A19.019,19.019,0,0,0,3473.812,1206.816Zm-187.355,42.707-10.216-10.217,10.216-10.216,10.217,10.216Zm181.417,0-10.217-10.217,10.217-10.216,10.216,10.216Z"
            fill="#c5e0dd" opacity="0.1" />
        <rect width="14.448" height="14.448" transform="translate(3457.657 1239.054) rotate(-45)"
            fill="none" stroke="#338d85" stroke-miterlimit="10" stroke-width="2" />
        <rect width="14.448" height="14.448" transform="translate(3286.457 1249.271) rotate(-135)"
            fill="none" stroke="#338d85" stroke-miterlimit="10" stroke-width="2" />
        <path
            d="M3361.16,1270.92h50.183l15.324-15.325h13.914l16.541-16.541v-.146l-16.541-16.541h-13.914l-15.324-15.325H3361.16"
            fill="none" stroke="#338d85" stroke-miterlimit="10" stroke-width="2" />
        <path
            d="M3393.171,1270.92h-50.183l-15.325-15.325H3313.75l-16.541-16.541v-.146l16.541-16.541h13.914l15.325-15.325h50.183"
            fill="none" stroke="#338d85" stroke-miterlimit="10" stroke-width="2" />
        <rect width="231.331" height="64.331" rx="19.02" transform="translate(3261.5 1206.816)"
            fill="none" stroke="#338d85" stroke-miterlimit="10" stroke-width="2" />
    </g>
</svg>