<svg id="vector" xmlns="http://www.w3.org/2000/svg" width="24" height="24" viewBox="0 0 24 24"><path fill="#000000FF" d="M8.4,18.3c0,-0.1 0,-0.1 -0.1,-0.2c-0.3,-0.5 -0.2,-0.9 0,-1.4c0.3,-0.6 0.7,-1.1 1.3,-1.4c0.2,-0.1 0.4,-0.1 0.6,0.1c0.1,0.1 0.3,0.3 0.4,0.5c0.1,0.2 0.3,0.4 0.4,0.6c0.4,0.6 1,1 1.7,1.1c1,0.2 2,0 3,-0.3c0.1,0 0.2,-0.1 0.3,-0.1c0.3,-0.2 0.4,-0.3 0.3,-0.6c-0.4,-2.3 -0.8,-4.6 -1.3,-6.9c-0.1,-0.7 -0.2,-1.4 -0.3,-2c0,-0.2 -0.1,-0.4 -0.2,-0.6c-0.3,-0.4 -0.3,-0.9 -0.1,-1.3c0.1,-0.2 0.2,-0.4 0.3,-0.6c0.1,-0.2 0.3,-0.2 0.3,0c0.2,0.5 0.5,0.9 0.8,1.4C16,6.7 16,6.9 15.8,7.1c-0.3,0.3 -0.3,0.6 -0.3,1c0.3,1.7 0.6,3.4 1,5.1c0.1,0.8 0.3,1.5 0.4,2.3c0.1,0.6 0.1,1.3 -0.1,1.9c-0.2,0.8 -0.7,1.3 -1.4,1.5c-0.6,0.2 -1.1,0.2 -1.7,0.3c-0.6,0.1 -1.1,-0.1 -1.6,-0.3c-0.3,-0.1 -0.3,-0.1 -0.4,0.2c0,0.1 0,0.1 0,0.2c-0.1,0.3 -0.2,0.4 -0.5,0.3c-0.3,-0.1 -0.6,-0.1 -0.9,-0.2c-0.4,-0.1 -0.9,-0.2 -1.3,-0.5c-0.2,-0.1 -0.3,0 -0.3,0.1c-0.1,0.1 -0.1,0.2 -0.1,0.4c-0.2,0.8 -0.7,1.4 -1.5,1.8c-0.5,0.3 -1,0.4 -1.4,0.6c-0.6,0.2 -1.2,0.4 -1.8,0.6c-0.1,0 -0.2,0 -0.3,0s-0.2,0 -0.3,-0.1c0,-0.1 0.1,-0.2 0.2,-0.3c0.3,-0.2 0.6,-0.4 1,-0.6c0.9,-0.5 1.9,-1 2.7,-1.6c0.3,-0.3 0.7,-0.6 1,-0.9C8.3,18.8 8.4,18.6 8.4,18.3zM10.7,17.9c-0.2,-0.5 -0.4,-1 -0.6,-1.5c-0.1,-0.3 -0.4,-0.4 -0.7,-0.1c-0.1,0 -0.1,0.1 -0.2,0.2c-0.1,0.1 -0.2,0.2 -0.4,0.3c-0.2,0.1 -0.2,0.2 0,0.3c0,0 0.1,0.1 0.1,0.1c0.5,0.3 1,0.5 1.5,0.7C10.5,17.9 10.6,17.9 10.7,17.9z" stroke-width="0.5" stroke="#000000" id="path_0"/><path fill="#000000FF" d="M20.3,19.2c0,-0.1 0,-0.3 0,-0.5c-0.1,-0.8 -0.1,-1.7 -0.2,-2.5c-0.3,-2.3 -0.8,-4.6 -1.2,-7c-0.1,-0.6 -0.2,-1.3 -0.2,-1.9c0,-0.4 0.1,-0.8 0.2,-1.3c0,-0.1 0.1,-0.2 0.2,-0.2c0,0.1 0.1,0.2 0.2,0.3c0,0.1 0.1,0.3 0.1,0.4c0,0.7 0.2,1.3 0.3,2c0.2,1.2 0.4,2.5 0.6,3.7c0.1,0.5 0.3,1 0.3,1.6c0.1,1 0.4,2 0.4,3c0,0.5 -0.1,1.1 -0.2,1.6c0,0.2 0,0.4 -0.1,0.5c0,0.1 -0.1,0.2 -0.1,0.3C20.3,19.2 20.3,19.2 20.3,19.2z" stroke-width="0.5" stroke="#000000" id="path_1"/><path fill="#000000FF" d="M5.3,11.8c0,-0.1 0,-0.1 0,-0.2c0.1,-0.5 0.2,-1 0.6,-1.4C6,9.9 6.1,9.9 6.3,10c0.3,0.2 0.7,0.3 1.1,0.3c1.5,0.2 2.9,-0.1 4.2,-0.8c0.2,-0.1 0.4,-0.3 0.7,-0.4c0.1,0 0.2,-0.1 0.2,0c0.1,0.1 0.1,0.1 0.1,0.2c0,0.4 -0.2,0.6 -0.6,0.8c-0.3,0.2 -0.6,0.3 -0.9,0.5c-1.1,0.6 -2.3,0.8 -3.5,0.8c-0.4,0 -0.8,-0.1 -1.2,-0.2c-0.1,0 -0.1,0 -0.2,-0.1C5.9,11 5.9,11 5.8,11.3C5.7,11.5 5.6,11.7 5.3,11.8z" stroke-width="0.5" stroke="#000000" id="path_2"/><path fill="#000000FF" d="M12.9,4c-0.2,0 -0.6,-0.1 -1,-0.2c-0.1,0 -0.3,-0.1 -0.4,-0.1c-0.2,0 -0.2,0.1 -0.3,0.2C11,4 10.9,4.2 10.8,4.3c0,0.1 -0.1,0.1 -0.2,0.1c0,-0.1 0,-0.1 0,-0.2c0,0 0,-0.1 0,-0.1c0.2,-0.3 0.3,-0.7 0.5,-1.1c0.2,-0.3 0.4,-0.4 0.7,-0.2c1,0.4 2.1,0.3 3.1,0c0.5,-0.1 0.9,-0.3 1.4,-0.5C16.7,2.2 17,2 17.2,1.6c0,-0.1 0.2,-0.1 0.2,-0.1c0,0 0.1,0.1 0.1,0.2c0,0.4 -0.2,0.7 -0.5,0.9c-0.5,0.4 -1,0.6 -1.5,0.8C14.8,3.8 13.9,3.9 12.9,4z" stroke-width="0.5" stroke="#000000" id="path_3"/></svg>