<?xml version="1.0" encoding="iso-8859-1"?>
<!-- Uploaded to: SVG Repo, www.svgrepo.com, Generator: SVG Repo Mixer Tools -->
<!DOCTYPE svg PUBLIC "-//W3C//DTD SVG 1.1//EN" "http://www.w3.org/Graphics/SVG/1.1/DTD/svg11.dtd">
<svg fill="#000000" version="1.1" id="Capa_1" xmlns="http://www.w3.org/2000/svg" xmlns:xlink="http://www.w3.org/1999/xlink" 
	 width="800px" height="800px" viewBox="0 0 31.869 31.869"
	 xml:space="preserve">
<g>
	<g>
		<path d="M0,31.741h7.942V20.543c0-1.506-1.221-2.728-2.728-2.728H2.727C1.221,17.816,0,19.038,0,20.543V31.741z"/>
		<path d="M11.966,31.741h7.942V12.085c0-1.506-1.221-2.728-2.727-2.728h-2.49c-1.507,0-2.728,1.221-2.728,2.728L11.966,31.741
			L11.966,31.741z"/>
		<path d="M26.656,0.127c-1.506,0-2.729,1.221-2.729,2.728v28.887h7.942V2.854c0-1.506-1.223-2.728-2.729-2.728L26.656,0.127
			L26.656,0.127z"/>
	</g>
</g>
</svg>