<?xml version="1.0" standalone="no"?><!DOCTYPE svg PUBLIC "-//W3C//DTD SVG 20010904//EN"
    "http://www.w3.org/TR/2001/REC-SVG-20010904/DTD/svg10.dtd">
<svg version="1.0" xmlns="http://www.w3.org/2000/svg" width="512.000000pt" height="512.000000pt"
    viewBox="0 0 512.000000 512.000000" preserveAspectRatio="xMidYMid meet">

    <g transform="translate(0.000000,512.000000) scale(0.100000,-0.100000)" fill="#000000"
        stroke="none">
        <path d="M2990 4754 c-196 -19 -355 -50 -511 -100 -772 -248 -1336 -899 -1480
-1709 -20 -112 -23 -163 -23 -370 0 -269 16 -393 79 -615 30 -106 32 -120 22
-173 -8 -41 -16 -57 -27 -57 -39 0 -142 -34 -219 -71 -67 -33 -102 -59 -165
-123 -91 -91 -135 -159 -173 -268 -23 -64 -27 -89 -27 -208 -1 -123 2 -143 28
-224 85 -259 308 -436 587 -466 121 -12 1215 -13 1335 0 51 5 124 21 164 36
l73 26 126 -22 c180 -32 470 -38 651 -15 392 49 755 199 1068 439 53 41 112
90 130 109 l33 34 -33 67 -32 66 -86 0 c-117 0 -325 25 -446 55 -421 101 -809
337 -1076 654 -305 363 -467 781 -485 1251 -20 548 186 1084 570 1477 l71 72
-29 71 c-31 77 -23 73 -125 64z m-183 -266 c-290 -372 -447 -805 -464 -1273
-39 -1096 734 -2047 1816 -2235 62 -11 130 -20 150 -21 77 -1 79 -11 10 -60
-370 -261 -856 -395 -1299 -359 -196 16 -188 11 -133 78 25 31 63 93 84 137
190 401 -46 878 -478 966 -61 13 -63 14 -69 48 -41 247 -222 459 -460 537 -81
26 -101 29 -224 28 -119 0 -144 -4 -208 -27 -107 -37 -177 -82 -264 -167 l-76
-76 -21 101 c-178 856 224 1737 987 2168 117 66 278 136 398 173 89 27 306 75
313 68 1 -1 -26 -40 -62 -86z m-882 -2337 c157 -56 281 -188 329 -349 8 -28
18 -90 22 -136 l7 -83 89 -7 c184 -14 326 -95 424 -241 70 -105 100 -258 75
-387 -36 -184 -181 -343 -366 -401 -69 -22 -76 -22 -755 -22 -679 0 -686 0
-755 22 -268 84 -428 364 -360 628 26 100 64 165 139 241 104 104 203 148 362
160 l82 7 6 81 c14 163 56 258 160 362 75 74 148 117 239 140 75 19 227 12
302 -15z" />
        <path d="M2650 948 c0 -40 -40 -106 -86 -137 -40 -26 -153 -61 -198 -61 -23 0
-23 -148 -1 -156 26 -10 178 26 243 58 111 55 202 182 202 283 l0 35 -80 0
c-76 0 -80 -1 -80 -22z" />
    </g>
</svg>
