<?xml version="1.0" encoding="utf-8"?>
<!-- Svg Vector Icons : http://www.onlinewebfonts.com/icon -->
<!DOCTYPE svg PUBLIC "-//W3C//DTD SVG 1.1//EN" "http://www.w3.org/Graphics/SVG/1.1/DTD/svg11.dtd">
<svg version="1.1" xmlns="http://www.w3.org/2000/svg" xmlns:xlink="http://www.w3.org/1999/xlink" x="0px" y="0px" viewBox="0 0 256 256" enable-background="new 0 0 256 256" xml:space="preserve">
<metadata> Svg Vector Icons : http://www.onlinewebfonts.com/icon </metadata>
<g><g><g><path fill="#000000" d="M210.5,121.9c2.2-1.7,4.5-3.3,6.5-5.3c6.1-6.1,10.7-13.5,13.7-22.1c1-2.7,0.3-5.7-1.7-7.7c-2-2-5-2.7-7.7-1.8c-16.3,5.8-34,1.9-46-10.3c-12.1-12.1-16-29.7-10.3-46c0.9-2.7,0.3-5.7-1.8-7.7c-2-2-5-2.7-7.7-1.8c-8.5,3-16,7.7-22.1,13.8c-15.5,15.4-20.3,37.3-15,57c-19.9,2.6-37.9,13.1-49.8,29.4c-2.4-0.3-4.8-0.5-7.3-0.5c-28.4,0-51.6,23.2-51.6,51.7c0,28.5,23.2,51.6,51.6,51.6c6.3,0,12.5-1.2,18.3-3.4c13.3,11.6,30.3,18.1,48.1,18.1c17.8,0,34.7-6.5,48.1-18.1c5.8,2.2,12,3.4,18.3,3.4c28.5,0,51.6-23.2,51.6-51.6C246,147.9,231.1,128.7,210.5,121.9z M144.1,43.5c1.2-1.2,2.4-2.3,3.8-3.3c-1,16.6,4.9,32.9,17.1,45.1c12.2,12.2,28.5,18.1,45.1,17.1c-6.4,8.1-15.1,13.1-24.5,15.3c-12.6-16-31.2-26.1-51.6-27.7C128.3,74.3,131.6,56.1,144.1,43.5z M194.4,207.6c-7.9,0-15.2-2.5-21.2-6.8c-10.8,13.1-26.9,21.5-45.2,21.5s-34.4-8.5-45.2-21.5c-6,4.2-13.3,6.8-21.2,6.8c-20.4,0-36.9-16.5-36.9-36.9c0-20.4,16.5-36.9,36.9-36.9c5,0,9.7,1,14,2.8c9.3-18.1,27.5-30.8,49-32.1c1.1-0.1,2.2-0.2,3.3-0.2c5.9,0,11.7,0.9,17.1,2.6c7.3,2.2,13.9,5.9,19.7,10.5c5.5,4.5,10.1,9.9,13.8,16.1c0.6,1,1.3,2,1.9,3.1c4.3-1.8,9.1-2.8,14-2.8c20.4,0,36.9,16.5,36.9,36.9C231.3,191,214.7,207.6,194.4,207.6L194.4,207.6z"/></g></g></g>
</svg>