<?xml version="1.0" standalone="no"?>
<!DOCTYPE svg PUBLIC "-//W3C//DTD SVG 20010904//EN"
 "http://www.w3.org/TR/2001/REC-SVG-20010904/DTD/svg10.dtd">
<svg version="1.0" xmlns="http://www.w3.org/2000/svg"
 width="512.000000pt" height="512.000000pt" viewBox="0 0 512.000000 512.000000"
 preserveAspectRatio="xMidYMid meet">

<g transform="translate(0.000000,512.000000) scale(0.100000,-0.100000)"
fill="#000000" stroke="none">
<path d="M2540 4903 c-89 -27 -90 -34 -90 -414 l0 -323 -62 61 c-72 70 -94 83
-138 83 -45 0 -100 -56 -100 -101 0 -19 8 -46 18 -60 9 -14 92 -99 183 -187
226 -220 194 -222 438 22 l184 184 -6 44 c-11 79 -86 120 -155 84 -15 -8 -52
-40 -82 -71 l-55 -56 -5 335 -5 336 -30 29 c-30 29 -68 43 -95 34z"/>
<path d="M2494 3072 c-39 -31 -44 -55 -44 -212 0 -92 4 -160 11 -173 19 -38
51 -57 97 -57 35 0 49 6 73 29 l29 29 0 172 0 172 -29 29 c-24 23 -38 29 -73
29 -26 0 -52 -7 -64 -18z"/>
<path d="M1474 2801 c-36 -22 -57 -71 -47 -109 3 -14 40 -84 81 -155 63 -108
81 -132 110 -144 43 -18 78 -10 115 25 47 45 39 87 -47 238 -94 164 -135 192
-212 145z"/>
<path d="M3535 2790 c-11 -4 -30 -18 -41 -31 -33 -37 -144 -242 -144 -266 0
-98 116 -146 180 -76 36 40 150 246 150 271 0 38 -19 72 -52 92 -35 21 -60 24
-93 10z"/>
<path d="M2315 2465 c-430 -70 -815 -320 -1047 -680 -49 -76 -98 -168 -98
-185 0 -7 440 -10 1390 -10 765 0 1390 2 1390 5 0 12 -66 135 -104 195 -215
333 -568 573 -975 661 -127 28 -424 35 -556 14z"/>
<path d="M733 2056 c-33 -15 -63 -60 -63 -96 0 -51 28 -78 166 -156 96 -55
147 -78 170 -78 75 0 124 80 92 148 -13 27 -43 49 -149 110 -73 43 -144 79
-158 82 -14 2 -40 -2 -58 -10z"/>
<path d="M4156 1979 c-125 -73 -141 -87 -151 -131 -15 -63 61 -139 122 -123
42 10 251 135 273 162 52 67 4 163 -82 163 -35 -1 -65 -14 -162 -71z"/>
<path d="M65 1371 c-33 -14 -56 -47 -62 -90 -5 -36 -2 -44 30 -76 l35 -35
2492 0 2492 0 35 35 c32 32 35 40 30 77 -3 26 -15 51 -31 67 l-26 26 -2488 2
c-1368 1 -2496 -2 -2507 -6z"/>
<path d="M717 889 c-24 -14 -47 -62 -47 -98 0 -20 11 -42 29 -63 l29 -33 1832
0 1832 0 29 33 c43 48 37 112 -15 154 -20 17 -132 18 -1846 17 -1221 0 -1831
-3 -1843 -10z"/>
<path d="M1574 416 c-41 -18 -64 -52 -64 -96 0 -45 23 -78 66 -96 50 -21 1918
-21 1968 0 43 18 66 51 66 96 0 45 -23 78 -66 96 -49 20 -1923 20 -1970 0z"/>
</g>
</svg>
